<?xml version="1.0" encoding="UTF-8" standalone="no"?>
<!-- Created with Inkscape (http://www.inkscape.org/) -->

<svg
   xmlns:dc="http://purl.org/dc/elements/1.1/"
   xmlns:cc="http://creativecommons.org/ns#"
   xmlns:rdf="http://www.w3.org/1999/02/22-rdf-syntax-ns#"
   xmlns:svg="http://www.w3.org/2000/svg"
   xmlns="http://www.w3.org/2000/svg"
   xmlns:sodipodi="http://sodipodi.sourceforge.net/DTD/sodipodi-0.dtd"
   xmlns:inkscape="http://www.inkscape.org/namespaces/inkscape"
   width="180"
   height="180"
   id="svg4600"
   version="1.1"
   inkscape:version="0.48.5 r10040"
   sodipodi:docname="01bag.svg"
   inkscape:export-filename="/home/vg/Project/boa/x-ray/assets/01bag.png"
   inkscape:export-xdpi="90"
   inkscape:export-ydpi="90">
  <defs
     id="defs4602" />
  <sodipodi:namedview
     id="base"
     pagecolor="#ffffff"
     bordercolor="#666666"
     borderopacity="1.0"
     inkscape:pageopacity="0.0"
     inkscape:pageshadow="2"
     inkscape:zoom="1.4142136"
     inkscape:cx="89.27677"
     inkscape:cy="61.313672"
     inkscape:document-units="px"
     inkscape:current-layer="g5122"
     showgrid="true"
     inkscape:showpageshadow="false"
     borderlayer="true"
     inkscape:snap-global="false"
     showguides="true"
     inkscape:guide-bbox="true"
     inkscape:window-width="1366"
     inkscape:window-height="715"
     inkscape:window-x="0"
     inkscape:window-y="0"
     inkscape:window-maximized="1"
     fit-margin-top="0"
     fit-margin-left="0"
     fit-margin-right="0"
     fit-margin-bottom="0">
    <inkscape:grid
       type="xygrid"
       id="grid4608"
       empspacing="6"
       visible="true"
       enabled="true"
       snapvisiblegridlinesonly="true"
       spacingx="5px"
       spacingy="5px"
       originx="0px"
       originy="3.1528321e-05px" />
    <sodipodi:guide
       orientation="0,1"
       position="40,135.00003"
       id="guide4264" />
  </sodipodi:namedview>
  <metadata
     id="metadata4605">
    <rdf:RDF>
      <cc:Work
         rdf:about="">
        <dc:format>image/svg+xml</dc:format>
        <dc:type
           rdf:resource="http://purl.org/dc/dcmitype/StillImage" />
        <dc:title></dc:title>
      </cc:Work>
    </rdf:RDF>
  </metadata>
  <g
     inkscape:label="4"
     inkscape:groupmode="layer"
     id="layer1"
     transform="translate(0,-872.36223)"
     sodipodi:insensitive="true"
     style="display:none">
    <rect
       style="fill:#9a6543;fill-opacity:1;stroke:none"
       id="rect4612"
       width="50"
       height="50"
       x="0"
       y="0"
       transform="translate(0,1002.3622)" />
  </g>
  <g
     transform="translate(0,-872.36223)"
     id="g5122"
     inkscape:groupmode="layer"
     inkscape:label="0">
    <rect
       style="fill:#b58161;fill-opacity:1;stroke:none"
       id="rect5131"
       width="179.73157"
       height="170.89232"
       x="0"
       y="881.46991"
       rx="28.571428"
       ry="28.571428" />
    <rect
       ry="28.571428"
       rx="28.571428"
       y="902.58588"
       x="0"
       height="149.77631"
       width="179.73157"
       id="rect5140"
       style="fill:#9a6543;fill-opacity:1;stroke:none" />
    <path
       style="fill:#762a2a;fill-opacity:1;stroke:none"
       d="m 74.888156,872.83066 c -8.297608,0 -14.977631,5.73744 -14.977631,12.86423 l 0,12.86422 8.986578,0 0,-9.00496 c 0,-4.98874 4.676017,-9.00495 10.484342,-9.00495 l 20.968685,0 c 5.80832,0 10.48434,4.01621 10.48434,9.00495 l 0,9.00496 8.98658,0 0,-12.86422 c 0,-7.12679 -6.68002,-12.86423 -14.97763,-12.86423 l -29.955264,0 z"
       id="rect5135"
       inkscape:connector-curvature="0" />
    <path
       style="fill:#762a2a;fill-opacity:1;stroke:none"
       d="M 34.223887,902.58589 C 15.257927,902.58589 0,917.84378 0,936.80977 l 0,81.32853 c 0,18.966 15.257927,34.2239 34.223887,34.2239 l 111.283803,0 c 18.96596,0 34.22388,-15.2579 34.22388,-34.2239 l 0,-81.32853 c 0,-18.96599 -15.25792,-34.22388 -34.22388,-34.22388 l -111.283803,0 z m 5.991053,4.98012 99.30169,0 c 18.96596,0 34.22389,15.29528 34.22389,34.26127 l 0,71.29352 c 0,18.966 -15.25793,34.2614 -34.22389,34.2614 l -99.30169,0 c -18.96596,0 -34.2238875,-15.2954 -34.2238875,-34.2614 l 0,-71.29352 c 0,-18.96599 15.2579275,-34.26127 34.2238875,-34.26127 z"
       id="rect5157"
       inkscape:connector-curvature="0" />
    <path
       style="fill:#b65a5a;fill-opacity:1;stroke:none"
       d="m 35.946315,881.46988 0,28.48205 17.973157,0 0,-28.48205 -17.973157,0 z"
       id="rect5167"
       inkscape:connector-curvature="0" />
    <rect
       y="902.58588"
       x="35.946316"
       height="149.77631"
       width="17.973158"
       id="rect5164"
       style="fill:#762a2a;fill-opacity:1;stroke:none" />
    <path
       style="fill:#964242;fill-opacity:1;stroke:none"
       d="m 35.946315,902.58589 0,5.99105 17.973157,0 0,-5.99105 -17.973157,0 z"
       id="rect5190"
       inkscape:connector-curvature="0" />
    <path
       id="path5197"
       d="m 125.8121,881.46988 0,28.48205 17.97316,0 0,-28.48205 -17.97316,0 z"
       style="fill:#b65a5a;fill-opacity:1;stroke:none"
       inkscape:connector-curvature="0" />
    <rect
       style="fill:#762a2a;fill-opacity:1;stroke:none"
       id="rect5199"
       width="17.973158"
       height="149.77631"
       x="125.8121"
       y="902.58588" />
    <path
       inkscape:connector-curvature="0"
       id="path5201"
       d="m 125.8121,902.58589 0,5.99105 17.97316,0 0,-5.99105 -17.97316,0 z"
       style="fill:#964242;fill-opacity:1;stroke:none" />
  </g>
</svg>
