<?xml version="1.0" encoding="UTF-8" standalone="no"?>
<!-- Created with Inkscape (http://www.inkscape.org/) -->

<svg
   xmlns:dc="http://purl.org/dc/elements/1.1/"
   xmlns:cc="http://creativecommons.org/ns#"
   xmlns:rdf="http://www.w3.org/1999/02/22-rdf-syntax-ns#"
   xmlns:svg="http://www.w3.org/2000/svg"
   xmlns="http://www.w3.org/2000/svg"
   xmlns:sodipodi="http://sodipodi.sourceforge.net/DTD/sodipodi-0.dtd"
   xmlns:inkscape="http://www.inkscape.org/namespaces/inkscape"
   width="150"
   height="150"
   id="svg4600"
   version="1.1"
   inkscape:version="0.48.5 r10040"
   sodipodi:docname="01bag.svg"
   inkscape:export-filename="/home/vg/Project/boa/x-ray/assets/01bag.png"
   inkscape:export-xdpi="90"
   inkscape:export-ydpi="90">
  <defs
     id="defs4602" />
  <sodipodi:namedview
     id="base"
     pagecolor="#ffffff"
     bordercolor="#666666"
     borderopacity="1.0"
     inkscape:pageopacity="0.0"
     inkscape:pageshadow="2"
     inkscape:zoom="5.6568542"
     inkscape:cx="36.932937"
     inkscape:cy="115.21402"
     inkscape:document-units="px"
     inkscape:current-layer="g5122"
     showgrid="true"
     inkscape:showpageshadow="false"
     borderlayer="true"
     inkscape:snap-global="false"
     showguides="true"
     inkscape:guide-bbox="true"
     inkscape:window-width="1366"
     inkscape:window-height="715"
     inkscape:window-x="0"
     inkscape:window-y="31"
     inkscape:window-maximized="1"
     fit-margin-top="0"
     fit-margin-left="0"
     fit-margin-right="0"
     fit-margin-bottom="0">
    <inkscape:grid
       type="xygrid"
       id="grid4608"
       empspacing="5"
       visible="true"
       enabled="true"
       snapvisiblegridlinesonly="true"
       spacingx="5px"
       spacingy="5px"
       originx="0px"
       originy="1.3134766e-05px" />
  </sodipodi:namedview>
  <metadata
     id="metadata4605">
    <rdf:RDF>
      <cc:Work
         rdf:about="">
        <dc:format>image/svg+xml</dc:format>
        <dc:type
           rdf:resource="http://purl.org/dc/dcmitype/StillImage" />
        <dc:title />
      </cc:Work>
    </rdf:RDF>
  </metadata>
  <g
     inkscape:label="4"
     inkscape:groupmode="layer"
     id="layer1"
     transform="translate(0,-902.36221)"
     sodipodi:insensitive="true"
     style="display:none">
    <rect
       style="fill:#9a6543;fill-opacity:1;stroke:none"
       id="rect4612"
       width="50"
       height="50"
       x="0"
       y="0"
       transform="translate(0,1002.3622)" />
  </g>
  <g
     transform="translate(0,-902.36221)"
     id="g5122"
     inkscape:groupmode="layer"
     inkscape:label="0">
    <rect
       style="fill:#b58161;fill-opacity:1;stroke:none"
       id="rect5131"
       width="150"
       height="142.62296"
       x="0"
       y="909.73926"
       rx="28.571428"
       ry="28.571428" />
    <rect
       ry="28.571428"
       rx="28.571428"
       y="927.36218"
       x="0"
       height="125"
       width="150"
       id="rect5140"
       style="fill:#9a6543;fill-opacity:1;stroke:none" />
    <path
       style="fill:#762a2a;fill-opacity:1;stroke:none"
       d="m 62.5,902.52915 c -6.925,0 -12.5,4.78834 -12.5,10.7362 l 0,10.73619 7.5,0 0,-7.51534 c 0,-4.16349 3.9025,-7.51533 8.75,-7.51533 l 17.5,0 c 4.8475,0 8.75,3.35184 8.75,7.51533 l 0,7.51534 7.5,0 0,-10.73619 c 0,-5.94786 -5.575,-10.7362 -12.5,-10.7362 l -25,0 z"
       id="rect5135"
       inkscape:connector-curvature="0" />
    <path
       style="fill:#762a2a;fill-opacity:1;stroke:none"
       d="M 28.5625,927.3622 C 12.733929,927.3622 0,940.0961 0,955.9247 l 0,67.875 c 0,15.8286 12.733929,28.5625 28.5625,28.5625 l 92.875,0 c 15.82857,0 28.5625,-12.7339 28.5625,-28.5625 l 0,-67.875 c 0,-15.8286 -12.73393,-28.5625 -28.5625,-28.5625 l -92.875,0 z m 5,4.1563 82.875,0 c 15.82857,0 28.5625,12.7651 28.5625,28.5937 l 0,59.5 c 0,15.8286 -12.73393,28.5938 -28.5625,28.5938 l -82.875,0 C 17.733929,1048.206 5,1035.4408 5,1019.6122 l 0,-59.5 c 0,-15.8286 12.733929,-28.5937 28.5625,-28.5937 z"
       id="rect5157"
       inkscape:connector-curvature="0" />
    <path
       style="fill:#b65a5a;fill-opacity:1;stroke:none"
       d="m 30,909.73925 0,23.77049 15,0 0,-23.77049 -15,0 z"
       id="rect5167"
       inkscape:connector-curvature="0" />
    <rect
       y="927.36218"
       x="30"
       height="125"
       width="15"
       id="rect5164"
       style="fill:#762a2a;fill-opacity:1;stroke:none" />
    <path
       style="fill:#964242;fill-opacity:1;stroke:none"
       d="m 30,927.3622 0,5 15,0 0,-5 -15,0 z"
       id="rect5190"
       inkscape:connector-curvature="0" />
    <path
       id="path5197"
       d="m 105,909.73925 0,23.77049 15,0 0,-23.77049 -15,0 z"
       style="fill:#b65a5a;fill-opacity:1;stroke:none"
       inkscape:connector-curvature="0" />
    <rect
       style="fill:#762a2a;fill-opacity:1;stroke:none"
       id="rect5199"
       width="15"
       height="125"
       x="105"
       y="927.36218" />
    <path
       inkscape:connector-curvature="0"
       id="path5201"
       d="m 105,927.3622 0,5 15,0 0,-5 -15,0 z"
       style="fill:#964242;fill-opacity:1;stroke:none" />
  </g>
</svg>
