<?xml version="1.0" encoding="UTF-8" standalone="no"?>
<!-- Created with Inkscape (http://www.inkscape.org/) -->

<svg
   xmlns:dc="http://purl.org/dc/elements/1.1/"
   xmlns:cc="http://creativecommons.org/ns#"
   xmlns:rdf="http://www.w3.org/1999/02/22-rdf-syntax-ns#"
   xmlns:svg="http://www.w3.org/2000/svg"
   xmlns="http://www.w3.org/2000/svg"
   xmlns:sodipodi="http://sodipodi.sourceforge.net/DTD/sodipodi-0.dtd"
   xmlns:inkscape="http://www.inkscape.org/namespaces/inkscape"
   width="189.53503"
   height="192.23506"
   id="svg4375"
   version="1.1"
   inkscape:version="0.48.5 r10040"
   sodipodi:docname="New document 15">
  <defs
     id="defs4377" />
  <sodipodi:namedview
     id="base"
     pagecolor="#ffffff"
     bordercolor="#666666"
     borderopacity="1.0"
     inkscape:pageopacity="0.0"
     inkscape:pageshadow="2"
     inkscape:zoom="1.4"
     inkscape:cx="-1.4015886"
     inkscape:cy="32.452499"
     inkscape:document-units="px"
     inkscape:current-layer="layer1"
     showgrid="false"
     fit-margin-top="0"
     fit-margin-left="0"
     fit-margin-right="0"
     fit-margin-bottom="0"
     inkscape:window-width="1366"
     inkscape:window-height="715"
     inkscape:window-x="0"
     inkscape:window-y="0"
     inkscape:window-maximized="1" />
  <metadata
     id="metadata4380">
    <rdf:RDF>
      <cc:Work
         rdf:about="">
        <dc:format>image/svg+xml</dc:format>
        <dc:type
           rdf:resource="http://purl.org/dc/dcmitype/StillImage" />
        <dc:title></dc:title>
      </cc:Work>
    </rdf:RDF>
  </metadata>
  <g
     inkscape:label="Layer 1"
     inkscape:groupmode="layer"
     id="layer1"
     transform="translate(9.7509765,-1.5187798)">
    <path
       sodipodi:type="star"
       style="fill:#d35f5f;fill-opacity:0.67251461;stroke:#782121;stroke-width:5;stroke-linecap:round;stroke-linejoin:round;stroke-miterlimit:4;stroke-opacity:1;stroke-dasharray:none"
       id="path4523"
       sodipodi:sides="21"
       sodipodi:cx="87.85714"
       sodipodi:cy="96.647896"
       sodipodi:r1="91.165916"
       sodipodi:r2="82.049332"
       sodipodi:arg1="1.0471976"
       sodipodi:arg2="1.1967972"
       inkscape:flatsided="false"
       inkscape:rounded="0"
       inkscape:randomized="0.1"
       d="m 140.45834,171.18773 -27.10914,10.37996 1.5066,3.49358 -28.978465,1.00151 4.224871,5.19106 -24.239493,-16.3038 -14.170726,1.79404 -9.485,-4.9492 -7.93907,-1.66626 L 30.025799,147.38514 3.7518052,140.39916 8.812925,127.60943 0.94032432,128.76 1.0520895,116.13283 -7.2509765,88.984032 0.90606853,89.105071 0.83447642,75.533499 8.9747795,58.599465 3.9377084,41.326115 30.035768,49.711594 34.297832,32.93516 42.245691,22.673819 51.816318,6.0556752 l 14.051379,6.7643488 24.12251,-8.8012442 -3.88563,14.9714772 28.715463,-2.726455 -1.6368,0.32803 27.00535,-0.880007 2.62509,22.448032 5.77119,-12.337187 7.31118,25.427465 15.64144,3.332864 -11.36902,17.578222 10.91037,6.740109 6.20522,17.517481 -5.9988,8.750949 -11.11151,15.23361 11.34321,17.8353 -15.38692,11.98637 -7.31412,4.19413 -6.00136,-0.1384 z"
       inkscape:transform-center-x="2.8406012"
       inkscape:transform-center-y="0.98841468" />
    <path
       sodipodi:type="star"
       style="fill:#d35f5f;fill-opacity:0.67251461;stroke:none"
       id="path4525"
       sodipodi:sides="21"
       sodipodi:cx="84.285713"
       sodipodi:cy="90.219322"
       sodipodi:r1="54.669697"
       sodipodi:r2="49.202728"
       sodipodi:arg1="1.0471976"
       sodipodi:arg2="1.1967972"
       inkscape:flatsided="false"
       inkscape:rounded="0"
       inkscape:randomized="0.1"
       d="m 106.65562,135.5837 -8.053607,4.03995 -5.141149,7.90627 -2.220879,-10.50437 -12.687749,4.08793 -4.755161,-5.27747 -13.940572,4.66368 -0.0621,-5.60893 -12.878176,2.60613 -0.545299,-14.6465 -7.809014,-0.79083 0.587838,-15.0917 -6.616115,-3.82918 7.327796,-9.481052 -6.121833,0.96935 6.129394,-7.313367 -7.334124,-7.928679 6.503931,-13.663315 -0.444179,-9.68539 7.733051,-2.724154 0.709707,-9.069833 12.88327,-0.03551 -0.134825,-0.145634 14.011955,0.679316 4.781717,-10.88551 12.635346,6.859224 2.131561,-0.677238 5.308889,3.05927 8.025479,-4.022026 9.31424,17.277569 6.65487,-1.093787 4.53888,8.446311 4.73064,1.263144 -3.40979,16.178813 9.4986,-1.394569 -1.93411,15.575752 1.94589,5.296981 -9.54291,4.23433 3.42544,11.5994 -4.79974,1.10067 -4.33738,9.29386 -6.80503,-2.4514 z"
       inkscape:transform-center-x="-1.2046149"
       inkscape:transform-center-y="0.57501067"
       transform="matrix(1.2154348,0,0,1.2154348,-14.586647,-12.293525)" />
  </g>
</svg>
