<?xml version="1.0" encoding="UTF-8" standalone="no"?>
<!-- Created with Inkscape (http://www.inkscape.org/) -->

<svg
   xmlns:dc="http://purl.org/dc/elements/1.1/"
   xmlns:cc="http://creativecommons.org/ns#"
   xmlns:rdf="http://www.w3.org/1999/02/22-rdf-syntax-ns#"
   xmlns:svg="http://www.w3.org/2000/svg"
   xmlns="http://www.w3.org/2000/svg"
   xmlns:sodipodi="http://sodipodi.sourceforge.net/DTD/sodipodi-0.dtd"
   xmlns:inkscape="http://www.inkscape.org/namespaces/inkscape"
   width="23.410973"
   height="26.22476"
   id="svg4223"
   version="1.1"
   inkscape:version="0.48.5 r10040"
   sodipodi:docname="bag-drawing.xcf">
  <defs
     id="defs4225" />
  <sodipodi:namedview
     id="base"
     pagecolor="#ffffff"
     bordercolor="#666666"
     borderopacity="1.0"
     inkscape:pageopacity="0.0"
     inkscape:pageshadow="2"
     inkscape:zoom="4"
     inkscape:cx="8.529877"
     inkscape:cy="9.4891535"
     inkscape:document-units="px"
     inkscape:current-layer="layer2"
     showgrid="false"
     fit-margin-top="0"
     fit-margin-left="0"
     fit-margin-right="0"
     fit-margin-bottom="0"
     inkscape:window-width="1366"
     inkscape:window-height="715"
     inkscape:window-x="0"
     inkscape:window-y="0"
     inkscape:window-maximized="1" />
  <metadata
     id="metadata4228">
    <rdf:RDF>
      <cc:Work
         rdf:about="">
        <dc:format>image/svg+xml</dc:format>
        <dc:type
           rdf:resource="http://purl.org/dc/dcmitype/StillImage" />
        <dc:title></dc:title>
      </cc:Work>
    </rdf:RDF>
  </metadata>
  <g
     inkscape:label="Layer 1"
     inkscape:groupmode="layer"
     id="layer1"
     transform="translate(-465.21428,-657.55106)"
     style="display:inline">
    <path
       style="fill:#1a1a1a;fill-opacity:1;stroke:#1a1a1a;stroke-width:1;stroke-linecap:round;stroke-linejoin:round;stroke-miterlimit:4;stroke-opacity:1;stroke-dasharray:none"
       d="m 472.5887,659.23289 c -0.56027,0 -0.99523,0.45428 -0.99523,1.01565 l 0,3.8225 -2.93037,0 c -1.63365,0 -2.94882,1.31774 -2.94882,2.95457 l 0,13.29563 c 0,1.63685 1.31517,2.95458 2.94882,2.95458 l 15.3338,0 c 1.63363,0 2.9488,-1.31773 2.9488,-2.95458 l 0,-13.29563 c 0,-1.63683 -1.31517,-2.95457 -2.9488,-2.95457 l -2.93039,0 0,-3.8225 c 0,-0.56137 -0.45338,-1.01565 -1.01365,-1.01565 l -7.46416,0 z m 1.84299,1.84662 3.7966,0 c 0.56028,0 1.01366,0.45427 1.01366,1.01564 l 0,1.97589 -5.82391,0 0,-1.97589 c 0,-0.56137 0.45338,-1.01564 1.01365,-1.01564 z"
       id="path4330"
       inkscape:connector-curvature="0" />
    <path
       style="fill:#e5c34e;fill-opacity:1;stroke:#1a1a1a;stroke-width:1;stroke-linecap:round;stroke-linejoin:round;stroke-miterlimit:4;stroke-opacity:1;stroke-dasharray:none"
       d="m 473.7673,658.05106 c -0.56027,0 -1.00127,0.45439 -1.00127,1.01577 l 0,7.47402 c 0,0.56138 0.441,1.01576 1.00127,1.01576 l 7.47192,0 c 0.56028,0 1.01378,-0.45438 1.01378,-1.01576 l 0,-7.47402 c 0,-0.56138 -0.4535,-1.01577 -1.01378,-1.01577 l -7.47192,0 z m 1.85233,1.84342 3.77977,0 c 0.56027,0 1.01377,0.4544 1.01377,1.01578 l 0,3.78716 c 0,0.56138 -0.4535,1.01576 -1.01377,1.01576 l -3.77977,0 c -0.56027,0 -1.01377,-0.45438 -1.01377,-1.01576 l 0,-3.78716 c 0,-0.56138 0.4535,-1.01578 1.01377,-1.01578 z"
       id="rect4214"
       inkscape:connector-curvature="0" />
    <rect
       style="fill:#784421;fill-opacity:1;stroke:#1a1a1a;stroke-width:1;stroke-linecap:round;stroke-linejoin:round;stroke-miterlimit:4;stroke-opacity:1;stroke-dasharray:none"
       id="rect3435"
       width="21.231422"
       height="19.204796"
       x="466.89383"
       y="662.89105"
       rx="5"
       ry="5" />
    <text
       xml:space="preserve"
       style="font-size:17.71016884px;font-style:normal;font-variant:normal;font-weight:bold;font-stretch:normal;text-align:start;text-anchor:start;fill:#e5c34e;fill-opacity:1;stroke:#1a1a1a;stroke-width:1;stroke-linecap:round;stroke-linejoin:round;stroke-miterlimit:4;stroke-opacity:1;stroke-dasharray:none;font-family:Latin Modern Sans Quotation;-inkscape-font-specification:Latin Modern Sans Quotation Bold"
       x="472.23883"
       y="677.88678"
       id="text3437"
       transform="scale(0.99902214,1.0009788)"><tspan
         sodipodi:role="line"
         id="tspan3439"
         x="472.23883"
         y="677.88678"
         style="stroke-width:1">?</tspan></text>
  </g>
  <g
     inkscape:groupmode="layer"
     id="layer2"
     inkscape:label="lost"
     style="display:inline"
     transform="translate(2.00001,-17.46275)">
    <path
       transform="matrix(1.3205533,0,0,1.3231397,-16.206706,5.5857367)"
       sodipodi:type="arc"
       style="fill:#a02c2c;fill-opacity:1;stroke:none"
       id="path4269"
       sodipodi:cx="19.622213"
       sodipodi:cy="18.886427"
       sodipodi:rx="8.1317282"
       sodipodi:ry="8.1317282"
       d="m 27.753942,18.886427 c 0,4.491029 -3.640699,8.131728 -8.131729,8.131728 -4.491029,0 -8.131728,-3.640699 -8.131728,-8.131728 0,-4.49103 3.640699,-8.131728 8.131728,-8.131728 4.49103,0 8.131729,3.640698 8.131729,8.131728 z" />
    <path
       d="m 27.753942,18.886427 c 0,4.491029 -3.640699,8.131728 -8.131729,8.131728 -4.491029,0 -8.131728,-3.640699 -8.131728,-8.131728 0,-4.49103 3.640699,-8.131728 8.131728,-8.131728 4.49103,0 8.131729,3.640698 8.131729,8.131728 z"
       sodipodi:ry="8.1317282"
       sodipodi:rx="8.1317282"
       sodipodi:cy="18.886427"
       sodipodi:cx="19.622213"
       id="path4267"
       style="fill:#782121;fill-opacity:1;stroke:none"
       sodipodi:type="arc"
       transform="matrix(0.97665932,0,0,0.97857214,-9.4587431,12.093388)" />
    <path
       sodipodi:type="arc"
       style="fill:#501616;fill-opacity:1;stroke:none"
       id="path4265"
       sodipodi:cx="19.622213"
       sodipodi:cy="18.886427"
       sodipodi:rx="8.1317282"
       sodipodi:ry="8.1317282"
       d="m 27.753942,18.886427 c 0,4.491029 -3.640699,8.131728 -8.131729,8.131728 -4.491029,0 -8.131728,-3.640699 -8.131728,-8.131728 0,-4.49103 3.640699,-8.131728 8.131728,-8.131728 4.49103,0 8.131729,3.640698 8.131729,8.131728 z"
       transform="matrix(0.6327652,0,0,0.6340045,-2.71078,18.601039)" />
    <text
       xml:space="preserve"
       style="font-size:6.65108156px;font-style:normal;font-variant:normal;font-weight:bold;font-stretch:normal;text-align:start;text-anchor:start;fill:#ffffff;fill-opacity:1;stroke:none;display:inline;font-family:Latin Modern Sans Quotation;-inkscape-font-specification:Latin Modern Sans Quotation Bold"
       x="-23.793285"
       y="30.999775"
       id="text4259"
       transform="matrix(0.7183188,-0.72006362,0.69438309,0.69606977,0,0)"><tspan
         sodipodi:role="line"
         id="tspan4261"
         x="-23.793285"
         y="30.999775"
         style="fill:#ffffff;stroke:none">-100</tspan></text>
  </g>
</svg>
