<?xml version="1.0" encoding="UTF-8" standalone="no"?>
<!-- Created with Inkscape (http://www.inkscape.org/) -->

<svg
   xmlns:dc="http://purl.org/dc/elements/1.1/"
   xmlns:cc="http://creativecommons.org/ns#"
   xmlns:rdf="http://www.w3.org/1999/02/22-rdf-syntax-ns#"
   xmlns:svg="http://www.w3.org/2000/svg"
   xmlns="http://www.w3.org/2000/svg"
   xmlns:sodipodi="http://sodipodi.sourceforge.net/DTD/sodipodi-0.dtd"
   xmlns:inkscape="http://www.inkscape.org/namespaces/inkscape"
   width="61.57143"
   height="61.57143"
   id="svg4458"
   version="1.1"
   inkscape:version="0.48.5 r10040"
   inkscape:export-filename="/home/vg/Project/boa/x-ray/assets/ball-xray.png"
   inkscape:export-xdpi="90.148224"
   inkscape:export-ydpi="90.148224"
   sodipodi:docname="ball-xray.svg">
  <defs
     id="defs4460" />
  <sodipodi:namedview
     id="base"
     pagecolor="#ffffff"
     bordercolor="#666666"
     borderopacity="1.0"
     inkscape:pageopacity="0.0"
     inkscape:pageshadow="2"
     inkscape:zoom="1"
     inkscape:cx="-171.28357"
     inkscape:cy="-44.83635"
     inkscape:document-units="px"
     inkscape:current-layer="layer1"
     showgrid="false"
     fit-margin-top="0"
     fit-margin-left="0"
     fit-margin-right="0"
     fit-margin-bottom="0"
     inkscape:window-width="1366"
     inkscape:window-height="715"
     inkscape:window-x="0"
     inkscape:window-y="0"
     inkscape:window-maximized="1" />
  <metadata
     id="metadata4463">
    <rdf:RDF>
      <cc:Work
         rdf:about="">
        <dc:format>image/svg+xml</dc:format>
        <dc:type
           rdf:resource="http://purl.org/dc/dcmitype/StillImage" />
        <dc:title></dc:title>
      </cc:Work>
    </rdf:RDF>
  </metadata>
  <g
     inkscape:label="Layer 1"
     inkscape:groupmode="layer"
     id="layer1"
     transform="translate(-59.928574,-160.1479)"
     style="opacity:0.5">
    <path
       sodipodi:type="arc"
       style="fill:#ffffff;fill-opacity:0.13725491000000001;stroke:#ffffff;stroke-width:3.75609751000000003;stroke-miterlimit:4;stroke-dasharray:none"
       id="path4558"
       sodipodi:cx="116.42857"
       sodipodi:cy="205.21933"
       sodipodi:rx="55"
       sodipodi:ry="55"
       d="m 171.42857,205.21933 c 0,30.37566 -24.62434,55 -55,55 -30.375658,0 -54.999996,-24.62434 -54.999996,-55 0,-30.37566 24.624338,-55 54.999996,-55 30.37566,0 55,24.62434 55,55 z"
       transform="matrix(0.53246754,0,0,0.53246754,28.719853,81.660986)" />
    <path
       transform="matrix(0.3704122,0,0,0.3704122,50.98317,110.67357)"
       d="m 171.42857,205.21933 c 0,30.37566 -24.62434,55 -55,55 -30.375658,0 -54.999996,-24.62434 -54.999996,-55 0,-30.37566 24.624338,-55 54.999996,-55 30.37566,0 55,24.62434 55,55 z"
       sodipodi:ry="55"
       sodipodi:rx="55"
       sodipodi:cy="205.21933"
       sodipodi:cx="116.42857"
       id="path5068"
       style="fill:#ffffff;fill-opacity:0.13725491000000001;stroke:none"
       sodipodi:type="arc" />
    <path
       sodipodi:type="arc"
       style="fill:#ffffff;fill-opacity:0.13725491000000001;stroke:none"
       id="path5070"
       sodipodi:cx="116.42857"
       sodipodi:cy="205.21933"
       sodipodi:rx="55"
       sodipodi:ry="55"
       d="m 171.42857,205.21933 c 0,30.37566 -24.62434,55 -55,55 -30.375658,0 -54.999996,-24.62434 -54.999996,-55 0,-30.37566 24.624338,-55 54.999996,-55 30.37566,0 55,24.62434 55,55 z"
       transform="matrix(0.16977226,0,0,0.16977226,79.43656,148.02888)" />
    <g
       id="g5080"
       style="stroke-width:1.69982853999999994;stroke-miterlimit:4;stroke-dasharray:none;stroke:#ffffff"
       transform="matrix(0.58829463,0,0,0.58829463,25.57911,66.842502)">
      <path
         sodipodi:nodetypes="cc"
         inkscape:connector-curvature="0"
         id="path5072"
         d="m 108.57143,161.6479 c -39.556747,9.01799 -42.721193,90.99139 0,98.57142"
         style="fill:none;stroke:#ffffff;stroke-width:1.69982853999999994;stroke-miterlimit:4;stroke-dasharray:none" />
      <path
         style="fill:none;stroke:#ffffff;stroke-width:1.69982853999999994;stroke-miterlimit:4;stroke-dasharray:none"
         d="m 60.995759,204.7865 c 9.01799,35.10472 90.991401,31.20086 98.571431,0"
         id="path5074"
         inkscape:connector-curvature="0"
         sodipodi:nodetypes="cc" />
      <path
         sodipodi:nodetypes="cssc"
         inkscape:connector-curvature="0"
         id="path5076"
         d="m 71.250655,181.28921 c 4.126906,3.38109 -2.32893,10.45563 -2.137409,16.26852 0.521953,15.84189 18.599113,18.67748 24.296447,7.50645 9.566547,-18.75759 44.731777,-19.85563 63.379217,-10.47862"
         style="fill:none;stroke:#ffffff;stroke-width:1.69982853999999994;stroke-miterlimit:4;stroke-dasharray:none" />
      <path
         style="fill:none;stroke:#ffffff;stroke-width:1.69982853999999994;stroke-miterlimit:4;stroke-dasharray:none"
         d="m 75.750656,246.59947 c 4.12691,-1.69329 2.555328,-2.76635 0.433658,-8.67779 -2.0994,-5.84939 14.344238,-2.14192 17.225382,3.55447 4.116755,8.13935 24.241514,16.72412 51.879214,4.91883"
         id="path5078"
         inkscape:connector-curvature="0"
         sodipodi:nodetypes="cssc" />
    </g>
  </g>
</svg>
