<?xml version="1.0" encoding="UTF-8" standalone="no"?>
<!-- Created with Inkscape (http://www.inkscape.org/) -->

<svg
   xmlns:dc="http://purl.org/dc/elements/1.1/"
   xmlns:cc="http://creativecommons.org/ns#"
   xmlns:rdf="http://www.w3.org/1999/02/22-rdf-syntax-ns#"
   xmlns:svg="http://www.w3.org/2000/svg"
   xmlns="http://www.w3.org/2000/svg"
   xmlns:sodipodi="http://sodipodi.sourceforge.net/DTD/sodipodi-0.dtd"
   xmlns:inkscape="http://www.inkscape.org/namespaces/inkscape"
   width="744.09448819"
   height="1052.3622047"
   id="svg2"
   version="1.1"
   inkscape:version="0.48.5 r10040"
   sodipodi:docname="New document 1">
  <defs
     id="defs4" />
  <sodipodi:namedview
     id="base"
     pagecolor="#ffffff"
     bordercolor="#666666"
     borderopacity="1.0"
     inkscape:pageopacity="0.0"
     inkscape:pageshadow="2"
     inkscape:zoom="4"
     inkscape:cx="99.09494"
     inkscape:cy="964.44021"
     inkscape:document-units="px"
     inkscape:current-layer="layer1"
     showgrid="false"
     inkscape:window-width="1366"
     inkscape:window-height="715"
     inkscape:window-x="0"
     inkscape:window-y="0"
     inkscape:window-maximized="1" />
  <metadata
     id="metadata7">
    <rdf:RDF>
      <cc:Work
         rdf:about="">
        <dc:format>image/svg+xml</dc:format>
        <dc:type
           rdf:resource="http://purl.org/dc/dcmitype/StillImage" />
        <dc:title></dc:title>
      </cc:Work>
    </rdf:RDF>
  </metadata>
  <g
     inkscape:label="Layer 1"
     inkscape:groupmode="layer"
     id="layer1">
    <rect
       style="fill:#c83737;fill-opacity:1;stroke:#1a1a1a;stroke-width:1;stroke-miterlimit:4;stroke-opacity:1;stroke-dasharray:none"
       id="rect3763"
       width="2.431685"
       height="18.805431"
       x="95.929291"
       y="90.130455"
       rx="3.5714288"
       ry="3.5714285" />
    <path
       transform="matrix(0.24040655,0,0,0.24955495,70.922183,99.39271)"
       inkscape:transform-center-y="-0.51438961"
       inkscape:transform-center-x="0.49553231"
       d="m 121.63129,47.060661 -4.47472,1.898701 -1.19985,2.168273 -2.73541,0.529758 0.0188,1.159152 -4.04175,-1.653912 -0.43438,1.015866 -2.05287,-0.524087 -2.82045,0.484044 -2.20257,-2.839182 -3.364869,-0.451164 0.11831,-0.950682 -2.117798,-1.2536 0.914487,-3.213435 -3.350346,-0.999642 2.242038,-3.136309 -1.379427,-2.372181 -0.304644,-1.205864 -0.525803,-5.490996 2.593221,0.103208 0.0034,-3.641951 2.171306,-0.542979 3.148166,-2.017222 3.01945,0.750576 1.47395,-2.78453 0.29846,1.498338 3.80601,-3.232395 -0.0182,2.1709 3.93895,-0.467876 0.80178,2.625327 2.74778,-1.433802 1.28855,2.043724 2.14249,-0.198944 1.27357,3.343468 1.86498,3.288256 0.17591,0.23253 1.07704,3.320837 -2.56829,0.976083 2.23429,2.28536 -2.13863,2.655244 1.66582,2.49556 -2.6477,3.1156 z"
       inkscape:randomized="0.1"
       inkscape:rounded="0"
       inkscape:flatsided="false"
       sodipodi:arg2="0.93499781"
       sodipodi:arg1="0.78539816"
       sodipodi:r2="14.335138"
       sodipodi:r1="15.927931"
       sodipodi:cy="37.005039"
       sodipodi:cx="110"
       sodipodi:sides="21"
       id="path3771"
       style="fill:#daca53;fill-opacity:1;stroke:#1a1a1a;stroke-width:8.16532993;stroke-miterlimit:4;stroke-opacity:1;stroke-dasharray:none"
       sodipodi:type="star" />
    <path
       style="fill:#c83737;fill-opacity:1;stroke:#1a1a1a;stroke-width:2;stroke-miterlimit:4;stroke-opacity:1"
       d="m 97.142096,53.153598 c -0.673576,0 -1.212803,0.559745 -1.212803,1.258954 -0.07998,1.327524 -0.407355,3.818231 -1.38302,4.295905 -1.705809,0.835143 -3.499168,1.136504 -6.149121,3.887297 -2.663422,2.764776 -2.995156,8.247612 -1.148971,11.871718 0.962369,1.889152 4.026252,2.985699 4.936319,3.942515 1.174214,1.234531 1.010669,7.063216 1.010669,10.336677 0,1.957784 1.518343,3.533908 3.404357,3.533908 l 1.095778,0 c 1.886014,0 3.404356,-1.576124 3.404356,-3.533908 -0.13306,-3.255064 -0.37797,-8.604391 2.10645,-8.52555 2.23099,0.0708 4.78423,-0.545384 4.63844,-2.827125 0,0 1.50832,-8.525892 -1.09578,-13.207977 -2.60411,-4.682084 -5.56306,-5.386468 -7.447033,-5.477555 -1.04645,-0.05059 -0.9362,-3.286147 -0.9362,-4.295905 0,-0.699209 -0.549865,-1.258954 -1.223441,-1.258954 z"
       id="rect3759"
       inkscape:connector-curvature="0"
       sodipodi:nodetypes="scssssssscscsscs" />
    <path
       style="fill:#daca53;fill-opacity:1;stroke:#1a1a1a;stroke-width:1;stroke-miterlimit:4;stroke-opacity:1;stroke-dasharray:none"
       d="m 97.149006,53.145955 c -0.0842,0 -0.181868,0.02148 -0.261076,0.03815 -0.07074,0.01643 -0.139786,0.02869 -0.205131,0.05723 -0.0073,0.0031 -0.01139,0.01591 -0.01865,0.01908 -0.06402,0.02963 -0.129015,0.05517 -0.186483,0.09538 -0.0071,0.0048 -0.01167,0.01419 -0.01865,0.01908 -0.06448,0.04509 -0.113084,0.09577 -0.167835,0.152604 -0.104832,0.111492 -0.201921,0.235303 -0.261075,0.38151 -0.0021,0.005 0.002,0.01405 0,0.01908 -0.05701,0.146534 -0.09324,0.308227 -0.09324,0.476887 -0.02999,0.497822 -0.100323,1.152038 -0.223779,1.812174 -0.0011,0.0061 0.0011,0.01299 0,0.01908 -0.123352,0.654016 -0.305881,1.313272 -0.559448,1.793099 -0.04228,0.08035 -0.08387,0.139774 -0.130538,0.20983 -0.142971,0.217521 -0.298126,0.385468 -0.484855,0.476888 -0.271532,0.132939 -0.5416,0.244452 -0.820523,0.362435 -0.162399,0.06867 -0.318263,0.13989 -0.484855,0.20983 -0.135547,0.05698 -0.271206,0.111026 -0.410262,0.17168 -0.281205,0.122658 -0.576766,0.266132 -0.876469,0.419661 -0.284738,0.14626 -0.588903,0.302996 -0.895116,0.495964 -0.028,0.0176 -0.04639,0.03915 -0.07459,0.05723 1.665542,1.378857 5.005895,3.637606 7.235527,4.253839 2.498242,0.690474 6.290012,0.542773 8.447662,-0.648567 -2.5822,-4.539221 -5.50361,-5.232022 -7.366063,-5.322068 -0.504515,0.144086 -0.732197,-0.672001 -0.839172,-1.65957 -0.0013,-0.01228 0.0013,-0.02583 0,-0.03815 -0.0041,-0.03344 -0.01494,-0.06159 -0.01865,-0.09538 -0.04875,-0.444586 -0.0675,-0.908454 -0.07459,-1.335286 -5.47e-4,-0.0281 4.54e-4,-0.04863 0,-0.0763 -0.006,-0.446121 0,-0.85394 0,-1.10638 0,-0.349604 -0.132654,-0.650136 -0.354317,-0.877473 -0.221663,-0.227338 -0.521032,-0.38151 -0.85782,-0.38151 z"
       id="path3777"
       inkscape:connector-curvature="0" />
    <path
       sodipodi:type="star"
       style="fill:#c83737;fill-opacity:1;stroke:#1a1a1a;stroke-width:5.76613569;stroke-miterlimit:4;stroke-opacity:1;stroke-dasharray:none"
       id="path3769"
       sodipodi:sides="20"
       sodipodi:cx="110"
       sodipodi:cy="37.005039"
       sodipodi:r1="15.927931"
       sodipodi:r2="14.335138"
       sodipodi:arg1="0.78539816"
       sodipodi:arg2="0.94247779"
       inkscape:flatsided="false"
       inkscape:rounded="0"
       inkscape:randomized="0.1"
       d="m 121.63129,47.060661 -1.73592,1.032921 -3.04287,1.686582 -2.81206,0.638673 -1.0968,3.210965 -3.5597,-3.101173 -3.10463,2.17266 -1.11442,-1.270235 -2.80878,-1.154989 0.12888,-3.170201 -4.925909,1.88532 1.711029,-2.072905 -2.836566,-1.103362 -0.97304,-4.306117 -2.153657,-2.343551 1.334546,-0.776575 -1.353296,-2.694527 2.140901,-3.350008 1.008286,-3.912944 2.827959,-0.01775 -1.67317,-4.156066 4.921457,1.799942 -0.14599,-1.961779 2.81528,-0.7162 1.09685,-2.858241 4.20672,1.603629 2.45761,-0.675116 1.11437,0.917511 2.80555,1.232516 3.05998,0.259812 1.74038,1.652989 -1.65862,2.937751 3.48364,-0.04146 0.27351,4.233369 2.80067,0.846006 -1.33772,4.392411 1.35647,2.264278 -2.78792,1.661966 -0.30875,3.985692 -3.47503,1.162567 z"
       inkscape:transform-center-x="0.70171441"
       inkscape:transform-center-y="-0.7284173"
       transform="matrix(0.34043577,0,0,0.35339067,59.719272,37.650519)" />
    <path
       style="fill:#daca53;fill-opacity:1;stroke:#1a1a1a;stroke-width:1;stroke-miterlimit:4;stroke-opacity:1;stroke-dasharray:none"
       d="m 86.165177,70.67635 c 0.14817,1.349325 0.507299,2.66866 1.0816,3.796027 0.962368,1.889152 4.031722,2.972739 4.94179,3.929555 1.174214,1.234531 1.007006,7.065466 1.007006,10.338927 0,1.957784 1.526619,3.548045 3.412633,3.548045 l 1.081599,0 c 1.886017,0 3.412635,-1.590261 3.412635,-3.548045 -0.13306,-3.255064 -0.37717,-8.605595 2.10725,-8.526753 1.92191,0.06099 4.08148,-0.380535 4.55018,-1.964778 -4.77176,0.358377 -10.471063,-0.880218 -15.981565,-3.834178 -2.061004,-1.104822 -3.931924,-2.367455 -5.613128,-3.7388 z"
       id="path3797"
       inkscape:connector-curvature="0" />
    <path
       style="fill:#daca53;fill-opacity:1;stroke:#1a1a1a;stroke-width:1;stroke-miterlimit:4;stroke-opacity:1;stroke-dasharray:none"
       d="m 87.768928,63.351353 c -0.523116,0.735011 -0.914768,1.591014 -1.193489,2.517968 3.759342,3.677089 10.784059,6.441148 18.965291,6.981637 0.92196,0.06091 1.826,0.09262 2.72264,0.09538 0.0257,-0.823711 0.0329,-1.707562 -0.0186,-2.613345 -0.89586,-0.03777 -1.80365,-0.09389 -2.72264,-0.190756 -7.495883,-0.79008 -13.948895,-3.405144 -17.753152,-6.790882 z"
       id="path3813"
       inkscape:connector-curvature="0" />
    <g
       transform="translate(40.062502,24.618591)"
       id="layer1-6"
       inkscape:label="Layer 1">
      <g
         transform="matrix(0.58656449,0,0,0.58656449,53.203981,20.979202)"
         id="g3816">
        <path
           style="color:#000000;fill:#782121;fill-opacity:1;fill-rule:nonzero;stroke:#280b0b;stroke-width:3.40968466;marker:none;visibility:visible;display:inline;overflow:visible;enable-background:accumulate"
           d="m 126.375,9.25 c -5.51229,0 -4.69284,7.921817 -7.46875,12.03125 L 106.75,32.65625 c -1.89302,1.071698 -3.15625,3.098367 -3.15625,5.4375 l 0,61.03125 c 0,3.4625 2.7875,6.25 6.25,6.25 l 37.6875,0 c 3.4625,0 6.25,-2.7875 6.25,-6.25 l 0,-61.03125 c 0,-2.364664 -1.29144,-4.406604 -3.21875,-5.46875 -0.0129,-0.0071 -0.0183,-0.02424 -0.0312,-0.03125 L 138.125,21.28125 C 135.29855,17.232377 136.16854,9.25 130.65625,9.25 z"
           id="rect3767"
           inkscape:connector-curvature="0"
           sodipodi:nodetypes="sccsssssscccss" />
        <path
           sodipodi:type="arc"
           style="color:#000000;fill:#c83737;fill-opacity:1;fill-rule:nonzero;stroke:none;stroke-width:1;marker:none;visibility:visible;display:inline;overflow:visible;enable-background:accumulate"
           id="path3799"
           sodipodi:cx="120.5"
           sodipodi:cy="38.862183"
           sodipodi:rx="3.5"
           sodipodi:ry="3.5"
           d="m 124,38.862183 c 0,1.932996 -1.567,3.5 -3.5,3.5 -1.933,0 -3.5,-1.567004 -3.5,-3.5 0,-1.932997 1.567,-3.5 3.5,-3.5 1.933,0 3.5,1.567003 3.5,3.5 z"
           transform="translate(-6.25,6.5)" />
        <rect
           style="color:#000000;fill:#ee2b2b;fill-opacity:1;fill-rule:nonzero;stroke:#280b0b;stroke-width:3.40968466;stroke-linecap:round;stroke-linejoin:round;stroke-miterlimit:4;stroke-opacity:1;stroke-dasharray:none;marker:none;visibility:visible;display:inline;overflow:visible;enable-background:accumulate"
           id="rect3777"
           width="50.188"
           height="26"
           x="103.5935"
           y="48.612183" />
        <path
           style="color:#000000;fill:none;stroke:#ffffff;stroke-width:1.70484233;stroke-linecap:round;stroke-linejoin:round;stroke-miterlimit:4;stroke-opacity:1;stroke-dasharray:none;marker:none;visibility:visible;display:inline;overflow:visible;enable-background:accumulate"
           d="m 107.16421,59.112182 c 1.8854,2.864367 10.27859,-3.721406 8,-6 -4.15436,-4.154358 -7.75,8.634375 -7.75,10.75 0,4.818452 6.64576,4.104245 8.25,2.5 0.88436,-0.884357 -1.31947,-3.430535 -1.75,-3 -2.4133,2.413301 -3.42602,9.25 -8.36612,9.25"
           id="path3779"
           inkscape:connector-curvature="0"
           sodipodi:nodetypes="cssssc" />
        <path
           style="color:#000000;fill:none;stroke:#ffffff;stroke-width:1.70484233;stroke-linecap:round;stroke-linejoin:round;stroke-miterlimit:4;stroke-opacity:1;stroke-dasharray:none;marker:none;visibility:visible;display:inline;overflow:visible;enable-background:accumulate"
           d="m 122.97487,58.612182 c -7.64895,-4.058251 -7.35918,11.67959 -0.5,8.25 3.13617,-1.568084 1.04637,-11.296372 -3,-7.25 -1.77681,1.776805 4.08733,3.825336 5,2 1.85234,-3.704689 0.10618,-10 1.25,-10 2.41667,0 0.0248,4.83346 0,7.25 -0.0256,2.495129 -0.48655,6.611251 1.67938,7.5 0.10802,0.04432 3.45176,-7.75 5.69562,-7.75 1.25971,0 -4.61273,4.149541 -3,7.375 0.81107,1.622134 2.44402,-0.51304 2.75,-1.125 0.82074,-1.641477 -1.58523,-5.5 0.25,-5.5 0.01,0 -0.12199,4.878006 0.25,5.25 1.18568,1.185676 3.92515,3.683129 5.75,1.25"
           id="path3781"
           inkscape:connector-curvature="0"
           sodipodi:nodetypes="csssssssssssc" />
        <path
           style="color:#000000;fill:#ee2b2b;fill-opacity:1;fill-rule:nonzero;stroke:#ffffff;stroke-width:1.70484233;stroke-linecap:round;stroke-linejoin:round;stroke-miterlimit:4;stroke-opacity:1;stroke-dasharray:none;marker:none;visibility:visible;display:inline;overflow:visible;enable-background:accumulate"
           d="m 120.72487,54.612182 c 6.30829,-1.530737 13.21868,0.773493 18.25,-3"
           id="path3783"
           inkscape:connector-curvature="0" />
        <path
           sodipodi:nodetypes="cssssc"
           inkscape:connector-curvature="0"
           id="path3785"
           d="m 142.34278,59.112182 c 1.8854,2.864367 10.27859,-3.721406 8,-6 -4.15436,-4.154358 -7.75,8.634375 -7.75,10.75 0,4.818452 6.64576,4.104245 8.25,2.5 0.88436,-0.884357 -1.31947,-3.430535 -1.75,-3 -2.4133,2.413301 -3.42602,9.25 -8.36612,9.25"
           style="color:#000000;fill:none;stroke:#ffffff;stroke-width:1.70484233;stroke-linecap:round;stroke-linejoin:round;stroke-miterlimit:4;stroke-opacity:1;stroke-dasharray:none;marker:none;visibility:visible;display:inline;overflow:visible;enable-background:accumulate" />
        <path
           sodipodi:type="arc"
           style="color:#000000;fill:#c83737;stroke:none;stroke-width:1;marker:none;visibility:visible;display:inline;overflow:visible;enable-background:accumulate"
           id="path3787"
           sodipodi:cx="110.5"
           sodipodi:cy="90.112183"
           sodipodi:rx="2.75"
           sodipodi:ry="2.75"
           d="m 113.25,90.112183 c 0,1.518783 -1.23122,2.75 -2.75,2.75 -1.51878,0 -2.75,-1.231217 -2.75,-2.75 0,-1.518783 1.23122,-2.75 2.75,-2.75 1.51878,0 2.75,1.231217 2.75,2.75 z" />
        <path
           d="m 113.25,90.112183 c 0,1.518783 -1.23122,2.75 -2.75,2.75 -1.51878,0 -2.75,-1.231217 -2.75,-2.75 0,-1.518783 1.23122,-2.75 2.75,-2.75 1.51878,0 2.75,1.231217 2.75,2.75 z"
           sodipodi:ry="2.75"
           sodipodi:rx="2.75"
           sodipodi:cy="90.112183"
           sodipodi:cx="110.5"
           id="path3789"
           style="color:#000000;fill:#c83737;stroke:none;stroke-width:1;marker:none;visibility:visible;display:inline;overflow:visible;enable-background:accumulate"
           sodipodi:type="arc"
           transform="translate(34.25,7)" />
        <path
           sodipodi:type="arc"
           style="color:#000000;fill:#c83737;fill-opacity:1;fill-rule:nonzero;stroke:none;stroke-width:1;marker:none;visibility:visible;display:inline;overflow:visible;enable-background:accumulate"
           id="path3791"
           sodipodi:cx="129.25"
           sodipodi:cy="87.612183"
           sodipodi:rx="4.25"
           sodipodi:ry="4.25"
           d="m 133.5,87.612183 c 0,2.34721 -1.90279,4.25 -4.25,4.25 -2.34721,0 -4.25,-1.90279 -4.25,-4.25 0,-2.347211 1.90279,-4.25 4.25,-4.25 2.34721,0 4.25,1.902789 4.25,4.25 z" />
        <path
           sodipodi:type="arc"
           style="color:#000000;fill:#c83737;fill-opacity:1;fill-rule:nonzero;stroke:none;stroke-width:1;marker:none;visibility:visible;display:inline;overflow:visible;enable-background:accumulate"
           id="path3793"
           sodipodi:cx="121.75"
           sodipodi:cy="97.112183"
           sodipodi:rx="1.5"
           sodipodi:ry="1.5"
           d="m 123.25,97.112183 c 0,0.828427 -0.67157,1.5 -1.5,1.5 -0.82843,0 -1.5,-0.671573 -1.5,-1.5 0,-0.828428 0.67157,-1.5 1.5,-1.5 0.82843,0 1.5,0.671572 1.5,1.5 z" />
        <path
           sodipodi:type="arc"
           style="color:#000000;fill:#c83737;fill-opacity:1;fill-rule:nonzero;stroke:none;stroke-width:1;marker:none;visibility:visible;display:inline;overflow:visible;enable-background:accumulate"
           id="path3795"
           sodipodi:cx="137"
           sodipodi:cy="98.612183"
           sodipodi:rx="4"
           sodipodi:ry="4"
           d="m 141,98.612183 c 0,2.209137 -1.79086,3.999997 -4,3.999997 -2.20914,0 -4,-1.79086 -4,-3.999997 0,-2.209139 1.79086,-4 4,-4 2.20914,0 4,1.790861 4,4 z" />
        <path
           sodipodi:type="arc"
           style="color:#000000;fill:#c83737;fill-opacity:1;fill-rule:nonzero;stroke:none;stroke-width:1;marker:none;visibility:visible;display:inline;overflow:visible;enable-background:accumulate"
           id="path3797-0"
           sodipodi:cx="140"
           sodipodi:cy="80.112183"
           sodipodi:rx="3.75"
           sodipodi:ry="3.75"
           d="m 143.75,80.112183 c 0,2.071067 -1.67893,3.75 -3.75,3.75 -2.07107,0 -3.75,-1.678933 -3.75,-3.75 0,-2.071068 1.67893,-3.75 3.75,-3.75 2.07107,0 3.75,1.678932 3.75,3.75 z" />
        <path
           style="color:#000000;fill:#c83737;fill-opacity:1;fill-rule:nonzero;stroke:#280b0b;stroke-width:3.40968466;marker:none;visibility:visible;display:inline;overflow:visible;enable-background:accumulate"
           d="m 126.375,9.25 c -5.51229,0 -4.69284,7.921817 -7.46875,12.03125 L 114,25.875 c 10.87355,3.915238 20.28663,2.740284 29.15625,0 L 138.125,21.28125 C 135.29855,17.232377 136.16854,9.25 130.65625,9.25 z"
           id="path3808"
           inkscape:connector-curvature="0"
           sodipodi:nodetypes="sccccss" />
        <path
           style="color:#000000;fill:#ffffff;fill-opacity:1;fill-rule:nonzero;stroke:#280b0b;stroke-width:3.40968466;marker:none;visibility:visible;display:inline;overflow:visible;enable-background:accumulate"
           d="m 126.375,9.25 c -5.51229,0 -4.69284,7.921817 -7.46875,12.03125 l -1.8125,1.6875 c 7.05388,-1.180098 14.73637,-1.141071 23.0625,0.15625 L 138.125,21.28125 C 135.29855,17.232377 136.16854,9.25 130.65625,9.25 z"
           id="path3801"
           inkscape:connector-curvature="0"
           sodipodi:nodetypes="sccccss" />
        <rect
           style="color:#000000;fill:#ee2b2b;fill-opacity:1;fill-rule:nonzero;stroke:#1a1a1a;stroke-width:3.40968466;stroke-miterlimit:4;stroke-dasharray:none;marker:none;visibility:visible;display:inline;overflow:visible;enable-background:accumulate"
           id="rect3814"
           width="21.75"
           height="16.5"
           x="117.8125"
           y="-3.8878186"
           rx="3.4096847"
           ry="3.4096847" />
      </g>
    </g>
  </g>
</svg>
