<?xml version="1.0" encoding="UTF-8" standalone="no"?>
<!-- Created with Inkscape (http://www.inkscape.org/) -->

<svg
   xmlns:dc="http://purl.org/dc/elements/1.1/"
   xmlns:cc="http://creativecommons.org/ns#"
   xmlns:rdf="http://www.w3.org/1999/02/22-rdf-syntax-ns#"
   xmlns:svg="http://www.w3.org/2000/svg"
   xmlns="http://www.w3.org/2000/svg"
   xmlns:sodipodi="http://sodipodi.sourceforge.net/DTD/sodipodi-0.dtd"
   xmlns:inkscape="http://www.inkscape.org/namespaces/inkscape"
   width="49.54776"
   height="44.652195"
   id="svg2"
   version="1.1"
   inkscape:version="0.48.5 r10040"
   sodipodi:docname="chulo-bosquejo.svg">
  <defs
     id="defs4" />
  <sodipodi:namedview
     id="base"
     pagecolor="#ffffff"
     bordercolor="#666666"
     borderopacity="1.0"
     inkscape:pageopacity="0.0"
     inkscape:pageshadow="2"
     inkscape:zoom="1"
     inkscape:cx="35.127205"
     inkscape:cy="35.789376"
     inkscape:document-units="px"
     inkscape:current-layer="layer1"
     showgrid="false"
     inkscape:window-width="1366"
     inkscape:window-height="715"
     inkscape:window-x="0"
     inkscape:window-y="0"
     inkscape:window-maximized="1"
     fit-margin-top="0"
     fit-margin-left="0"
     fit-margin-right="0"
     fit-margin-bottom="0" />
  <metadata
     id="metadata7">
    <rdf:RDF>
      <cc:Work
         rdf:about="">
        <dc:format>image/svg+xml</dc:format>
        <dc:type
           rdf:resource="http://purl.org/dc/dcmitype/StillImage" />
        <dc:title></dc:title>
      </cc:Work>
    </rdf:RDF>
  </metadata>
  <g
     inkscape:label="Layer 1"
     inkscape:groupmode="layer"
     id="layer1"
     transform="translate(-63.280244,-46.023806)">
    <path
       style="font-size:medium;font-style:normal;font-variant:normal;font-weight:normal;font-stretch:normal;text-indent:0;text-align:start;text-decoration:none;line-height:normal;letter-spacing:normal;word-spacing:normal;text-transform:none;direction:ltr;block-progression:tb;writing-mode:lr-tb;text-anchor:start;baseline-shift:baseline;color:#000000;fill:#c83737;fill-opacity:1;stroke:#1a1a1a;stroke-width:1;stroke-miterlimit:4;stroke-dasharray:none;marker:none;visibility:visible;display:inline;overflow:visible;enable-background:accumulate;font-family:Sans;-inkscape-font-specification:Sans"
       d="m 78.5,84.03125 c -2.991445,0.266605 -4.294036,1.894081 -4.875,2.4375 -0.290482,0.27171 -0.372171,0.354823 -0.9375,0.4375 -0.565329,0.08268 -1.652846,0.04007 -3.4375,-0.34375 L 68.625,89.5 c 1.972173,0.424148 3.331318,0.541345 4.46875,0.375 1.137432,-0.166345 2.024525,-0.715542 2.5625,-1.21875 1.07595,-1.006416 0.878182,-1.456008 3.125,-1.65625 0.455605,-0.0406 0.458617,0.02945 0.75,0.25 0.291383,0.220554 0.715351,0.735957 1.53125,1.1875 0.815899,0.451543 1.983652,0.667993 3.3125,0.40625 1.328848,-0.261743 2.906534,-0.929545 5.03125,-2.15625 l -1.5,-2.59375 c -1.963188,1.133447 -3.287223,1.653639 -4.09375,1.8125 -0.806527,0.158861 -1.021975,0.04974 -1.28125,-0.09375 -0.259275,-0.143491 -0.571578,-0.502545 -1.1875,-0.96875 C 80.727828,84.377545 79.67616,83.926428 78.5,84.03125 z"
       id="path3958"
       inkscape:connector-curvature="0" />
    <path
       transform="matrix(0.24040655,0,0,0.24955495,41.708979,76.495371)"
       inkscape:transform-center-y="-0.51438961"
       inkscape:transform-center-x="0.49553231"
       d="m 121.63129,47.060661 -4.47472,1.898701 -1.19985,2.168273 -2.73541,0.529758 0.0188,1.159152 -4.04175,-1.653912 -0.43438,1.015866 -2.05287,-0.524087 -2.82045,0.484044 -2.20257,-2.839182 -3.364869,-0.451164 0.11831,-0.950682 -2.117798,-1.2536 0.914487,-3.213435 -3.350346,-0.999642 2.242038,-3.136309 -1.379427,-2.372181 -0.304644,-1.205864 -0.525803,-5.490996 2.593221,0.103208 0.0034,-3.641951 2.171306,-0.542979 3.148166,-2.017222 3.01945,0.750576 1.47395,-2.78453 0.29846,1.498338 3.80601,-3.232395 -0.0182,2.1709 3.93895,-0.467876 0.80178,2.625327 2.74778,-1.433802 1.28855,2.043724 2.14249,-0.198944 1.27357,3.343468 1.86498,3.288256 0.17591,0.23253 1.07704,3.320837 -2.56829,0.976083 2.23429,2.28536 -2.13863,2.655244 1.66582,2.49556 -2.6477,3.1156 z"
       inkscape:randomized="0.1"
       inkscape:rounded="0"
       inkscape:flatsided="false"
       sodipodi:arg2="0.93499781"
       sodipodi:arg1="0.78539816"
       sodipodi:r2="14.335138"
       sodipodi:r1="15.927931"
       sodipodi:cy="37.005039"
       sodipodi:cx="110"
       sodipodi:sides="21"
       id="path3771"
       style="fill:#daca53;fill-opacity:1;stroke:#1a1a1a;stroke-width:8.16532993;stroke-miterlimit:4;stroke-opacity:1;stroke-dasharray:none"
       sodipodi:type="star" />
    <path
       style="fill:#c83737;fill-opacity:1;stroke:#1a1a1a;stroke-width:2;stroke-miterlimit:4;stroke-opacity:1"
       d="m 102.5724,54.277471 c -0.62319,-0.255613 -1.3345,0.05763 -1.59984,0.70454 -0.57777,1.197871 -1.825845,3.378033 -2.909799,3.449725 -1.895135,0.125342 -7.015656,1.413225 -9.665609,4.164018 -2.663422,2.764776 -2.995156,8.247612 -1.148971,11.871718 0.962369,1.889152 4.026252,2.985699 4.936319,3.942515 1.174214,1.234531 -2.304228,1.288908 -5.016832,3.12121 -1.622348,1.095858 -2.078543,3.236283 -1.022857,4.799157 l 0.613355,0.908034 c 1.055686,1.562874 3.24014,1.979886 4.833997,0.842986 2.652201,-1.891818 9.129527,-7.939101 11.613947,-7.86026 2.23099,0.0708 4.78423,-0.545384 4.63844,-2.827125 0,0 0.0618,-3.943688 -0.57072,-9.26376 -0.63253,-5.320076 -3.10284,-7.094649 -4.81132,-7.893863 -0.94898,-0.443919 0.38087,-3.39561 0.76406,-4.329836 0.26534,-0.646906 -0.031,-1.373447 -0.65417,-1.629059 z"
       id="rect3759"
       inkscape:connector-curvature="0"
       sodipodi:nodetypes="scssssssssscsscs" />
    <path
       style="fill:#daca53;fill-opacity:1;stroke:#1a1a1a;stroke-width:1;stroke-miterlimit:4;stroke-opacity:1;stroke-dasharray:none"
       d="m 102.58169,54.273022 c -0.0779,-0.03195 -0.17641,-0.04914 -0.25602,-0.06378 -0.0717,-0.01164 -0.14022,-0.0265 -0.21151,-0.0249 -0.008,9.8e-5 -0.0166,0.0104 -0.0245,0.01058 -0.0705,0.0031 -0.1403,0.0021 -0.20873,0.01748 -0.008,0.0017 -0.0162,0.0087 -0.0245,0.01058 -0.0768,0.01725 -0.14096,0.04569 -0.21319,0.0775 -0.1393,0.06337 -0.27611,0.141075 -0.38632,0.253897 -0.004,0.0038 -0.003,0.01376 -0.007,0.01765 -0.10835,0.113939 -0.20323,0.249788 -0.26724,0.405832 -0.21666,0.449203 -0.53,1.027791 -0.89473,1.591698 -0.003,0.0052 -0.004,0.01244 -0.007,0.01765 -0.362318,0.558283 -0.781371,1.098958 -1.198058,1.446668 -0.06961,0.0583 -0.130639,0.09749 -0.200401,0.144597 -0.214823,0.146995 -0.422105,0.2435 -0.629559,0.25722 -0.301669,0.01995 -0.593853,0.02064 -0.896685,0.02395 -0.17631,0.0019 -0.347542,0.0086 -0.528214,0.01014 -0.147031,0.0013 -0.293052,-1.97e-4 -0.444723,0.0031 -0.306718,0.0068 -0.634616,0.02735 -0.970163,0.05566 -0.318942,0.02726 -0.659834,0.05685 -1.01637,0.119181 -0.03258,0.0057 -0.05778,0.01862 -0.09073,0.02464 1.017699,1.907765 3.251023,5.26517 5.080022,6.68142 2.049341,1.586872 5.613531,2.889142 8.061881,2.605714 -0.66648,-5.179585 -3.10645,-6.929196 -4.79542,-7.71928 -0.52145,-0.05815 -0.42241,-0.899592 -0.14661,-1.853884 0.003,-0.01185 0.011,-0.0234 0.0145,-0.0353 0.009,-0.0325 0.01,-0.06265 0.0189,-0.09532 0.12361,-0.42983 0.2823,-0.866115 0.43772,-1.263709 0.0102,-0.02621 0.0189,-0.04482 0.029,-0.07059 0.16375,-0.415027 0.32406,-0.790063 0.41986,-1.02362 0.13266,-0.323453 0.12398,-0.651845 0.005,-0.946294 -0.11881,-0.294451 -0.33728,-0.550696 -0.64888,-0.678503 z"
       id="path3777"
       inkscape:connector-curvature="0"
       sodipodi:nodetypes="ccccccccccccccsccscccscccccccsscc" />
    <path
       sodipodi:type="star"
       style="fill:#c83737;fill-opacity:1;stroke:#1a1a1a;stroke-width:5.76613569;stroke-miterlimit:4;stroke-opacity:1;stroke-dasharray:none"
       id="path3769"
       sodipodi:sides="20"
       sodipodi:cx="110"
       sodipodi:cy="37.005039"
       sodipodi:r1="15.927931"
       sodipodi:r2="14.335138"
       sodipodi:arg1="0.78539816"
       sodipodi:arg2="0.94247779"
       inkscape:flatsided="false"
       inkscape:rounded="0"
       inkscape:randomized="0.1"
       d="m 121.63129,47.060661 -1.73592,1.032921 -3.04287,1.686582 -2.81206,0.638673 -1.0968,3.210965 -3.5597,-3.101173 -3.10463,2.17266 -1.11442,-1.270235 -2.80878,-1.154989 0.12888,-3.170201 -4.925909,1.88532 1.711029,-2.072905 -2.836566,-1.103362 -0.97304,-4.306117 -2.153657,-2.343551 1.334546,-0.776575 -1.353296,-2.694527 2.140901,-3.350008 1.008286,-3.912944 2.827959,-0.01775 -1.67317,-4.156066 4.921457,1.799942 -0.14599,-1.961779 2.81528,-0.7162 1.09685,-2.858241 4.20672,1.603629 2.45761,-0.675116 1.11437,0.917511 2.80555,1.232516 3.05998,0.259812 1.74038,1.652989 -1.65862,2.937751 3.48364,-0.04146 0.27351,4.233369 2.80067,0.846006 -1.33772,4.392411 1.35647,2.264278 -2.78792,1.661966 -0.30875,3.985692 -3.47503,1.162567 z"
       inkscape:transform-center-x="0.70171441"
       inkscape:transform-center-y="-0.7284173"
       transform="matrix(0.34043577,0,0,0.35339067,68.734883,39.771839)" />
    <path
       style="fill:#daca53;fill-opacity:1;stroke:#1a1a1a;stroke-width:1;stroke-miterlimit:4;stroke-opacity:1;stroke-dasharray:none"
       d="m 86.165177,70.67635 c 0.14817,1.349325 0.507299,2.66866 1.0816,3.796027 0.962368,1.889152 4.031722,2.972739 4.94179,3.929555 1.174214,1.234531 -2.303259,1.294049 -5.015862,3.12635 -1.622348,1.095859 -2.085626,3.251055 -1.02994,4.813929 l 0.605419,0.896284 c 1.055687,1.562876 3.256489,1.978833 4.850345,0.841934 2.652202,-1.891818 9.126741,-7.945165 11.611161,-7.866323 1.92191,0.06099 4.08148,-0.380535 4.55018,-1.964778 -4.77176,0.358377 -10.471063,-0.880218 -15.981565,-3.834178 -2.061004,-1.104822 -3.931924,-2.367455 -5.613128,-3.7388 z"
       id="path3797"
       inkscape:connector-curvature="0"
       sodipodi:nodetypes="cssssssscsc" />
    <path
       style="fill:#daca53;fill-opacity:1;stroke:#1a1a1a;stroke-width:1;stroke-miterlimit:4;stroke-opacity:1;stroke-dasharray:none"
       d="m 87.768928,63.351353 c -0.523116,0.735011 -0.914768,1.591014 -1.193489,2.517968 3.759342,3.677089 10.784059,6.441148 18.965291,6.981637 0.92196,0.06091 1.826,0.09262 2.72264,0.09538 0.0257,-0.823711 0.0329,-1.707562 -0.0186,-2.613345 -0.89586,-0.03777 -1.80365,-0.09389 -2.72264,-0.190756 -7.495883,-0.79008 -13.948895,-3.405144 -17.753152,-6.790882 z"
       id="path3813"
       inkscape:connector-curvature="0" />
  </g>
</svg>
