<?xml version="1.0" encoding="UTF-8" standalone="no"?>
<!-- Created with Inkscape (http://www.inkscape.org/) -->

<svg
   xmlns:dc="http://purl.org/dc/elements/1.1/"
   xmlns:cc="http://creativecommons.org/ns#"
   xmlns:rdf="http://www.w3.org/1999/02/22-rdf-syntax-ns#"
   xmlns:svg="http://www.w3.org/2000/svg"
   xmlns="http://www.w3.org/2000/svg"
   xmlns:sodipodi="http://sodipodi.sourceforge.net/DTD/sodipodi-0.dtd"
   xmlns:inkscape="http://www.inkscape.org/namespaces/inkscape"
   width="25.228128"
   height="52.569275"
   id="svg2"
   version="1.1"
   inkscape:version="0.48.5 r10040"
   sodipodi:docname="cota-cola.svg"
   inkscape:export-filename="/home/vg/Project/boa/x-ray/assets/cota-cola.png"
   inkscape:export-xdpi="90.737411"
   inkscape:export-ydpi="90.737411">
  <defs
     id="defs4" />
  <sodipodi:namedview
     id="base"
     pagecolor="#ffffff"
     bordercolor="#666666"
     borderopacity="1.0"
     inkscape:pageopacity="0.0"
     inkscape:pageshadow="2"
     inkscape:zoom="1"
     inkscape:cx="59.466292"
     inkscape:cy="-2.0781768"
     inkscape:document-units="px"
     inkscape:current-layer="layer1"
     showgrid="false"
     fit-margin-top="0"
     fit-margin-left="0"
     fit-margin-right="0"
     fit-margin-bottom="0"
     inkscape:window-width="1366"
     inkscape:window-height="715"
     inkscape:window-x="0"
     inkscape:window-y="0"
     inkscape:window-maximized="1" />
  <metadata
     id="metadata7">
    <rdf:RDF>
      <cc:Work
         rdf:about="">
        <dc:format>image/svg+xml</dc:format>
        <dc:type
           rdf:resource="http://purl.org/dc/dcmitype/StillImage" />
        <dc:title></dc:title>
      </cc:Work>
    </rdf:RDF>
  </metadata>
  <g
     inkscape:label="Layer 1"
     inkscape:groupmode="layer"
     id="layer1"
     transform="translate(-112.74481,-31.442597)">
    <g
       id="g3816"
       transform="matrix(0.46282235,0,0,0.46282235,65.799426,34.241966)">
      <path
         sodipodi:nodetypes="sccsssssscccss"
         inkscape:connector-curvature="0"
         id="rect3767"
         d="m 126.375,9.25 c -5.51229,0 -4.69284,7.921817 -7.46875,12.03125 L 106.75,32.65625 c -1.89302,1.071698 -3.15625,3.098367 -3.15625,5.4375 l 0,61.03125 c 0,3.4625 2.7875,6.25 6.25,6.25 l 37.6875,0 c 3.4625,0 6.25,-2.7875 6.25,-6.25 l 0,-61.03125 c 0,-2.364664 -1.29144,-4.406604 -3.21875,-5.46875 -0.0129,-0.0071 -0.0183,-0.02424 -0.0312,-0.03125 L 138.125,21.28125 C 135.29855,17.232377 136.16854,9.25 130.65625,9.25 z"
         style="color:#000000;fill:#782121;fill-opacity:1;fill-rule:nonzero;stroke:#280b0b;stroke-width:4.32131243;marker:none;visibility:visible;display:inline;overflow:visible;enable-background:accumulate" />
      <path
         transform="translate(-6.25,6.5)"
         d="m 124,38.862183 c 0,1.932996 -1.567,3.5 -3.5,3.5 -1.933,0 -3.5,-1.567004 -3.5,-3.5 0,-1.932997 1.567,-3.5 3.5,-3.5 1.933,0 3.5,1.567003 3.5,3.5 z"
         sodipodi:ry="3.5"
         sodipodi:rx="3.5"
         sodipodi:cy="38.862183"
         sodipodi:cx="120.5"
         id="path3799"
         style="color:#000000;fill:#c83737;fill-opacity:1;fill-rule:nonzero;stroke:none;stroke-width:1;marker:none;visibility:visible;display:inline;overflow:visible;enable-background:accumulate"
         sodipodi:type="arc" />
      <rect
         y="48.612183"
         x="103.5935"
         height="26"
         width="50.188"
         id="rect3777"
         style="color:#000000;fill:#ee2b2b;fill-opacity:1;fill-rule:nonzero;stroke:#280b0b;stroke-width:4.32131243;stroke-linecap:round;stroke-linejoin:round;stroke-miterlimit:4;stroke-opacity:1;stroke-dasharray:none;marker:none;visibility:visible;display:inline;overflow:visible;enable-background:accumulate" />
      <path
         sodipodi:nodetypes="cssssc"
         inkscape:connector-curvature="0"
         id="path3779"
         d="m 107.16421,59.112182 c 1.8854,2.864367 10.27859,-3.721406 8,-6 -4.15436,-4.154358 -7.75,8.634375 -7.75,10.75 0,4.818452 6.64576,4.104245 8.25,2.5 0.88436,-0.884357 -1.31947,-3.430535 -1.75,-3 -2.4133,2.413301 -3.42602,9.25 -8.36612,9.25"
         style="color:#000000;fill:none;stroke:#ffffff;stroke-width:2.16065621;stroke-linecap:round;stroke-linejoin:round;stroke-miterlimit:4;stroke-opacity:1;stroke-dasharray:none;marker:none;visibility:visible;display:inline;overflow:visible;enable-background:accumulate" />
      <path
         sodipodi:nodetypes="csssssssssssc"
         inkscape:connector-curvature="0"
         id="path3781"
         d="m 122.97487,58.612182 c -7.64895,-4.058251 -7.35918,11.67959 -0.5,8.25 3.13617,-1.568084 1.04637,-11.296372 -3,-7.25 -1.77681,1.776805 4.08733,3.825336 5,2 1.85234,-3.704689 0.10618,-10 1.25,-10 2.41667,0 0.0248,4.83346 0,7.25 -0.0256,2.495129 -0.48655,6.611251 1.67938,7.5 0.10802,0.04432 3.45176,-7.75 5.69562,-7.75 1.25971,0 -4.61273,4.149541 -3,7.375 0.81107,1.622134 2.44402,-0.51304 2.75,-1.125 0.82074,-1.641477 -1.58523,-5.5 0.25,-5.5 0.01,0 -0.12199,4.878006 0.25,5.25 1.18568,1.185676 3.92515,3.683129 5.75,1.25"
         style="color:#000000;fill:none;stroke:#ffffff;stroke-width:2.16065621;stroke-linecap:round;stroke-linejoin:round;stroke-miterlimit:4;stroke-opacity:1;stroke-dasharray:none;marker:none;visibility:visible;display:inline;overflow:visible;enable-background:accumulate" />
      <path
         inkscape:connector-curvature="0"
         id="path3783"
         d="m 120.72487,54.612182 c 6.30829,-1.530737 13.21868,0.773493 18.25,-3"
         style="color:#000000;fill:#ee2b2b;fill-opacity:1;fill-rule:nonzero;stroke:#ffffff;stroke-width:2.16065621;stroke-linecap:round;stroke-linejoin:round;stroke-miterlimit:4;stroke-opacity:1;stroke-dasharray:none;marker:none;visibility:visible;display:inline;overflow:visible;enable-background:accumulate" />
      <path
         style="color:#000000;fill:none;stroke:#ffffff;stroke-width:2.16065621;stroke-linecap:round;stroke-linejoin:round;stroke-miterlimit:4;stroke-opacity:1;stroke-dasharray:none;marker:none;visibility:visible;display:inline;overflow:visible;enable-background:accumulate"
         d="m 142.34278,59.112182 c 1.8854,2.864367 10.27859,-3.721406 8,-6 -4.15436,-4.154358 -7.75,8.634375 -7.75,10.75 0,4.818452 6.64576,4.104245 8.25,2.5 0.88436,-0.884357 -1.31947,-3.430535 -1.75,-3 -2.4133,2.413301 -3.42602,9.25 -8.36612,9.25"
         id="path3785"
         inkscape:connector-curvature="0"
         sodipodi:nodetypes="cssssc" />
      <path
         d="m 113.25,90.112183 c 0,1.518783 -1.23122,2.75 -2.75,2.75 -1.51878,0 -2.75,-1.231217 -2.75,-2.75 0,-1.518783 1.23122,-2.75 2.75,-2.75 1.51878,0 2.75,1.231217 2.75,2.75 z"
         sodipodi:ry="2.75"
         sodipodi:rx="2.75"
         sodipodi:cy="90.112183"
         sodipodi:cx="110.5"
         id="path3787"
         style="color:#000000;fill:#c83737;stroke:none;stroke-width:1;marker:none;visibility:visible;display:inline;overflow:visible;enable-background:accumulate"
         sodipodi:type="arc" />
      <path
         transform="translate(34.25,7)"
         sodipodi:type="arc"
         style="color:#000000;fill:#c83737;stroke:none;stroke-width:1;marker:none;visibility:visible;display:inline;overflow:visible;enable-background:accumulate"
         id="path3789"
         sodipodi:cx="110.5"
         sodipodi:cy="90.112183"
         sodipodi:rx="2.75"
         sodipodi:ry="2.75"
         d="m 113.25,90.112183 c 0,1.518783 -1.23122,2.75 -2.75,2.75 -1.51878,0 -2.75,-1.231217 -2.75,-2.75 0,-1.518783 1.23122,-2.75 2.75,-2.75 1.51878,0 2.75,1.231217 2.75,2.75 z" />
      <path
         d="m 133.5,87.612183 c 0,2.34721 -1.90279,4.25 -4.25,4.25 -2.34721,0 -4.25,-1.90279 -4.25,-4.25 0,-2.347211 1.90279,-4.25 4.25,-4.25 2.34721,0 4.25,1.902789 4.25,4.25 z"
         sodipodi:ry="4.25"
         sodipodi:rx="4.25"
         sodipodi:cy="87.612183"
         sodipodi:cx="129.25"
         id="path3791"
         style="color:#000000;fill:#c83737;fill-opacity:1;fill-rule:nonzero;stroke:none;stroke-width:1;marker:none;visibility:visible;display:inline;overflow:visible;enable-background:accumulate"
         sodipodi:type="arc" />
      <path
         d="m 123.25,97.112183 c 0,0.828427 -0.67157,1.5 -1.5,1.5 -0.82843,0 -1.5,-0.671573 -1.5,-1.5 0,-0.828428 0.67157,-1.5 1.5,-1.5 0.82843,0 1.5,0.671572 1.5,1.5 z"
         sodipodi:ry="1.5"
         sodipodi:rx="1.5"
         sodipodi:cy="97.112183"
         sodipodi:cx="121.75"
         id="path3793"
         style="color:#000000;fill:#c83737;fill-opacity:1;fill-rule:nonzero;stroke:none;stroke-width:1;marker:none;visibility:visible;display:inline;overflow:visible;enable-background:accumulate"
         sodipodi:type="arc" />
      <path
         d="m 141,98.612183 c 0,2.209137 -1.79086,3.999997 -4,3.999997 -2.20914,0 -4,-1.79086 -4,-3.999997 0,-2.209139 1.79086,-4 4,-4 2.20914,0 4,1.790861 4,4 z"
         sodipodi:ry="4"
         sodipodi:rx="4"
         sodipodi:cy="98.612183"
         sodipodi:cx="137"
         id="path3795"
         style="color:#000000;fill:#c83737;fill-opacity:1;fill-rule:nonzero;stroke:none;stroke-width:1;marker:none;visibility:visible;display:inline;overflow:visible;enable-background:accumulate"
         sodipodi:type="arc" />
      <path
         d="m 143.75,80.112183 c 0,2.071067 -1.67893,3.75 -3.75,3.75 -2.07107,0 -3.75,-1.678933 -3.75,-3.75 0,-2.071068 1.67893,-3.75 3.75,-3.75 2.07107,0 3.75,1.678932 3.75,3.75 z"
         sodipodi:ry="3.75"
         sodipodi:rx="3.75"
         sodipodi:cy="80.112183"
         sodipodi:cx="140"
         id="path3797"
         style="color:#000000;fill:#c83737;fill-opacity:1;fill-rule:nonzero;stroke:none;stroke-width:1;marker:none;visibility:visible;display:inline;overflow:visible;enable-background:accumulate"
         sodipodi:type="arc" />
      <path
         sodipodi:nodetypes="sccccss"
         inkscape:connector-curvature="0"
         id="path3808"
         d="m 126.375,9.25 c -5.51229,0 -4.69284,7.921817 -7.46875,12.03125 L 114,25.875 c 10.87355,3.915238 20.28663,2.740284 29.15625,0 L 138.125,21.28125 C 135.29855,17.232377 136.16854,9.25 130.65625,9.25 z"
         style="color:#000000;fill:#c83737;fill-opacity:1;fill-rule:nonzero;stroke:#280b0b;stroke-width:4.32131243;marker:none;visibility:visible;display:inline;overflow:visible;enable-background:accumulate" />
      <path
         sodipodi:nodetypes="sccccss"
         inkscape:connector-curvature="0"
         id="path3801"
         d="m 126.375,9.25 c -5.51229,0 -4.69284,7.921817 -7.46875,12.03125 l -1.8125,1.6875 c 7.05388,-1.180098 14.73637,-1.141071 23.0625,0.15625 L 138.125,21.28125 C 135.29855,17.232377 136.16854,9.25 130.65625,9.25 z"
         style="color:#000000;fill:#ffffff;fill-opacity:1;fill-rule:nonzero;stroke:#280b0b;stroke-width:4.32131243;marker:none;visibility:visible;display:inline;overflow:visible;enable-background:accumulate" />
      <rect
         ry="4.3213124"
         rx="4.3213124"
         y="-3.8878186"
         x="117.8125"
         height="16.5"
         width="21.75"
         id="rect3814"
         style="color:#000000;fill:#ee2b2b;fill-opacity:1;fill-rule:nonzero;stroke:#1a1a1a;stroke-width:4.32131243;stroke-miterlimit:4;stroke-dasharray:none;marker:none;visibility:visible;display:inline;overflow:visible;enable-background:accumulate" />
    </g>
  </g>
</svg>
