<?xml version="1.0" encoding="UTF-8" standalone="no"?>
<!-- Created with Inkscape (http://www.inkscape.org/) -->

<svg
   xmlns:dc="http://purl.org/dc/elements/1.1/"
   xmlns:cc="http://creativecommons.org/ns#"
   xmlns:rdf="http://www.w3.org/1999/02/22-rdf-syntax-ns#"
   xmlns:svg="http://www.w3.org/2000/svg"
   xmlns="http://www.w3.org/2000/svg"
   xmlns:sodipodi="http://sodipodi.sourceforge.net/DTD/sodipodi-0.dtd"
   xmlns:inkscape="http://www.inkscape.org/namespaces/inkscape"
   inkscape:version="0.48.5 r10040"
   version="1.1"
   id="svg3431"
   height="33.838757"
   width="92.644463"
   sodipodi:docname="iguana.svg"
   inkscape:export-filename="/home/vg/Project/boa/x-ray/assets/iguana.png"
   inkscape:export-xdpi="90.43"
   inkscape:export-ydpi="90.43">
  <sodipodi:namedview
     id="base"
     pagecolor="#ffffff"
     bordercolor="#666666"
     borderopacity="1.0"
     inkscape:pageopacity="0.0"
     inkscape:pageshadow="2"
     inkscape:zoom="1"
     inkscape:cx="74.674896"
     inkscape:cy="22.515491"
     inkscape:document-units="px"
     inkscape:current-layer="layer1"
     showgrid="false"
     inkscape:window-width="1366"
     inkscape:window-height="715"
     inkscape:window-x="0"
     inkscape:window-y="0"
     inkscape:window-maximized="1"
     fit-margin-top="0"
     fit-margin-left="0"
     fit-margin-right="0"
     fit-margin-bottom="0" />
  <defs
     id="defs3433" />
  <metadata
     id="metadata3436">
    <rdf:RDF>
      <cc:Work
         rdf:about="">
        <dc:format>image/svg+xml</dc:format>
        <dc:type
           rdf:resource="http://purl.org/dc/dcmitype/StillImage" />
        <dc:title></dc:title>
      </cc:Work>
    </rdf:RDF>
  </metadata>
  <g
     inkscape:label="Layer 1"
     inkscape:groupmode="layer"
     id="layer1"
     transform="translate(-9.0474012,-46.226391)">
    <path
       inkscape:connector-curvature="0"
       style="color:#000000;fill:#49d98c;fill-opacity:1;fill-rule:nonzero;stroke:#1a1a1a;stroke-width:1;stroke-linecap:round;stroke-linejoin:round;stroke-miterlimit:4;stroke-opacity:1;stroke-dasharray:none;marker:none;visibility:visible;display:inline;overflow:visible;enable-background:accumulate"
       d="m 54.744837,52.968579 c -0.618198,0.01519 -1.235339,0.181027 -1.648936,0.486754 -0.48253,0.35668 -0.851703,0.874239 -1.040401,1.440791 -0.385055,-0.461037 -0.929527,-0.796791 -1.511524,-0.954037 -0.995365,-0.268932 -2.611072,0.334206 -3.180092,1.187679 -0.337855,0.50675 -0.517559,1.137815 -0.490755,1.752314 -0.529644,-0.292903 -1.162594,-0.413877 -1.766717,-0.350463 -1.025867,0.107684 -2.322957,1.350162 -2.512664,2.355889 -0.113189,0.600067 -0.0358,1.269913 0.235562,1.830195 -0.607063,-0.06251 -1.254453,0.07189 -1.786348,0.369933 -0.898173,0.503277 -1.613069,2.115413 -1.393743,3.115225 0.129245,0.589175 0.439648,1.137383 0.883358,1.538143 -0.580287,0.133265 -1.128833,0.430201 -1.531154,0.876156 -0.687914,0.76252 -0.849853,2.27586 -0.392605,3.193106 0.457249,0.917246 1.402706,1.555956 2.434144,1.577082 1.031423,0.02187 1.979455,-0.414313 2.551925,-1.26556 0.57247,-0.851246 0.636153,-1.520104 0.314083,-2.49218 -0.166926,-0.503819 -0.460916,-0.920104 -0.844098,-1.24609 0.490276,-0.0974 0.962424,-0.308627 1.354484,-0.661985 0.763483,-0.688117 0.932843,-1.079637 0.942249,-2.102777 0.0047,-0.51157 -0.131461,-0.97214 -0.372974,-1.382381 0.454164,0.08277 0.913879,0.05069 1.393743,-0.116821 0.973081,-0.339678 1.249883,-0.641956 1.668567,-1.577082 0.209342,-0.467563 0.253202,-0.948983 0.196302,-1.421322 0.392298,0.25992 0.839633,0.416676 1.354484,0.447814 1.029699,0.06228 1.485887,-0.116525 2.218211,-0.837218 0.366162,-0.360345 0.603904,-0.787047 0.726317,-1.246089 0.283625,0.383313 0.664859,0.693112 1.138552,0.895627 0.947384,0.405032 1.532233,0.401583 2.453773,-0.05841 0.463848,-0.231532 0.837322,-0.551519 1.099291,-0.954038 0.158716,0.452206 0.43156,0.856179 0.824469,1.187679 0.785816,0.663001 1.380148,0.846609 2.394883,0.661986 0.512246,-0.0932 0.968197,-0.307571 1.334853,-0.623046 0.02542,0.47763 0.167535,0.955255 0.451495,1.382382 0.56792,0.854255 1.074933,1.153927 2.100431,1.265561 0.518637,0.05646 1.010424,-0.01486 1.452634,-0.214172 -0.118725,0.460549 -0.122689,0.949033 0.01963,1.440791 0.284638,0.983516 0.635428,1.378321 1.570415,1.810725 0.467494,0.216201 0.95622,0.27957 1.433004,0.233641 -0.266424,0.389544 -0.43655,0.852458 -0.471124,1.362912 -0.06915,1.020905 0.129056,1.423654 0.844098,2.161186 0.362251,0.373649 0.8011,0.628123 1.275963,0.759337 -0.396455,0.295492 -0.70327,0.686401 -0.902989,1.168209 -0.392278,0.946338 -0.441149,1.736746 0.09815,2.609001 0.539299,0.872254 1.520677,1.390268 2.551925,1.36291 1.031266,-0.02661 1.961599,-0.599953 2.453774,-1.499202 0.492174,-0.899247 0.473304,-2.305253 -0.157042,-3.115224 -0.36896,-0.474098 -0.883491,-0.837615 -1.452634,-1.012448 0.468524,-0.370248 0.832559,-0.882307 1.00114,-1.460262 0.286688,-0.982894 -0.360109,-2.603992 -1.217072,-3.173635 -0.508821,-0.338226 -1.150003,-0.508375 -1.766717,-0.486754 0.309648,-0.521314 0.465301,-1.149203 0.412233,-1.752314 -0.0897,-1.019344 -1.197448,-2.284096 -2.198581,-2.53112 -0.586638,-0.144751 -1.223077,-0.100435 -1.786348,0.116821 0.121249,-0.587829 0.04749,-1.221511 -0.196301,-1.771785 -0.415049,-0.936782 -1.796916,-1.774315 -2.826749,-1.713374 -0.609044,0.03604 -1.196499,0.264639 -1.668566,0.642515 -0.05332,-0.597037 -0.274918,-1.197217 -0.667427,-1.654963 -0.66838,-0.77947 -2.208371,-1.180937 -3.18009,-0.837216 -0.568458,0.201076 -1.066668,0.585599 -1.413374,1.070858 -0.219415,-0.563323 -0.629074,-1.050452 -1.138549,-1.38238 -0.431137,-0.28089 -1.050368,-0.424063 -1.668566,-0.408873 z"
       id="path5440" />
    <path
       inkscape:connector-curvature="0"
       id="path8263"
       d="m 23.310006,46.740153 c -0.390987,0.03775 -0.75027,0.155989 -1.008848,0.347262 -0.393376,0.290985 -0.711402,0.727344 -0.88483,1.215193 -0.306369,-0.385146 -0.723003,-0.690288 -1.175756,-0.829379 -0.804891,-0.247272 -2.120033,0.277966 -2.591713,1.021148 -0.471681,0.743184 -0.558902,1.74443 -0.160807,2.535778 0.397525,0.791677 1.096256,1.336907 1.931055,1.404476 0.834801,0.06757 1.194812,-0.107164 1.7964,-0.732701 0.279309,-0.290428 0.468483,-0.621484 0.575398,-0.991182 0.209128,0.302401 0.47385,0.547141 0.821879,0.725282 0.755766,0.386842 1.099048,0.390179 1.878101,0.06097 0.355718,-0.150315 0.646776,-0.38383 0.874139,-0.667028 0.08236,0.374642 0.244714,0.739201 0.502154,1.047954 0.55862,0.669962 0.780685,0.841179 1.616792,0.886338 0.382519,0.02066 0.736472,-0.05629 1.05582,-0.214808 -0.06514,0.360081 -0.05414,0.740658 0.05393,1.128454 0.240145,0.861766 0.541175,1.196728 1.306958,1.559852 0.765782,0.363124 1.596546,0.222084 2.307695,-0.25231 0.71149,-0.473803 1.068442,-1.423993 0.978429,-2.318194 -0.09001,-0.894199 -0.996395,-1.970514 -1.811067,-2.177702 -0.466767,-0.118707 -0.989788,-0.07621 -1.445802,0.114048 0.05907,-0.510242 -0.0135,-1.049875 -0.229404,-1.50308 -0.381467,-0.800739 -1.745238,-1.550572 -2.564467,-1.365493 -0.46117,0.104185 -0.92228,0.341966 -1.253255,0.702058 -0.14471,-0.486676 -0.426046,-0.942763 -0.791579,-1.255716 -0.4092,-0.350338 -1.129579,-0.504135 -1.781224,-0.441221 z"
       style="color:#000000;fill:#49d98c;fill-opacity:1;stroke:#1a1a1a;stroke-width:1;stroke-linecap:round;stroke-linejoin:round;stroke-miterlimit:4;stroke-opacity:1;stroke-dasharray:none;marker:none;visibility:visible;display:inline;overflow:visible;enable-background:accumulate" />
    <path
       inkscape:connector-curvature="0"
       id="path4379"
       d="m 55.302952,57.018951 c -1.791889,-0.169074 -3.479837,0.596222 -4.436424,1.985955 -1.275449,1.852977 -1.292738,4.609511 0.353344,7.262369 1.421838,2.291462 4.138173,4.534476 8.342832,6.40568 -0.04466,0.0089 -0.05321,0.01092 -0.09815,0.01947 -2.053708,0.390697 -4.554205,0.642516 -4.554205,0.642516 a 1.256458,1.2462145 0 1 0 0.255193,2.472709 c 0,0 2.552578,-0.259587 4.770137,-0.681455 1.108778,-0.210934 2.076447,-0.402434 2.885638,-0.817747 0.202301,-0.103828 0.404903,-0.210045 0.628166,-0.447814 0.223262,-0.237768 0.478745,-0.738932 0.392604,-1.26556 -0.08614,-0.526627 -0.401436,-0.832988 -0.647797,-1.012447 -0.24636,-0.17946 -0.484165,-0.273155 -0.745947,-0.369934 -5.097034,-1.884345 -7.840668,-4.238439 -9.088779,-6.24992 -1.248112,-2.01148 -1.04263,-3.640174 -0.412234,-4.556016 0.630396,-0.915842 1.638461,-1.32144 3.10157,-0.642514 1.46311,0.678924 3.371208,2.71277 4.770137,7.009255 a 1.2571374,1.2468884 0 1 0 2.394884,-0.759336 c -1.530688,-4.701154 -3.720984,-7.402209 -6.10499,-8.508458 -0.596002,-0.276562 -1.208682,-0.430396 -1.805978,-0.486754 z"
       style="font-size:medium;font-style:normal;font-variant:normal;font-weight:normal;font-stretch:normal;text-indent:0;text-align:start;text-decoration:none;line-height:normal;letter-spacing:normal;word-spacing:normal;text-transform:none;direction:ltr;block-progression:tb;writing-mode:lr-tb;text-anchor:start;baseline-shift:baseline;color:#000000;fill:#326327;fill-opacity:1;stroke:#1a1a1a;stroke-width:1;stroke-miterlimit:4;stroke-dasharray:none;marker:none;visibility:visible;display:inline;overflow:visible;enable-background:accumulate;font-family:Sans;-inkscape-font-specification:Sans" />
    <path
       inkscape:connector-curvature="0"
       id="path4375"
       d="m 47.037645,64.655916 a 1.256458,1.2462145 0 0 0 -1.099291,1.24609 c 0,1.362606 -0.5877,2.491688 -1.590046,3.524098 -1.002344,1.03241 -2.427193,1.902809 -3.886778,2.589531 -2.919168,1.373444 -5.889057,1.947015 -5.889057,1.947015 a 1.2589371,1.2486735 0 1 0 0.471124,2.45324 c 0,0 3.229962,-0.604323 6.497594,-2.141717 1.633816,-0.768697 3.29539,-1.777465 4.613096,-3.134695 1.317705,-1.35723 2.296732,-3.13854 2.296732,-5.237472 a 1.256458,1.2462145 0 0 0 -1.413374,-1.24609 z"
       style="font-size:medium;font-style:normal;font-variant:normal;font-weight:normal;font-stretch:normal;text-indent:0;text-align:start;text-decoration:none;line-height:normal;letter-spacing:normal;word-spacing:normal;text-transform:none;direction:ltr;block-progression:tb;writing-mode:lr-tb;text-anchor:start;baseline-shift:baseline;color:#000000;fill:#326327;fill-opacity:1;stroke:#1a1a1a;stroke-width:1;stroke-miterlimit:4;stroke-dasharray:none;marker:none;visibility:visible;display:inline;overflow:visible;enable-background:accumulate;font-family:Sans;-inkscape-font-specification:Sans" />
    <path
       inkscape:connector-curvature="0"
       id="path3589"
       d="m 22.373294,50.924219 c -2.22377,0.05111 -5.947421,2.639395 -7.320378,5.763166 -3.447341,7.843437 -4.176903,8.161796 -4.789526,9.968719 -1.7716649,5.2255 7.785796,4.400256 12.961532,4.400256 2.517475,0 4.785023,-1.068075 6.46875,-2.803703 0.151343,1.208389 0.414085,2.222435 0.815388,3.076284 0.697695,1.484482 1.903034,2.409662 3.225315,2.803703 2.644562,0.788081 5.779018,0.05841 9.694066,0.05841 0.573128,0.01325 1.115164,-0.4975 1.177782,-1.109799 3.164776,-0.0993 5.494651,0.529248 9.802784,-2.647942 3.820583,-2.817627 11.799504,-0.09558 16.905723,2.550591 0.386203,0.750477 1.057518,1.347315 1.793854,1.791254 1.158533,0.698478 2.630842,1.166921 4.330622,1.479732 3.399554,0.625623 7.676548,0.598322 11.669116,-0.155761 3.992572,-0.754083 7.716686,-2.18406 9.893389,-4.848069 1.088349,-1.332004 1.755119,-3.035733 1.685129,-4.925949 -0.07,-1.890216 -0.818958,-3.914102 -2.28308,-6.074689 -0.222762,-0.338584 -0.611057,-0.543409 -0.996594,-0.525694 -0.849864,0.02482 -1.406116,1.281243 -0.887867,2.005426 1.281426,1.890986 1.8021,3.446734 1.848216,4.692308 0.04615,1.245573 -0.333535,2.248558 -1.105302,3.193105 -1.543535,1.889094 -4.839233,3.328986 -8.552525,4.030322 -3.713291,0.701337 -7.823734,0.720043 -10.88997,0.155761 -1.533116,-0.282138 -2.803186,-0.73416 -3.587709,-1.207147 -0.784523,-0.472987 -0.942224,-0.804568 -0.942224,-1.051389 0.01,-0.672076 -0.570663,-1.286581 -1.195903,-1.26556 -1.487422,-7.638042 -7.79918,-13.375996 -15.347427,-13.375996 -8.028634,0 -14.634598,6.491467 -15.546744,14.855728 -3.05936,0.121734 -5.461552,0.394068 -6.849264,-0.01947 -0.855694,-0.254998 -1.343385,-0.618232 -1.775736,-1.538142 -0.43235,-0.91991 -0.72479,-2.510286 -0.72479,-4.96489 0.0032,-0.09121 -0.0028,-0.1828 -0.01813,-0.272582 0.488278,-1.219682 0.76103,-2.559931 0.76103,-3.971911 0,-5.561468 -4.192173,-10.066071 -9.367909,-10.066071 -0.245323,0 -0.533947,-0.0073 -0.851626,0 z"
       style="color:#000000;fill:#357c25;fill-opacity:1;fill-rule:nonzero;stroke:#1a1a1a;stroke-width:2;stroke-linecap:round;stroke-linejoin:round;stroke-miterlimit:4;stroke-opacity:1;stroke-dasharray:none;marker:none;visibility:visible;display:inline;overflow:visible;enable-background:accumulate"
       sodipodi:nodetypes="sssscssccscssssscccsssssccscssccsss" />
    <path
       sodipodi:type="arc"
       style="color:#000000;fill:#ffffff;fill-opacity:1;fill-rule:nonzero;stroke:none;stroke-width:5;marker:none;visibility:visible;display:inline;overflow:visible;enable-background:accumulate"
       id="path4365"
       sodipodi:cx="22.223356"
       sodipodi:cy="47.765476"
       sodipodi:rx="6.3134532"
       sodipodi:ry="6.3134532"
       d="m 28.536809,47.765476 c 0,3.486824 -2.826629,6.313453 -6.313453,6.313453 -3.486824,0 -6.313453,-2.826629 -6.313453,-6.313453 0,-3.486824 2.826629,-6.313453 6.313453,-6.313453 3.486824,0 6.313453,2.826629 6.313453,6.313453 z"
       transform="matrix(0.62816618,0,0,0.62304497,9.5290703,29.974332)" />
    <path
       transform="matrix(0.3768997,0,0,0.37382697,16.501119,40.981495)"
       d="m 28.536809,47.765476 c 0,3.486824 -2.826629,6.313453 -6.313453,6.313453 -3.486824,0 -6.313453,-2.826629 -6.313453,-6.313453 0,-3.486824 2.826629,-6.313453 6.313453,-6.313453 3.486824,0 6.313453,2.826629 6.313453,6.313453 z"
       sodipodi:ry="6.3134532"
       sodipodi:rx="6.3134532"
       sodipodi:cy="47.765476"
       sodipodi:cx="22.223356"
       id="path4367"
       style="color:#000000;fill:#1a1a1a;fill-opacity:1;fill-rule:nonzero;stroke:none;stroke-width:5;marker:none;visibility:visible;display:inline;overflow:visible;enable-background:accumulate"
       sodipodi:type="arc" />
    <path
       inkscape:connector-curvature="0"
       id="path4373"
       d="m 49.55031,67.148096 a 1.256458,1.2462145 0 0 0 -1.099291,1.24609 c 0,1.362606 -0.5877,2.491688 -1.590046,3.524098 -1.002345,1.032411 -2.427193,1.902809 -3.886778,2.589531 -2.919168,1.373444 -5.889057,1.947015 -5.889057,1.947015 a 1.258937,1.2486733 0 1 0 0.471124,2.45324 c 0,0 3.229961,-0.604323 6.497594,-2.141717 1.633816,-0.768698 3.29539,-1.777465 4.613095,-3.134695 1.317705,-1.357231 2.296733,-3.13854 2.296733,-5.237472 a 1.256458,1.2462145 0 0 0 -1.413374,-1.24609 z"
       style="font-size:medium;font-style:normal;font-variant:normal;font-weight:normal;font-stretch:normal;text-indent:0;text-align:start;text-decoration:none;line-height:normal;letter-spacing:normal;word-spacing:normal;text-transform:none;direction:ltr;block-progression:tb;writing-mode:lr-tb;text-anchor:start;baseline-shift:baseline;color:#000000;fill:#326327;fill-opacity:1;stroke:#1a1a1a;stroke-width:1;stroke-miterlimit:4;stroke-dasharray:none;marker:none;visibility:visible;display:inline;overflow:visible;enable-background:accumulate;font-family:Sans;-inkscape-font-specification:Sans" />
    <path
       inkscape:connector-curvature="0"
       id="path4377"
       d="m 61.584614,60.75722 c -1.79189,-0.169073 -3.479837,0.596223 -4.436424,1.985956 -1.275449,1.852977 -1.292738,4.609512 0.353344,7.262368 1.421837,2.291463 4.138173,4.534478 8.342832,6.405681 -0.04466,0.0089 -0.05321,0.01092 -0.09815,0.01947 -2.053707,0.390698 -4.554204,0.642515 -4.554204,0.642515 a 1.256458,1.2462145 0 1 0 0.255193,2.47271 c 0,0 2.552577,-0.259587 4.770136,-0.681456 1.108775,-0.210933 2.076446,-0.402433 2.885637,-0.817746 0.202301,-0.103828 0.404903,-0.210046 0.628166,-0.447813 0.223263,-0.237769 0.478745,-0.738933 0.392604,-1.26556 -0.08614,-0.526629 -0.401436,-0.832989 -0.647797,-1.012449 -0.24636,-0.179459 -0.484165,-0.273154 -0.745947,-0.369932 -5.097033,-1.884346 -7.840666,-4.23844 -9.088778,-6.24992 -1.248111,-2.011481 -1.04263,-3.640175 -0.412234,-4.556017 0.630397,-0.915841 1.638462,-1.32144 3.101571,-0.642515 1.463112,0.678926 3.371211,2.712771 4.770135,7.009256 A 1.2571377,1.2468886 0 1 0 69.49558,69.752432 C 67.964889,65.051278 65.774596,62.350223 63.390592,61.243974 62.79459,60.967412 62.18191,60.813578 61.584614,60.75722 z"
       style="font-size:medium;font-style:normal;font-variant:normal;font-weight:normal;font-stretch:normal;text-indent:0;text-align:start;text-decoration:none;line-height:normal;letter-spacing:normal;word-spacing:normal;text-transform:none;direction:ltr;block-progression:tb;writing-mode:lr-tb;text-anchor:start;baseline-shift:baseline;color:#000000;fill:#326327;fill-opacity:1;stroke:#1a1a1a;stroke-width:1;stroke-miterlimit:4;stroke-dasharray:none;marker:none;visibility:visible;display:inline;overflow:visible;enable-background:accumulate;font-family:Sans;-inkscape-font-specification:Sans" />
  </g>
</svg>
