<?xml version="1.0" encoding="UTF-8" standalone="no"?>
<!-- Created with Inkscape (http://www.inkscape.org/) -->

<svg
   xmlns:dc="http://purl.org/dc/elements/1.1/"
   xmlns:cc="http://creativecommons.org/ns#"
   xmlns:rdf="http://www.w3.org/1999/02/22-rdf-syntax-ns#"
   xmlns:svg="http://www.w3.org/2000/svg"
   xmlns="http://www.w3.org/2000/svg"
   xmlns:sodipodi="http://sodipodi.sourceforge.net/DTD/sodipodi-0.dtd"
   xmlns:inkscape="http://www.inkscape.org/namespaces/inkscape"
   width="425.71429"
   height="252.28572"
   id="svg2"
   version="1.1"
   inkscape:version="0.48.5 r10040"
   sodipodi:docname="information-for-mobile.svg">
  <defs
     id="defs4" />
  <sodipodi:namedview
     id="base"
     pagecolor="#ffffff"
     bordercolor="#666666"
     borderopacity="1.0"
     inkscape:pageopacity="0.0"
     inkscape:pageshadow="2"
     inkscape:zoom="0.70710678"
     inkscape:cx="23.016303"
     inkscape:cy="121.06049"
     inkscape:document-units="px"
     inkscape:current-layer="g4016"
     showgrid="false"
     fit-margin-top="0"
     fit-margin-left="0"
     fit-margin-right="0"
     fit-margin-bottom="0"
     inkscape:window-width="1366"
     inkscape:window-height="715"
     inkscape:window-x="0"
     inkscape:window-y="0"
     inkscape:window-maximized="1" />
  <metadata
     id="metadata7">
    <rdf:RDF>
      <cc:Work
         rdf:about="">
        <dc:format>image/svg+xml</dc:format>
        <dc:type
           rdf:resource="http://purl.org/dc/dcmitype/StillImage" />
        <dc:title />
      </cc:Work>
    </rdf:RDF>
  </metadata>
  <g
     inkscape:label="Layer 1"
     inkscape:groupmode="layer"
     id="layer1"
     transform="translate(0,-0.93361008)"
     sodipodi:insensitive="true"
     style="display:inline">
    <rect
       style="fill:#cfd438;fill-opacity:0.79487179;stroke:none"
       id="rect3004"
       width="425.71429"
       height="252.28572"
       x="0"
       y="0.93361008"
       rx="30"
       ry="30" />
    <g
       id="g3871" />
    <g
       id="g3953"
       transform="translate(-13.955151,-8)">
      <g
         transform="translate(55,15)"
         id="g3792"
         style="stroke:#1a1a1a">
        <rect
           style="fill:#ffffff;fill-opacity:1;stroke:#1a1a1a"
           id="rect3006"
           width="59.686787"
           height="104.82143"
           x="28.571428"
           y="50.612183"
           rx="8"
           ry="8" />
        <rect
           ry="8"
           rx="8"
           y="61.862183"
           x="33.09713"
           height="77.14286"
           width="50.635384"
           id="rect3776"
           style="fill:#1a1a1a;fill-opacity:1;stroke:#1a1a1a" />
        <rect
           style="fill:#cccccc;fill-opacity:1;stroke:#1a1a1a"
           id="rect3778"
           width="13.917355"
           height="10.535716"
           x="51.456146"
           y="141.68361"
           rx="3.7499988"
           ry="3.7499988" />
        <rect
           style="fill:#cccccc;fill-opacity:1;stroke:#1a1a1a"
           id="rect3780"
           width="22.095589"
           height="5.8928571"
           x="47.367027"
           y="53.647896"
           rx="8"
           ry="5.8928571" />
        <path
           sodipodi:type="arc"
           style="fill:#1a1a1a;fill-opacity:1;stroke:#1a1a1a"
           id="path3782"
           sodipodi:cx="92.5"
           sodipodi:cy="32.540752"
           sodipodi:rx="3.3928571"
           sodipodi:ry="3.3928571"
           d="m 95.892857,32.540752 c 0,1.873824 -1.519034,3.392857 -3.392857,3.392857 -1.873823,0 -3.392857,-1.519033 -3.392857,-3.392857 0,-1.873823 1.519034,-3.392857 3.392857,-3.392857 1.873823,0 3.392857,1.519034 3.392857,3.392857 z"
           transform="matrix(0.78483316,0,0,0.7368421,7.8307417,33.063356)" />
        <path
           style="fill:none;stroke:#ffffff;stroke-width:1"
           d="m 79.762104,55.746108 c 1.726247,-0.03953 1.979043,0.810231 1.949571,1.830358"
           id="path3784"
           inkscape:connector-curvature="0"
           sodipodi:nodetypes="cc" />
        <path
           sodipodi:nodetypes="cc"
           inkscape:connector-curvature="0"
           id="path3786"
           d="m 77.730219,64.941285 c 3.311647,-0.100538 3.796611,2.060704 3.740071,4.655247"
           style="fill:none;stroke:#ffffff;stroke-width:1" />
      </g>
      <rect
         ry="8"
         rx="8"
         y="-343.32553"
         x="114.1795"
         height="104.82143"
         width="59.686787"
         id="rect3803"
         style="fill:#ffffff;fill-opacity:1;stroke:#1a1a1a"
         transform="matrix(0,1,-1,0,0,0)" />
      <rect
         style="fill:#1a1a1a;fill-opacity:1;stroke:none"
         id="rect3805"
         width="50.635384"
         height="77.14286"
         x="118.7052"
         y="-332.07553"
         rx="8"
         ry="8"
         transform="matrix(0,1,-1,0,0,0)" />
      <rect
         ry="3.7499988"
         rx="3.7499988"
         y="-252.2541"
         x="137.06421"
         height="10.535716"
         width="13.917355"
         id="rect3807"
         style="fill:#cccccc;fill-opacity:1;stroke:#1a1a1a"
         transform="matrix(0,1,-1,0,0,0)" />
      <rect
         ry="5.8928571"
         rx="8"
         y="-340.28983"
         x="132.9751"
         height="5.8928571"
         width="22.095589"
         id="rect3809"
         style="fill:#cccccc;fill-opacity:1;stroke:#1a1a1a"
         transform="matrix(0,1,-1,0,0,0)" />
      <path
         transform="matrix(0.78483316,0,0,0.7368421,264.2999,141.07587)"
         d="m 95.892857,32.540752 c 0,1.873824 -1.519034,3.392857 -3.392857,3.392857 -1.873823,0 -3.392857,-1.519033 -3.392857,-3.392857 0,-1.873823 1.519034,-3.392857 3.392857,-3.392857 1.873823,0 3.392857,1.519034 3.392857,3.392857 z"
         sodipodi:ry="3.3928571"
         sodipodi:rx="3.3928571"
         sodipodi:cy="32.540752"
         sodipodi:cx="92.5"
         id="path3811"
         style="fill:#1a1a1a;fill-opacity:1;stroke:none"
         sodipodi:type="arc" />
      <path
         sodipodi:nodetypes="cc"
         inkscape:connector-curvature="0"
         id="path3813"
         d="m 336.23126,163.75862 c 1.72625,-0.0395 1.97904,0.81023 1.94957,1.83036"
         style="fill:none;stroke:#f9f9f9;stroke-width:1" />
      <path
         style="fill:none;stroke:#f9f9f9;stroke-width:1"
         d="m 325.29839,121.38446 c 3.31165,-0.10053 3.79661,2.06071 3.74007,4.65525"
         id="path3815"
         inkscape:connector-curvature="0"
         sodipodi:nodetypes="cc" />
      <path
         inkscape:connector-curvature="0"
         id="path3975"
         d="m 362.6875,146.8125 a 5.0005,5.0005 0 0 0 -3.96875,2.4375 l -15.5625,25.53125 -3.09375,-4.3125 a 5.0005,5.0005 0 1 0 -8.125,5.8125 l 7.5,10.5 a 5.0005,5.0005 0 0 0 8.34375,-0.3125 l 19.5,-32 a 5.0005,5.0005 0 0 0 -4.59375,-7.65625 z"
         style="font-size:medium;font-style:normal;font-variant:normal;font-weight:normal;font-stretch:normal;text-indent:0;text-align:start;text-decoration:none;line-height:normal;letter-spacing:normal;word-spacing:normal;text-transform:none;direction:ltr;block-progression:tb;writing-mode:lr-tb;text-anchor:start;baseline-shift:baseline;color:#000000;fill:#1a1a1a;fill-opacity:1;stroke:#1a1a1a;stroke-width:1;stroke-miterlimit:4;stroke-dasharray:none;marker:none;visibility:visible;display:inline;overflow:visible;enable-background:accumulate;font-family:Sans;-inkscape-font-specification:Sans" />
      <path
         style="font-size:medium;font-style:normal;font-variant:normal;font-weight:normal;font-stretch:normal;text-indent:0;text-align:start;text-decoration:none;line-height:normal;letter-spacing:normal;word-spacing:normal;text-transform:none;direction:ltr;block-progression:tb;writing-mode:lr-tb;text-anchor:start;baseline-shift:baseline;color:#000000;fill:#00b400;fill-opacity:1;stroke:#1a1a1a;stroke-width:1;stroke-miterlimit:4;stroke-dasharray:none;marker:none;visibility:visible;display:inline;overflow:visible;enable-background:accumulate;font-family:Sans;-inkscape-font-specification:Sans"
         d="m 364.6875,144.8125 a 5.0005,5.0005 0 0 0 -3.96875,2.4375 l -15.5625,25.53125 -3.09375,-4.3125 a 5.0005,5.0005 0 1 0 -8.125,5.8125 l 7.5,10.5 a 5.0005,5.0005 0 0 0 8.34375,-0.3125 l 19.5,-32 a 5.0005,5.0005 0 0 0 -4.59375,-7.65625 z"
         id="path3825"
         inkscape:connector-curvature="0" />
      <path
         style="font-size:medium;font-style:normal;font-variant:normal;font-weight:normal;font-stretch:normal;text-indent:0;text-align:start;text-decoration:none;line-height:normal;letter-spacing:normal;word-spacing:normal;text-transform:none;direction:ltr;block-progression:tb;writing-mode:lr-tb;text-anchor:start;baseline-shift:baseline;color:#000000;fill:#1a1a1a;fill-opacity:1;stroke:#1a1a1a;stroke-width:1;stroke-miterlimit:4;stroke-dasharray:none;marker:none;visibility:visible;display:inline;overflow:visible;enable-background:accumulate;font-family:Sans;-inkscape-font-specification:Sans"
         d="m 138.4375,145.0625 a 5.0005,5.0005 0 0 0 -3.46875,8.59375 l 5.59375,5.59375 -5.59375,5.5625 a 5.0050024,5.0050024 0 1 0 7.0625,7.09375 l 5.59375,-5.59375 5.59375,5.59375 a 5.0050024,5.0050024 0 1 0 7.0625,-7.09375 l -5.59375,-5.5625 5.59375,-5.59375 a 5.0005,5.0005 0 0 0 -3.625,-8.59375 5.0005,5.0005 0 0 0 -3.4375,1.5 l -5.59375,5.59375 -5.59375,-5.59375 a 5.0005,5.0005 0 0 0 -3.59375,-1.5 z"
         id="path3973"
         inkscape:connector-curvature="0" />
      <path
         inkscape:connector-curvature="0"
         id="path3831"
         d="m 140.4375,145.0625 a 5.0005,5.0005 0 0 0 -3.46875,8.59375 l 5.59375,5.59375 -5.59375,5.5625 a 5.0050024,5.0050024 0 1 0 7.0625,7.09375 l 5.59375,-5.59375 5.59375,5.59375 a 5.0050024,5.0050024 0 1 0 7.0625,-7.09375 l -5.59375,-5.5625 5.59375,-5.59375 a 5.0005,5.0005 0 0 0 -3.625,-8.59375 5.0005,5.0005 0 0 0 -3.4375,1.5 l -5.59375,5.59375 -5.59375,-5.59375 a 5.0005,5.0005 0 0 0 -3.59375,-1.5 z"
         style="font-size:medium;font-style:normal;font-variant:normal;font-weight:normal;font-stretch:normal;text-indent:0;text-align:start;text-decoration:none;line-height:normal;letter-spacing:normal;word-spacing:normal;text-transform:none;direction:ltr;block-progression:tb;writing-mode:lr-tb;text-anchor:start;baseline-shift:baseline;color:#000000;fill:#d40000;fill-opacity:1;stroke:#1a1a1a;stroke-width:1;stroke-miterlimit:4;stroke-dasharray:none;marker:none;visibility:visible;display:inline;overflow:visible;enable-background:accumulate;font-family:Sans;-inkscape-font-specification:Sans" />
      <path
         inkscape:connector-curvature="0"
         style="font-size:medium;font-style:normal;font-variant:normal;font-weight:normal;font-stretch:normal;text-indent:0;text-align:start;text-decoration:none;line-height:normal;letter-spacing:normal;word-spacing:normal;text-transform:none;direction:ltr;block-progression:tb;writing-mode:lr-tb;text-anchor:start;baseline-shift:baseline;color:#000000;fill:#1a1a1a;fill-opacity:0.79607843;stroke:#1a1a1a;stroke-width:1;stroke-miterlimit:4;stroke-dasharray:none;marker:none;visibility:visible;display:inline;overflow:visible;enable-background:accumulate;font-family:Sans;-inkscape-font-specification:Sans"
         d="m 172.87481,62.218724 c -9.99386,0.174985 -18.74711,1.424315 -24.90625,3.4375 a 5.0103896,5.0103896 0 1 0 3.09375,9.53125 c 9.02732,-2.950683 31.69145,-4.464356 51.9375,-0.0625 10.12303,2.200928 19.72962,5.83091 27.0625,11 1.88414,1.328169 3.61821,2.731287 5.1875,4.25 l -5.40625,3.90625 a 5.0005,5.0005 0 0 0 0.4375,8.374996 l 20.6875,11.84375 a 5.0005,5.0005 0 0 0 7.46875,-4.53125 l -1.0625,-25.999996 a 5.0005,5.0005 0 0 0 -5.34375,-4.78125 5.0005,5.0005 0 0 0 -2.5625,0.9375 l -6.03125,4.375 c -2.30979,-2.436139 -4.86673,-4.618142 -7.625,-6.5625 -8.86542,-6.249412 -19.64846,-10.193663 -30.6875,-12.59375 -11.03904,-2.400087 -22.25614,-3.299985 -32.25,-3.125 z"
         id="path3977" />
      <path
         id="path3817"
         d="m 174.87481,60.218724 c -9.99386,0.174985 -18.74711,1.424315 -24.90625,3.4375 a 5.0103896,5.0103896 0 1 0 3.09375,9.53125 c 9.02732,-2.950683 31.69145,-4.464356 51.9375,-0.0625 10.12303,2.200928 19.72962,5.83091 27.0625,11 1.88414,1.328169 3.61821,2.731287 5.1875,4.25 l -5.40625,3.90625 a 5.0005,5.0005 0 0 0 0.4375,8.374996 l 20.6875,11.84375 a 5.0005,5.0005 0 0 0 7.46875,-4.53125 l -1.0625,-25.999996 a 5.0005,5.0005 0 0 0 -5.34375,-4.78125 5.0005,5.0005 0 0 0 -2.5625,0.9375 l -6.03125,4.375 c -2.30979,-2.436139 -4.86673,-4.618142 -7.625,-6.5625 -8.86542,-6.249412 -19.64846,-10.193663 -30.6875,-12.59375 -11.03904,-2.400087 -22.25614,-3.299985 -32.25,-3.125 z"
         style="font-size:medium;font-style:normal;font-variant:normal;font-weight:normal;font-stretch:normal;text-indent:0;text-align:start;text-decoration:none;line-height:normal;letter-spacing:normal;word-spacing:normal;text-transform:none;direction:ltr;block-progression:tb;writing-mode:lr-tb;text-anchor:start;baseline-shift:baseline;color:#000000;fill:#2099c5;fill-opacity:1;stroke:#1a1a1a;stroke-width:1;stroke-miterlimit:4;stroke-dasharray:none;marker:none;visibility:visible;display:inline;overflow:visible;enable-background:accumulate;font-family:Sans;-inkscape-font-specification:Sans"
         inkscape:connector-curvature="0" />
    </g>
    <g
       id="g3983"
       transform="translate(6.8886743,-8)">
      <text
         xml:space="preserve"
         style="font-size:30px;font-style:normal;font-variant:normal;font-weight:bold;font-stretch:normal;text-align:start;text-anchor:start;fill:#1a1a1a;fill-opacity:0.79607843;stroke:#1a1a1a;stroke-width:0.5;stroke-linecap:round;stroke-linejoin:round;stroke-miterlimit:4;stroke-opacity:1;stroke-dasharray:none;font-family:Monospace;-inkscape-font-specification:Sans Bold"
         x="87.881989"
         y="49.862232"
         id="text3979"><tspan
           sodipodi:role="line"
           id="tspan3981"
           x="87.881989"
           y="49.862232"
           style="font-style:normal;font-variant:normal;font-weight:bold;font-stretch:normal;fill:#1a1a1a;fill-opacity:0.79607843;stroke:#1a1a1a;stroke-width:0.5;stroke-miterlimit:4;stroke-dasharray:none;font-family:Latin Modern Sans Quotation;-inkscape-font-specification:Latin Modern Sans Quotation Bold">gira tu celular </tspan></text>
      <text
         id="text3788"
         y="47.862232"
         x="89.881989"
         style="font-size:30px;font-style:normal;font-variant:normal;font-weight:bold;font-stretch:normal;text-align:start;text-anchor:start;fill:#2099c5;fill-opacity:1;stroke:#1a1a1a;stroke-width:0.5;stroke-linecap:round;stroke-linejoin:round;stroke-miterlimit:4;stroke-opacity:1;stroke-dasharray:none;font-family:Monospace;-inkscape-font-specification:Sans Bold"
         xml:space="preserve"><tspan
           style="font-style:normal;font-variant:normal;font-weight:bold;font-stretch:normal;fill:#2099c5;fill-opacity:1;stroke:#1a1a1a;stroke-width:0.5;stroke-miterlimit:4;stroke-dasharray:none;font-family:Latin Modern Sans Quotation;-inkscape-font-specification:Latin Modern Sans Quotation Bold"
           y="47.862232"
           x="89.881989"
           id="tspan3790"
           sodipodi:role="line">gira tu celular </tspan></text>
    </g>
    <rect
       ry="30"
       rx="30"
       y="189.36218"
       x="125.35715"
       height="53"
       width="171"
       id="rect3995"
       style="fill:#1a1a1a;fill-opacity:1;stroke:#1a1a1a;stroke-width:1;stroke-linecap:round;stroke-linejoin:round;stroke-miterlimit:4;stroke-opacity:1;stroke-dasharray:none" />
    <rect
       style="fill:#2099c5;fill-opacity:1;stroke:#1a1a1a;stroke-width:1;stroke-linecap:round;stroke-linejoin:round;stroke-miterlimit:4;stroke-opacity:1;stroke-dasharray:none"
       id="rect3989"
       width="171"
       height="53"
       x="127.35715"
       y="187.36218"
       rx="30"
       ry="30" />
    <text
       xml:space="preserve"
       style="font-size:30px;font-style:normal;font-variant:normal;font-weight:bold;font-stretch:normal;text-align:start;text-anchor:start;fill:#ffffff;fill-opacity:1;stroke:#1a1a1a;stroke-width:1;stroke-linecap:round;stroke-linejoin:round;stroke-miterlimit:4;stroke-opacity:1;stroke-dasharray:none;font-family:Latin Modern Sans Quotation;-inkscape-font-specification:Latin Modern Sans Quotation Bold"
       x="188.33098"
       y="224.12218"
       id="text3991"><tspan
         sodipodi:role="line"
         id="tspan3993"
         x="188.33098"
         y="224.12218">ok!</tspan></text>
  </g>
  <g
     transform="translate(0,-0.93361008)"
     id="g4016"
     inkscape:groupmode="layer"
     inkscape:label="Layer 1 copy"
     style="display:inline">
    <rect
       ry="30"
       rx="30"
       y="0.93361008"
       x="0"
       height="252.28572"
       width="425.71429"
       id="rect4018"
       style="fill:#cfd438;fill-opacity:0.79487179;stroke:none" />
    <g
       id="g4020" />
    <g
       transform="translate(-13.955151,-8)"
       id="g4022">
      <g
         style="stroke:#1a1a1a"
         id="g4024"
         transform="translate(55,15)">
        <rect
           ry="8"
           rx="8"
           y="50.612183"
           x="28.571428"
           height="104.82143"
           width="59.686787"
           id="rect4026"
           style="fill:#ffffff;fill-opacity:1;stroke:#1a1a1a" />
        <rect
           style="fill:#1a1a1a;fill-opacity:1;stroke:#1a1a1a"
           id="rect4028"
           width="50.635384"
           height="77.14286"
           x="33.09713"
           y="61.862183"
           rx="8"
           ry="8" />
        <rect
           ry="3.7499988"
           rx="3.7499988"
           y="141.68361"
           x="51.456146"
           height="10.535716"
           width="13.917355"
           id="rect4030"
           style="fill:#cccccc;fill-opacity:1;stroke:#1a1a1a" />
        <rect
           ry="5.8928571"
           rx="8"
           y="53.647896"
           x="47.367027"
           height="5.8928571"
           width="22.095589"
           id="rect4032"
           style="fill:#cccccc;fill-opacity:1;stroke:#1a1a1a" />
        <path
           transform="matrix(0.78483316,0,0,0.7368421,7.8307417,33.063356)"
           d="m 95.892857,32.540752 c 0,1.873824 -1.519034,3.392857 -3.392857,3.392857 -1.873823,0 -3.392857,-1.519033 -3.392857,-3.392857 0,-1.873823 1.519034,-3.392857 3.392857,-3.392857 1.873823,0 3.392857,1.519034 3.392857,3.392857 z"
           sodipodi:ry="3.3928571"
           sodipodi:rx="3.3928571"
           sodipodi:cy="32.540752"
           sodipodi:cx="92.5"
           id="path4034"
           style="fill:#1a1a1a;fill-opacity:1;stroke:#1a1a1a"
           sodipodi:type="arc" />
        <path
           sodipodi:nodetypes="cc"
           inkscape:connector-curvature="0"
           id="path4036"
           d="m 79.762104,55.746108 c 1.726247,-0.03953 1.979043,0.810231 1.949571,1.830358"
           style="fill:none;stroke:#ffffff;stroke-width:1" />
        <path
           style="fill:none;stroke:#ffffff;stroke-width:1"
           d="m 77.730219,64.941285 c 3.311647,-0.100538 3.796611,2.060704 3.740071,4.655247"
           id="path4038"
           inkscape:connector-curvature="0"
           sodipodi:nodetypes="cc" />
      </g>
      <rect
         transform="matrix(0,1,-1,0,0,0)"
         style="fill:#ffffff;fill-opacity:1;stroke:#1a1a1a"
         id="rect4040"
         width="59.686787"
         height="104.82143"
         x="114.1795"
         y="-343.32553"
         rx="8"
         ry="8" />
      <rect
         transform="matrix(0,1,-1,0,0,0)"
         ry="8"
         rx="8"
         y="-332.07553"
         x="118.7052"
         height="77.14286"
         width="50.635384"
         id="rect4042"
         style="fill:#1a1a1a;fill-opacity:1;stroke:none" />
      <rect
         transform="matrix(0,1,-1,0,0,0)"
         style="fill:#cccccc;fill-opacity:1;stroke:#1a1a1a"
         id="rect4044"
         width="13.917355"
         height="10.535716"
         x="137.06421"
         y="-252.2541"
         rx="3.7499988"
         ry="3.7499988" />
      <rect
         transform="matrix(0,1,-1,0,0,0)"
         style="fill:#cccccc;fill-opacity:1;stroke:#1a1a1a"
         id="rect4046"
         width="22.095589"
         height="5.8928571"
         x="132.9751"
         y="-340.28983"
         rx="8"
         ry="5.8928571" />
      <path
         sodipodi:type="arc"
         style="fill:#1a1a1a;fill-opacity:1;stroke:none"
         id="path4048"
         sodipodi:cx="92.5"
         sodipodi:cy="32.540752"
         sodipodi:rx="3.3928571"
         sodipodi:ry="3.3928571"
         d="m 95.892857,32.540752 c 0,1.873824 -1.519034,3.392857 -3.392857,3.392857 -1.873823,0 -3.392857,-1.519033 -3.392857,-3.392857 0,-1.873823 1.519034,-3.392857 3.392857,-3.392857 1.873823,0 3.392857,1.519034 3.392857,3.392857 z"
         transform="matrix(0.78483316,0,0,0.7368421,264.2999,141.07587)" />
      <path
         style="fill:none;stroke:#f9f9f9;stroke-width:1"
         d="m 336.23126,163.75862 c 1.72625,-0.0395 1.97904,0.81023 1.94957,1.83036"
         id="path4050"
         inkscape:connector-curvature="0"
         sodipodi:nodetypes="cc" />
      <path
         sodipodi:nodetypes="cc"
         inkscape:connector-curvature="0"
         id="path4052"
         d="m 325.29839,121.38446 c 3.31165,-0.10053 3.79661,2.06071 3.74007,4.65525"
         style="fill:none;stroke:#f9f9f9;stroke-width:1" />
      <path
         style="font-size:medium;font-style:normal;font-variant:normal;font-weight:normal;font-stretch:normal;text-indent:0;text-align:start;text-decoration:none;line-height:normal;letter-spacing:normal;word-spacing:normal;text-transform:none;direction:ltr;block-progression:tb;writing-mode:lr-tb;text-anchor:start;baseline-shift:baseline;color:#000000;fill:#1a1a1a;fill-opacity:1;stroke:#1a1a1a;stroke-width:1;stroke-miterlimit:4;stroke-dasharray:none;marker:none;visibility:visible;display:inline;overflow:visible;enable-background:accumulate;font-family:Sans;-inkscape-font-specification:Sans"
         d="m 362.6875,146.8125 a 5.0005,5.0005 0 0 0 -3.96875,2.4375 l -15.5625,25.53125 -3.09375,-4.3125 a 5.0005,5.0005 0 1 0 -8.125,5.8125 l 7.5,10.5 a 5.0005,5.0005 0 0 0 8.34375,-0.3125 l 19.5,-32 a 5.0005,5.0005 0 0 0 -4.59375,-7.65625 z"
         id="path4054"
         inkscape:connector-curvature="0" />
      <path
         inkscape:connector-curvature="0"
         id="path4056"
         d="m 364.6875,144.8125 a 5.0005,5.0005 0 0 0 -3.96875,2.4375 l -15.5625,25.53125 -3.09375,-4.3125 a 5.0005,5.0005 0 1 0 -8.125,5.8125 l 7.5,10.5 a 5.0005,5.0005 0 0 0 8.34375,-0.3125 l 19.5,-32 a 5.0005,5.0005 0 0 0 -4.59375,-7.65625 z"
         style="font-size:medium;font-style:normal;font-variant:normal;font-weight:normal;font-stretch:normal;text-indent:0;text-align:start;text-decoration:none;line-height:normal;letter-spacing:normal;word-spacing:normal;text-transform:none;direction:ltr;block-progression:tb;writing-mode:lr-tb;text-anchor:start;baseline-shift:baseline;color:#000000;fill:#00b400;fill-opacity:1;stroke:#1a1a1a;stroke-width:1;stroke-miterlimit:4;stroke-dasharray:none;marker:none;visibility:visible;display:inline;overflow:visible;enable-background:accumulate;font-family:Sans;-inkscape-font-specification:Sans" />
      <path
         inkscape:connector-curvature="0"
         id="path4058"
         d="m 138.4375,145.0625 a 5.0005,5.0005 0 0 0 -3.46875,8.59375 l 5.59375,5.59375 -5.59375,5.5625 a 5.0050024,5.0050024 0 1 0 7.0625,7.09375 l 5.59375,-5.59375 5.59375,5.59375 a 5.0050024,5.0050024 0 1 0 7.0625,-7.09375 l -5.59375,-5.5625 5.59375,-5.59375 a 5.0005,5.0005 0 0 0 -3.625,-8.59375 5.0005,5.0005 0 0 0 -3.4375,1.5 l -5.59375,5.59375 -5.59375,-5.59375 a 5.0005,5.0005 0 0 0 -3.59375,-1.5 z"
         style="font-size:medium;font-style:normal;font-variant:normal;font-weight:normal;font-stretch:normal;text-indent:0;text-align:start;text-decoration:none;line-height:normal;letter-spacing:normal;word-spacing:normal;text-transform:none;direction:ltr;block-progression:tb;writing-mode:lr-tb;text-anchor:start;baseline-shift:baseline;color:#000000;fill:#1a1a1a;fill-opacity:1;stroke:#1a1a1a;stroke-width:1;stroke-miterlimit:4;stroke-dasharray:none;marker:none;visibility:visible;display:inline;overflow:visible;enable-background:accumulate;font-family:Sans;-inkscape-font-specification:Sans" />
      <path
         style="font-size:medium;font-style:normal;font-variant:normal;font-weight:normal;font-stretch:normal;text-indent:0;text-align:start;text-decoration:none;line-height:normal;letter-spacing:normal;word-spacing:normal;text-transform:none;direction:ltr;block-progression:tb;writing-mode:lr-tb;text-anchor:start;baseline-shift:baseline;color:#000000;fill:#d40000;fill-opacity:1;stroke:#1a1a1a;stroke-width:1;stroke-miterlimit:4;stroke-dasharray:none;marker:none;visibility:visible;display:inline;overflow:visible;enable-background:accumulate;font-family:Sans;-inkscape-font-specification:Sans"
         d="m 140.4375,145.0625 a 5.0005,5.0005 0 0 0 -3.46875,8.59375 l 5.59375,5.59375 -5.59375,5.5625 a 5.0050024,5.0050024 0 1 0 7.0625,7.09375 l 5.59375,-5.59375 5.59375,5.59375 a 5.0050024,5.0050024 0 1 0 7.0625,-7.09375 l -5.59375,-5.5625 5.59375,-5.59375 a 5.0005,5.0005 0 0 0 -3.625,-8.59375 5.0005,5.0005 0 0 0 -3.4375,1.5 l -5.59375,5.59375 -5.59375,-5.59375 a 5.0005,5.0005 0 0 0 -3.59375,-1.5 z"
         id="path4060"
         inkscape:connector-curvature="0" />
      <path
         id="path4062"
         d="m 172.87481,62.218724 c -9.99386,0.174985 -18.74711,1.424315 -24.90625,3.4375 a 5.0103896,5.0103896 0 1 0 3.09375,9.53125 c 9.02732,-2.950683 31.69145,-4.464356 51.9375,-0.0625 10.12303,2.200928 19.72962,5.83091 27.0625,11 1.88414,1.328169 3.61821,2.731287 5.1875,4.25 l -5.40625,3.90625 a 5.0005,5.0005 0 0 0 0.4375,8.374996 l 20.6875,11.84375 a 5.0005,5.0005 0 0 0 7.46875,-4.53125 l -1.0625,-25.999996 a 5.0005,5.0005 0 0 0 -5.34375,-4.78125 5.0005,5.0005 0 0 0 -2.5625,0.9375 l -6.03125,4.375 c -2.30979,-2.436139 -4.86673,-4.618142 -7.625,-6.5625 -8.86542,-6.249412 -19.64846,-10.193663 -30.6875,-12.59375 -11.03904,-2.400087 -22.25614,-3.299985 -32.25,-3.125 z"
         style="font-size:medium;font-style:normal;font-variant:normal;font-weight:normal;font-stretch:normal;text-indent:0;text-align:start;text-decoration:none;line-height:normal;letter-spacing:normal;word-spacing:normal;text-transform:none;direction:ltr;block-progression:tb;writing-mode:lr-tb;text-anchor:start;baseline-shift:baseline;color:#000000;fill:#1a1a1a;fill-opacity:0.79607843;stroke:#1a1a1a;stroke-width:1;stroke-miterlimit:4;stroke-dasharray:none;marker:none;visibility:visible;display:inline;overflow:visible;enable-background:accumulate;font-family:Sans;-inkscape-font-specification:Sans"
         inkscape:connector-curvature="0" />
      <path
         inkscape:connector-curvature="0"
         style="font-size:medium;font-style:normal;font-variant:normal;font-weight:normal;font-stretch:normal;text-indent:0;text-align:start;text-decoration:none;line-height:normal;letter-spacing:normal;word-spacing:normal;text-transform:none;direction:ltr;block-progression:tb;writing-mode:lr-tb;text-anchor:start;baseline-shift:baseline;color:#000000;fill:#2099c5;fill-opacity:1;stroke:#1a1a1a;stroke-width:1;stroke-miterlimit:4;stroke-dasharray:none;marker:none;visibility:visible;display:inline;overflow:visible;enable-background:accumulate;font-family:Sans;-inkscape-font-specification:Sans"
         d="m 174.87481,60.218724 c -9.99386,0.174985 -18.74711,1.424315 -24.90625,3.4375 a 5.0103896,5.0103896 0 1 0 3.09375,9.53125 c 9.02732,-2.950683 31.69145,-4.464356 51.9375,-0.0625 10.12303,2.200928 19.72962,5.83091 27.0625,11 1.88414,1.328169 3.61821,2.731287 5.1875,4.25 l -5.40625,3.90625 a 5.0005,5.0005 0 0 0 0.4375,8.374996 l 20.6875,11.84375 a 5.0005,5.0005 0 0 0 7.46875,-4.53125 l -1.0625,-25.999996 a 5.0005,5.0005 0 0 0 -5.34375,-4.78125 5.0005,5.0005 0 0 0 -2.5625,0.9375 l -6.03125,4.375 c -2.30979,-2.436139 -4.86673,-4.618142 -7.625,-6.5625 -8.86542,-6.249412 -19.64846,-10.193663 -30.6875,-12.59375 -11.03904,-2.400087 -22.25614,-3.299985 -32.25,-3.125 z"
         id="path4064" />
    </g>
    <g
       transform="translate(6.8886743,-8)"
       id="g4066">
      <text
         id="text4068"
         y="49.862232"
         x="87.881989"
         style="font-size:30px;font-style:normal;font-variant:normal;font-weight:bold;font-stretch:normal;text-align:start;text-anchor:start;fill:#1a1a1a;fill-opacity:0.79607843;stroke:#1a1a1a;stroke-width:0.5;stroke-linecap:round;stroke-linejoin:round;stroke-miterlimit:4;stroke-opacity:1;stroke-dasharray:none;font-family:Monospace;-inkscape-font-specification:Sans Bold"
         xml:space="preserve"><tspan
           style="font-style:normal;font-variant:normal;font-weight:bold;font-stretch:normal;fill:#1a1a1a;fill-opacity:0.79607843;stroke:#1a1a1a;stroke-width:0.5;stroke-miterlimit:4;stroke-dasharray:none;font-family:Latin Modern Sans Quotation;-inkscape-font-specification:Latin Modern Sans Quotation Bold"
           y="49.862232"
           x="87.881989"
           id="tspan4070"
           sodipodi:role="line">gira tu celular </tspan></text>
      <text
         xml:space="preserve"
         style="font-size:30px;font-style:normal;font-variant:normal;font-weight:bold;font-stretch:normal;text-align:start;text-anchor:start;fill:#2099c5;fill-opacity:1;stroke:#1a1a1a;stroke-width:0.5;stroke-linecap:round;stroke-linejoin:round;stroke-miterlimit:4;stroke-opacity:1;stroke-dasharray:none;font-family:Monospace;-inkscape-font-specification:Sans Bold"
         x="89.881989"
         y="47.862232"
         id="text4072"><tspan
           sodipodi:role="line"
           id="tspan4074"
           x="89.881989"
           y="47.862232"
           style="font-style:normal;font-variant:normal;font-weight:bold;font-stretch:normal;fill:#2099c5;fill-opacity:1;stroke:#1a1a1a;stroke-width:0.5;stroke-miterlimit:4;stroke-dasharray:none;font-family:Latin Modern Sans Quotation;-inkscape-font-specification:Latin Modern Sans Quotation Bold">gira tu celular </tspan></text>
    </g>
    <rect
       ry="30"
       rx="30"
       y="187.36218"
       x="127.35715"
       height="53"
       width="171"
       id="rect4078"
       style="fill:#62cef5;fill-opacity:1;stroke:#1a1a1a;stroke-width:1;stroke-linecap:round;stroke-linejoin:round;stroke-miterlimit:4;stroke-opacity:1;stroke-dasharray:none" />
    <text
       id="text4080"
       y="224.12218"
       x="188.33098"
       style="font-size:30px;font-style:normal;font-variant:normal;font-weight:bold;font-stretch:normal;text-align:start;text-anchor:start;fill:#ffff00;fill-opacity:1;stroke:#1a1a1a;stroke-width:1;stroke-linecap:round;stroke-linejoin:round;stroke-miterlimit:4;stroke-opacity:1;stroke-dasharray:none;font-family:Latin Modern Sans Quotation;-inkscape-font-specification:Latin Modern Sans Quotation Bold"
       xml:space="preserve"><tspan
         y="224.12218"
         x="188.33098"
         id="tspan4082"
         sodipodi:role="line">ok!</tspan></text>
  </g>
</svg>
