<?xml version="1.0" encoding="UTF-8" standalone="no"?>
<!-- Created with Inkscape (http://www.inkscape.org/) -->

<svg
   xmlns:dc="http://purl.org/dc/elements/1.1/"
   xmlns:cc="http://creativecommons.org/ns#"
   xmlns:rdf="http://www.w3.org/1999/02/22-rdf-syntax-ns#"
   xmlns:svg="http://www.w3.org/2000/svg"
   xmlns="http://www.w3.org/2000/svg"
   xmlns:sodipodi="http://sodipodi.sourceforge.net/DTD/sodipodi-0.dtd"
   xmlns:inkscape="http://www.inkscape.org/namespaces/inkscape"
   width="31.701315"
   height="79.572243"
   id="svg6147"
   version="1.1"
   inkscape:version="0.48.5 r10040"
   inkscape:export-filename="/home/vg/Project/boa/x-ray/assets/knife.png"
   inkscape:export-xdpi="44.938931"
   inkscape:export-ydpi="44.938931"
   sodipodi:docname="New document 40">
  <defs
     id="defs6149" />
  <sodipodi:namedview
     id="base"
     pagecolor="#ffffff"
     bordercolor="#666666"
     borderopacity="1.0"
     inkscape:pageopacity="0.0"
     inkscape:pageshadow="2"
     inkscape:zoom="1"
     inkscape:cx="5.9005906"
     inkscape:cy="32.027359"
     inkscape:document-units="px"
     inkscape:current-layer="layer1"
     showgrid="false"
     fit-margin-top="0"
     fit-margin-left="0"
     fit-margin-right="0"
     fit-margin-bottom="0"
     inkscape:window-width="1366"
     inkscape:window-height="715"
     inkscape:window-x="0"
     inkscape:window-y="0"
     inkscape:window-maximized="1" />
  <metadata
     id="metadata6152">
    <rdf:RDF>
      <cc:Work
         rdf:about="">
        <dc:format>image/svg+xml</dc:format>
        <dc:type
           rdf:resource="http://purl.org/dc/dcmitype/StillImage" />
        <dc:title></dc:title>
      </cc:Work>
    </rdf:RDF>
  </metadata>
  <g
     inkscape:label="Layer 1"
     inkscape:groupmode="layer"
     id="layer1"
     transform="translate(-131.82144,-15.427763)">
    <path
       style="fill:#808080;fill-opacity:1;stroke:#1a1a1a;stroke-width:1"
       d="m 157.37601,15.94019 c 0.77779,0.0259 1.5796,0.08836 2.4057,0.199391 -7.1371,4.864896 -3.29914,13.684511 -3.76893,14.276352 l -4.29016,5.423418 4.29016,3.509271 c -1.47734,0.558751 -4.20997,3.628905 -4.20997,3.628905 l 2.76655,2.671832 -2.76655,2.671831 2.72646,2.671831 -2.72646,2.671831 c 0,0 2.58296,2.846324 3.88921,3.469393 -0.92696,3.522636 -4.09845,6.101346 -7.93881,6.101346 -4.56945,0 -8.25957,-3.670149 -8.25957,-8.214884 l 0,-24.604774 c 0,-6.059128 6.21548,-14.864229 17.88237,-14.475743 z m -11.38698,12.122936 c -2.1295,0 -3.84912,1.710319 -3.84912,3.828296 0,2.117976 1.71962,3.828295 3.84912,3.828295 2.1295,0 3.84912,-1.710319 3.84912,-3.828295 0,-2.117977 -1.71962,-3.828296 -3.84912,-3.828296 z m 0,19.620015 c -2.1295,0 -3.84912,1.710319 -3.84912,3.828295 0,2.117976 1.71962,3.828296 3.84912,3.828296 2.1295,0 3.84912,-1.71032 3.84912,-3.828296 0,-2.117976 -1.71962,-3.828295 -3.84912,-3.828295 z"
       id="path6275"
       inkscape:connector-curvature="0" />
    <path
       style="fill:#502d16;fill-opacity:1;stroke:#28170b;stroke-width:1"
       d="m 147.66635,57.572904 c -4.56946,0 -8.25957,1.835074 -8.25957,4.107442 l 0,8.932689 c 1.47734,0.558752 4.22708,1.966351 4.22708,3.628906 0,1.049288 -2.7757,1.704006 -2.78366,2.671831 -0.008,0.967825 2.78366,1.63253 2.78366,2.671831 0,1.030603 -2.74356,1.71662 -2.74356,2.671831 0,0.955211 2.74356,1.641229 2.74356,2.671832 0,1.539536 -2.60007,2.846323 -3.90632,3.469392 0.92696,3.522636 4.09845,6.101346 7.93881,6.101346 4.56946,0 8.25957,-3.670148 8.25957,-8.214884 l 0,-24.604774 c 0,-2.272368 -3.69011,-4.107442 -8.25957,-4.107442 z"
       id="rect6262"
       inkscape:connector-curvature="0"
       sodipodi:nodetypes="sscszszscssss" />
    <path
       style="fill:#28170b;fill-opacity:1;stroke:#28170b;stroke-width:1"
       d="m 147.66635,57.572904 c -4.56946,0 -8.25957,1.835074 -8.25957,4.107442 l 0,7.776225 16.51914,0 0,-7.776225 c 0,-2.272368 -3.69011,-4.107442 -8.25957,-4.107442 z"
       id="path6285"
       inkscape:connector-curvature="0" />
    <path
       style="fill:#b3b3b3;fill-opacity:1;stroke:none"
       d="m 157.32925,16.578238 c -11.33529,-0.377444 -17.20076,8.212547 -17.20076,13.837693 l 0,24.604773 c 0,1.96639 0.81598,3.715649 2.04485,5.064516 -0.55362,-1.15611 -0.92219,-2.424868 -0.92219,-3.788418 l 0,-24.604773 c 0,-6.186114 5.97979,-14.587168 16.92009,-15.034035 -0.27568,-0.01854 -0.57194,-0.07082 -0.84199,-0.07976 z"
       id="path6296"
       inkscape:connector-curvature="0" />
    <rect
       style="fill:#502d16;fill-opacity:1;stroke:#28170b;stroke-width:1"
       id="rect6264"
       width="30.701315"
       height="9.1149893"
       x="132.32144"
       y="56.67923"
       rx="1.9642878"
       ry="1.9642879" />
  </g>
</svg>
