<?xml version="1.0" encoding="UTF-8" standalone="no"?>
<!-- Created with Inkscape (http://www.inkscape.org/) -->

<svg
   xmlns:dc="http://purl.org/dc/elements/1.1/"
   xmlns:cc="http://creativecommons.org/ns#"
   xmlns:rdf="http://www.w3.org/1999/02/22-rdf-syntax-ns#"
   xmlns:svg="http://www.w3.org/2000/svg"
   xmlns="http://www.w3.org/2000/svg"
   xmlns:sodipodi="http://sodipodi.sourceforge.net/DTD/sodipodi-0.dtd"
   xmlns:inkscape="http://www.inkscape.org/namespaces/inkscape"
   width="27.434698"
   height="50.651741"
   id="svg5466"
   version="1.1"
   inkscape:version="0.48.5 r10040"
   sodipodi:docname="perfume.svg"
   inkscape:export-filename="/home/vg/Project/boa/x-ray/assets/perfume.png"
   inkscape:export-xdpi="44.420982"
   inkscape:export-ydpi="44.420982">
  <defs
     id="defs5468" />
  <sodipodi:namedview
     id="base"
     pagecolor="#ffffff"
     bordercolor="#666666"
     borderopacity="1.0"
     inkscape:pageopacity="0.0"
     inkscape:pageshadow="2"
     inkscape:zoom="2.8284271"
     inkscape:cx="35.178293"
     inkscape:cy="60.816649"
     inkscape:document-units="px"
     inkscape:current-layer="layer1"
     showgrid="false"
     fit-margin-top="0"
     fit-margin-left="0"
     fit-margin-right="0"
     fit-margin-bottom="0"
     inkscape:window-width="1368"
     inkscape:window-height="715"
     inkscape:window-x="0"
     inkscape:window-y="31"
     inkscape:window-maximized="1" />
  <metadata
     id="metadata5471">
    <rdf:RDF>
      <cc:Work
         rdf:about="">
        <dc:format>image/svg+xml</dc:format>
        <dc:type
           rdf:resource="http://purl.org/dc/dcmitype/StillImage" />
        <dc:title></dc:title>
      </cc:Work>
    </rdf:RDF>
  </metadata>
  <g
     inkscape:label="Layer 1"
     inkscape:groupmode="layer"
     id="layer1"
     transform="translate(-86.642022,-127.75254)">
    <path
       style="color:#000000;fill:#d8b0be;fill-opacity:1;fill-rule:nonzero;stroke:#1a1a1a;stroke-width:2.99999952;stroke-linecap:round;stroke-linejoin:round;stroke-miterlimit:4;stroke-opacity:1;stroke-dasharray:none;marker:none;visibility:visible;display:inline;overflow:visible;enable-background:accumulate"
       d="m 98.206594,142.09546 c -0.49583,0 -0.924199,0.29426 -0.90499,0.64357 0.223779,4.0686 -0.776688,7.30749 -2.056791,10.3531 -4.195167,1.97571 -7.102791,6.30857 -7.102791,11.33247 0,6.88792 5.452935,12.47968 12.203638,12.47968 6.7507,0 12.23106,-5.59176 12.23106,-12.47968 0,-5.01064 -2.89805,-9.32159 -7.07536,-11.30448 -1.28649,-3.46086 -2.07202,-6.92023 -2.11165,-10.38109 -0.004,-0.34982 -0.40915,-0.64357 -0.90499,-0.64357 l -4.278126,0 z"
       id="path6161"
       inkscape:connector-curvature="0" />
    <path
       style="color:#000000;fill:#c85a85;fill-opacity:1;fill-rule:nonzero;stroke:#1a1a1a;stroke-width:2.99999952;stroke-linecap:round;stroke-linejoin:round;stroke-miterlimit:4;stroke-opacity:1;marker:none;visibility:visible;display:inline;overflow:visible;enable-background:accumulate"
       d="m 96.000924,129.25254 8.399546,0 c 0.97234,0 1.90562,0.81065 1.75513,1.7908 l -1.72379,11.22789 c -0.10691,0.69643 -0.5562,1.27242 -1.24706,1.27242 l -5.968101,0 c -0.690873,0 -1.140145,-0.57599 -1.247064,-1.27242 l -1.723789,-11.22789 c -0.150481,-0.98015 0.782788,-1.7908 1.755128,-1.7908 z"
       id="rect5650"
       inkscape:connector-curvature="0"
       sodipodi:nodetypes="sssssssss" />
    <path
       style="color:#000000;fill:#d787a6;fill-opacity:1;fill-rule:nonzero;stroke:#1a1a1a;stroke-width:2.99999952;stroke-linecap:round;stroke-linejoin:round;stroke-miterlimit:4;stroke-opacity:1;stroke-dasharray:none;marker:none;visibility:visible;display:inline;overflow:visible;enable-background:accumulate"
       d="m 100.34566,158.35264 c -4.295996,0 -8.249744,0.69599 -11.490617,1.84677 -0.466362,1.32135 -0.713021,2.73999 -0.713021,4.22519 0,6.88792 5.452935,12.47968 12.203638,12.47968 6.7507,0 12.23106,-5.59176 12.23106,-12.47968 0,-1.48127 -0.24831,-2.9083 -0.71302,-4.22519 -3.24223,-1.15241 -7.21874,-1.84677 -11.51804,-1.84677 z"
       id="path6167"
       inkscape:connector-curvature="0" />
    <path
       style="color:#000000;fill:#c85a85;fill-opacity:1;fill-rule:nonzero;stroke:#1a1a1a;stroke-width:2.99999952;stroke-linecap:round;stroke-linejoin:round;stroke-miterlimit:4;stroke-opacity:1;stroke-dasharray:none;marker:none;visibility:visible;display:inline;overflow:visible;enable-background:accumulate"
       d="m 88.224294,163.02552 c -0.05075,0.46188 -0.08227,0.92338 -0.08227,1.39908 0,6.88792 5.452935,12.47968 12.203636,12.47968 6.7507,0 12.23106,-5.59176 12.23106,-12.47968 0,-0.47444 -0.0317,-0.93858 -0.0823,-1.39908 -3.59107,1.39703 -7.7429,2.21053 -12.14878,2.21053 -4.404667,0 -8.530963,-0.81422 -12.121364,-2.21053 z"
       id="path6174"
       inkscape:connector-curvature="0" />
    <path
       sodipodi:nodetypes="sssssssss"
       inkscape:connector-curvature="0"
       id="path6184"
       d="m 98.457643,135.87593 3.486127,0 c 0.40356,0 0.7909,0.35128 0.72844,0.77603 l -0.71545,4.86549 c -0.0444,0.30181 -0.23083,0.5514 -0.51756,0.5514 l -2.476986,0 c -0.286738,0 -0.473203,-0.24959 -0.517579,-0.5514 l -0.715436,-4.86549 c -0.06245,-0.42475 0.324887,-0.77603 0.728444,-0.77603 z"
       style="color:#000000;fill:#62253d;fill-opacity:1;fill-rule:nonzero;stroke:none;stroke-width:3;marker:none;visibility:visible;display:inline;overflow:visible;enable-background:accumulate" />
  </g>
</svg>
