<?xml version="1.0" encoding="UTF-8" standalone="no"?>
<!-- Created with Inkscape (http://www.inkscape.org/) -->

<svg
   xmlns:dc="http://purl.org/dc/elements/1.1/"
   xmlns:cc="http://creativecommons.org/ns#"
   xmlns:rdf="http://www.w3.org/1999/02/22-rdf-syntax-ns#"
   xmlns:svg="http://www.w3.org/2000/svg"
   xmlns="http://www.w3.org/2000/svg"
   xmlns:sodipodi="http://sodipodi.sourceforge.net/DTD/sodipodi-0.dtd"
   xmlns:inkscape="http://www.inkscape.org/namespaces/inkscape"
   width="301.28622"
   height="236.51733"
   id="svg3895"
   version="1.1"
   inkscape:version="0.48.5 r10040"
   sodipodi:docname="table.svg"
   inkscape:export-filename="/home/vg/Project/boa/x-ray/assets/table.png"
   inkscape:export-xdpi="90.148224"
   inkscape:export-ydpi="90.148224">
  <defs
     id="defs3897" />
  <sodipodi:namedview
     id="base"
     pagecolor="#ffffff"
     bordercolor="#666666"
     borderopacity="1.0"
     inkscape:pageopacity="0.0"
     inkscape:pageshadow="2"
     inkscape:zoom="1"
     inkscape:cx="-38.476974"
     inkscape:cy="109.41558"
     inkscape:document-units="px"
     inkscape:current-layer="g4563"
     showgrid="false"
     fit-margin-top="0"
     fit-margin-left="0"
     fit-margin-right="0"
     fit-margin-bottom="0"
     inkscape:window-width="1366"
     inkscape:window-height="715"
     inkscape:window-x="0"
     inkscape:window-y="0"
     inkscape:window-maximized="1" />
  <metadata
     id="metadata3900">
    <rdf:RDF>
      <cc:Work
         rdf:about="">
        <dc:format>image/svg+xml</dc:format>
        <dc:type
           rdf:resource="http://purl.org/dc/dcmitype/StillImage" />
        <dc:title></dc:title>
      </cc:Work>
    </rdf:RDF>
  </metadata>
  <g
     inkscape:label="Layer 1"
     inkscape:groupmode="layer"
     id="layer1"
     transform="translate(-388.21378,-149.4819)"
     sodipodi:insensitive="true">
    <path
       sodipodi:nodetypes="sssssssss"
       inkscape:connector-curvature="0"
       id="path4007"
       d="m 519.89622,289.34484 160.88477,0 c 3.50885,0 5.33532,2.81904 4.09523,6.32072 l -28.67986,80.98428 c -1.8343,5.17957 -7.48938,9.3494 -12.67955,9.3494 l -247.32928,0 c -5.19017,0 -11.09376,-5.79883 -6.05753,-9.3494 l 114.87037,-80.98428 c 3.40479,-2.4004 11.387,-6.32072 14.89585,-6.32072 z"
       style="fill:#666666;fill-opacity:1;stroke:none" />
    <rect
       style="fill:#782121;fill-opacity:1;stroke:#1a1a1a;stroke-width:5;stroke-miterlimit:4;stroke-opacity:1;stroke-dasharray:none"
       id="rect3997"
       width="26"
       height="130"
       x="650"
       y="185.36218"
       rx="10"
       ry="10" />
    <path
       inkscape:connector-curvature="0"
       id="path3999"
       d="m 660.57692,185.375 c -4.47461,0 -8.07692,4.46 -8.07692,10 l 0,22 c 0,5.54 3.60231,10 8.07692,10 l 4.84616,0 c 4.47461,0 8.07692,-4.46 8.07692,-10 l 0,-22 c 0,-5.54 -3.60231,-10 -8.07692,-10 l -4.84616,0 z"
       style="fill:#501616;fill-opacity:1;stroke:none" />
    <rect
       ry="10"
       rx="10"
       y="185.36218"
       x="506"
       height="130"
       width="26"
       id="rect3993"
       style="fill:#782121;fill-opacity:1;stroke:#1a1a1a;stroke-width:5;stroke-miterlimit:4;stroke-opacity:1;stroke-dasharray:none" />
    <path
       style="fill:#501616;fill-opacity:1;stroke:none"
       d="m 516.57692,185.375 c -4.47461,0 -8.07692,4.46 -8.07692,10 l 0,22 c 0,5.54 3.60231,10 8.07692,10 l 4.84616,0 c 4.47461,0 8.07692,-4.46 8.07692,-10 l 0,-22 c 0,-5.54 -3.60231,-10 -8.07692,-10 l -4.84616,0 z"
       id="path3995"
       inkscape:connector-curvature="0" />
    <g
       id="g4001"
       transform="translate(0,-32)">
      <rect
         ry="10"
         rx="10"
         y="283.36218"
         x="644"
         height="130"
         width="26"
         id="rect3989"
         style="fill:#782121;fill-opacity:1;stroke:#1a1a1a;stroke-width:5;stroke-miterlimit:4;stroke-opacity:1;stroke-dasharray:none" />
      <path
         style="fill:#501616;fill-opacity:1;stroke:none"
         d="m 654.57692,283.375 c -4.47461,0 -8.07692,4.46 -8.07692,10 l 0,22 c 0,5.54 3.60231,10 8.07692,10 l 4.84616,0 c 4.47461,0 8.07692,-4.46 8.07692,-10 l 0,-22 c 0,-5.54 -3.60231,-10 -8.07692,-10 l -4.84616,0 z"
         id="path3991"
         inkscape:connector-curvature="0" />
      <rect
         style="fill:#782121;fill-opacity:1;stroke:#1a1a1a;stroke-width:5;stroke-miterlimit:4;stroke-opacity:1;stroke-dasharray:none"
         id="rect3985"
         width="26"
         height="130"
         x="425"
         y="283.36218"
         rx="10"
         ry="10" />
      <path
         inkscape:connector-curvature="0"
         id="rect3981"
         d="m 435.57692,283.375 c -4.47461,0 -8.07692,4.46 -8.07692,10 l 0,22 c 0,5.54 3.60231,10 8.07692,10 l 4.84616,0 c 4.47461,0 8.07692,-4.46 8.07692,-10 l 0,-22 c 0,-5.54 -3.60231,-10 -8.07692,-10 l -4.84616,0 z"
         style="fill:#501616;fill-opacity:1;stroke:none" />
    </g>
    <path
       style="fill:#c83737;fill-opacity:1;stroke:#1a1a1a;stroke-width:5;stroke-miterlimit:4;stroke-opacity:1"
       d="m 403,245.375 0,19 c 0,5.54 4.46,10 10,10 l 264,0 c 5.54,0 10,-4.46 10,-10 l 0,-19 c 0,5.54 -4.46,10 -10,10 l -264,0 c -5.54,0 -10,-4.46 -10,-10 z"
       id="rect3952"
       inkscape:connector-curvature="0"
       sodipodi:nodetypes="csssscssc" />
    <path
       style="fill:#d35f5f;fill-opacity:1;stroke:#1a1a1a;stroke-width:5;stroke-miterlimit:4;stroke-opacity:1"
       d="m 508.51056,151.9819 171.72888,0 c 3.74535,0 6.76056,3.01521 6.76056,6.76056 l 0,86.61972 c 0,5.54 -4.46,10 -10,10 l -264,0 c -5.54,0 -14.03354,-6.20235 -10,-10 l 92,-86.61972 c 2.7269,-2.56743 9.76521,-6.76056 13.51056,-6.76056 z"
       id="rect3950"
       inkscape:connector-curvature="0"
       sodipodi:nodetypes="sssssssss" />
  </g>
  <g
     transform="translate(-388.21378,-149.4819)"
     id="g4563"
     inkscape:groupmode="layer"
     inkscape:label="interact"
     style="display:inline">
    <path
       style="fill:#eac87b;fill-opacity:1;stroke:none"
       d="m 519.89622,289.34484 160.88477,0 c 3.50885,0 5.33532,2.81904 4.09523,6.32072 l -28.67986,80.98428 c -1.8343,5.17957 -7.48938,9.3494 -12.67955,9.3494 l -247.32928,0 c -5.19017,0 -11.09376,-5.79883 -6.05753,-9.3494 l 114.87037,-80.98428 c 3.40479,-2.4004 11.387,-6.32072 14.89585,-6.32072 z"
       id="path4565"
       inkscape:connector-curvature="0"
       sodipodi:nodetypes="sssssssss" />
    <rect
       ry="10"
       rx="10"
       y="185.36218"
       x="650"
       height="130"
       width="26"
       id="rect4567"
       style="fill:#d35f5f;fill-opacity:1;stroke:#1a1a1a;stroke-width:5;stroke-miterlimit:4;stroke-opacity:1;stroke-dasharray:none" />
    <path
       style="fill:#501616;fill-opacity:1;stroke:none"
       d="m 660.57692,185.375 c -4.47461,0 -8.07692,4.46 -8.07692,10 l 0,22 c 0,5.54 3.60231,10 8.07692,10 l 4.84616,0 c 4.47461,0 8.07692,-4.46 8.07692,-10 l 0,-22 c 0,-5.54 -3.60231,-10 -8.07692,-10 l -4.84616,0 z"
       id="path4569"
       inkscape:connector-curvature="0" />
    <rect
       style="fill:#d35f5f;fill-opacity:1;stroke:#1a1a1a;stroke-width:5;stroke-miterlimit:4;stroke-opacity:1;stroke-dasharray:none"
       id="rect4571"
       width="26"
       height="130"
       x="506"
       y="185.36218"
       rx="10"
       ry="10" />
    <path
       inkscape:connector-curvature="0"
       id="path4573"
       d="m 516.57692,185.375 c -4.47461,0 -8.07692,4.46 -8.07692,10 l 0,22 c 0,5.54 3.60231,10 8.07692,10 l 4.84616,0 c 4.47461,0 8.07692,-4.46 8.07692,-10 l 0,-22 c 0,-5.54 -3.60231,-10 -8.07692,-10 l -4.84616,0 z"
       style="fill:#501616;fill-opacity:1;stroke:none" />
    <rect
       ry="10"
       rx="10"
       y="251.36218"
       x="644"
       height="130"
       width="26"
       id="rect4577"
       style="fill:#d35f5f;fill-opacity:1;stroke:#1a1a1a;stroke-width:5;stroke-miterlimit:4;stroke-opacity:1;stroke-dasharray:none" />
    <path
       style="fill:#c83737;fill-opacity:1;stroke:none"
       d="m 654.57692,251.375 c -4.47461,0 -8.07692,4.46 -8.07692,10 l 0,22 c 0,5.54 3.60231,10 8.07692,10 l 4.84616,0 c 4.47461,0 8.07692,-4.46 8.07692,-10 l 0,-22 c 0,-5.54 -3.60231,-10 -8.07692,-10 l -4.84616,0 z"
       id="path4579"
       inkscape:connector-curvature="0" />
    <rect
       style="fill:#d35f5f;fill-opacity:1;stroke:#1a1a1a;stroke-width:5;stroke-miterlimit:4;stroke-opacity:1;stroke-dasharray:none"
       id="rect4581"
       width="26"
       height="130"
       x="425"
       y="251.36218"
       rx="10"
       ry="10" />
    <path
       inkscape:connector-curvature="0"
       id="path4583"
       d="m 435.57692,251.375 c -4.47461,0 -8.07692,4.46 -8.07692,10 l 0,22 c 0,5.54 3.60231,10 8.07692,10 l 4.84616,0 c 4.47461,0 8.07692,-4.46 8.07692,-10 l 0,-22 c 0,-5.54 -3.60231,-10 -8.07692,-10 l -4.84616,0 z"
       style="fill:#c83737;fill-opacity:1;stroke:none" />
    <path
       sodipodi:nodetypes="csssscssc"
       inkscape:connector-curvature="0"
       id="path4585"
       d="m 403,245.375 0,19 c 0,5.54 4.46,10 10,10 l 264,0 c 5.54,0 10,-4.46 10,-10 l 0,-19 c 0,5.54 -4.46,10 -10,10 l -264,0 c -5.54,0 -10,-4.46 -10,-10 z"
       style="fill:#c83737;fill-opacity:1;stroke:#1a1a1a;stroke-width:5;stroke-miterlimit:4;stroke-opacity:1" />
    <path
       sodipodi:nodetypes="sssssssss"
       inkscape:connector-curvature="0"
       id="path4587"
       d="m 508.51056,151.9819 171.72888,0 c 3.74535,0 6.76056,3.01521 6.76056,6.76056 l 0,86.61972 c 0,5.54 -4.46,10 -10,10 l -264,0 c -5.54,0 -14.03354,-6.20235 -10,-10 l 92,-86.61972 c 2.7269,-2.56743 9.76521,-6.76056 13.51056,-6.76056 z"
       style="fill:#782121;fill-opacity:1;stroke:#1a1a1a;stroke-width:5;stroke-miterlimit:4;stroke-opacity:1" />
  </g>
</svg>
