<?xml version="1.0" encoding="UTF-8" standalone="no"?>
<!-- Created with Inkscape (http://www.inkscape.org/) -->

<svg
   xmlns:dc="http://purl.org/dc/elements/1.1/"
   xmlns:cc="http://creativecommons.org/ns#"
   xmlns:rdf="http://www.w3.org/1999/02/22-rdf-syntax-ns#"
   xmlns:svg="http://www.w3.org/2000/svg"
   xmlns="http://www.w3.org/2000/svg"
   xmlns:sodipodi="http://sodipodi.sourceforge.net/DTD/sodipodi-0.dtd"
   xmlns:inkscape="http://www.inkscape.org/namespaces/inkscape"
   width="50"
   height="50"
   id="svg2"
   version="1.1"
   inkscape:version="0.48.5 r10040"
   sodipodi:docname="twin-bag.svg"
   inkscape:export-filename="/home/vg/Project/boa/x-ray/assets/twin-bag.png"
   inkscape:export-xdpi="90"
   inkscape:export-ydpi="90">
  <defs
     id="defs4" />
  <sodipodi:namedview
     id="base"
     pagecolor="#ffffff"
     bordercolor="#666666"
     borderopacity="1.0"
     inkscape:pageopacity="0.0"
     inkscape:pageshadow="2"
     inkscape:zoom="5.6568542"
     inkscape:cx="-9.8088752"
     inkscape:cy="12.418703"
     inkscape:document-units="px"
     inkscape:current-layer="layer1"
     showgrid="false"
     borderlayer="true"
     inkscape:showpageshadow="false"
     inkscape:window-width="1366"
     inkscape:window-height="715"
     inkscape:window-x="0"
     inkscape:window-y="31"
     inkscape:window-maximized="1" />
  <metadata
     id="metadata7">
    <rdf:RDF>
      <cc:Work
         rdf:about="">
        <dc:format>image/svg+xml</dc:format>
        <dc:type
           rdf:resource="http://purl.org/dc/dcmitype/StillImage" />
        <dc:title></dc:title>
      </cc:Work>
    </rdf:RDF>
  </metadata>
  <g
     inkscape:label="Layer 1"
     inkscape:groupmode="layer"
     id="layer1"
     transform="translate(0,-1002.3622)">
    <rect
       style="fill:#ffffff;fill-opacity:0.29224774;stroke:none"
       id="rect3755"
       width="1.9009255"
       height="1.9009255"
       x="32.619026"
       y="1017.331" />
    <rect
       y="1017.0652"
       x="38.933628"
       height="1.9009255"
       width="1.9009255"
       id="rect3757"
       style="fill:#ffffff;fill-opacity:0.29224774;stroke:none" />
    <rect
       style="fill:#ffffff;fill-opacity:0.15789473;stroke:none"
       id="rect3759"
       width="1.9009255"
       height="1.9009255"
       x="42.412918"
       y="1012.0065" />
    <rect
       y="1021.3378"
       x="41.696056"
       height="1.9009255"
       width="1.9009255"
       id="rect3761"
       style="fill:#ffffff;fill-opacity:0.29224774;stroke:none" />
    <rect
       style="fill:#ffffff;fill-opacity:0.29224774;stroke:none"
       id="rect3763"
       width="1.9009255"
       height="1.9009255"
       x="34.764454"
       y="1026.0643" />
    <rect
       y="1011.7723"
       x="34.320793"
       height="1.9009255"
       width="1.9009255"
       id="rect3765"
       style="fill:#ffffff;fill-opacity:0.29224774;stroke:none" />
    <rect
       y="729.41846"
       x="740.00854"
       height="1.9009255"
       width="1.9009255"
       id="rect4735"
       style="fill:#ffffff;fill-opacity:0.29224774;stroke:none"
       transform="matrix(0.70710678,0.70710678,-0.70710678,0.70710678,0,0)" />
    <rect
       style="fill:#ffffff;fill-opacity:0.29224774;stroke:none"
       id="rect4737"
       width="1.9009255"
       height="1.9009255"
       x="746.32318"
       y="729.15271"
       transform="matrix(0.70710678,0.70710678,-0.70710678,0.70710678,0,0)" />
    <rect
       y="724.09399"
       x="749.80249"
       height="1.9009255"
       width="1.9009255"
       id="rect4739"
       style="fill:#ffffff;fill-opacity:0.29224774;stroke:none"
       transform="matrix(0.70710678,0.70710678,-0.70710678,0.70710678,0,0)" />
    <rect
       style="fill:#ffffff;fill-opacity:0.29224774;stroke:none"
       id="rect4741"
       width="1.9009255"
       height="1.9009255"
       x="749.08557"
       y="733.42529"
       transform="matrix(0.70710678,0.70710678,-0.70710678,0.70710678,0,0)" />
    <rect
       y="738.15173"
       x="742.15399"
       height="1.9009255"
       width="1.9009255"
       id="rect4743"
       style="fill:#ffffff;fill-opacity:0.29224774;stroke:none"
       transform="matrix(0.70710678,0.70710678,-0.70710678,0.70710678,0,0)" />
    <rect
       style="fill:#ffffff;fill-opacity:0.29224774;stroke:none"
       id="rect4745"
       width="1.9009255"
       height="1.9009255"
       x="741.71033"
       y="723.85974"
       transform="matrix(0.70710678,0.70710678,-0.70710678,0.70710678,0,0)" />
    <rect
       y="1022.4575"
       x="2.7437646"
       height="1.9009255"
       width="1.9009255"
       id="rect4747"
       style="fill:#ffffff;fill-opacity:0.15789473;stroke:none" />
    <rect
       style="fill:#ffffff;fill-opacity:0.15789473;stroke:none"
       id="rect4749"
       width="1.9009255"
       height="1.9009255"
       x="9.0583668"
       y="1022.1917" />
    <rect
       y="1017.133"
       x="12.537657"
       height="1.9009255"
       width="1.9009255"
       id="rect4751"
       style="fill:#ffffff;fill-opacity:0.29224774;stroke:none" />
    <rect
       style="fill:#ffffff;fill-opacity:0.29224774;stroke:none"
       id="rect4753"
       width="1.9009255"
       height="1.9009255"
       x="11.820795"
       y="1026.4644" />
    <rect
       y="1031.1908"
       x="4.8891926"
       height="1.9009255"
       width="1.9009255"
       id="rect4755"
       style="fill:#ffffff;fill-opacity:0.29224774;stroke:none" />
    <rect
       style="fill:#ffffff;fill-opacity:0.29224774;stroke:none"
       id="rect4757"
       width="1.9009255"
       height="1.9009255"
       x="4.4455318"
       y="1016.8988" />
    <rect
       style="fill:#ffffff;fill-opacity:0.29224774;stroke:none"
       id="rect4759"
       width="1.9009255"
       height="1.9009255"
       x="-28.757494"
       y="1024.9324"
       transform="scale(-1,1)" />
    <rect
       y="1024.6666"
       x="-22.442892"
       height="1.9009255"
       width="1.9009255"
       id="rect4761"
       style="fill:#ffffff;fill-opacity:0.15789473;stroke:none"
       transform="scale(-1,1)" />
    <rect
       style="fill:#ffffff;fill-opacity:0.15789473;stroke:none"
       id="rect4763"
       width="1.9009255"
       height="1.9009255"
       x="-18.963602"
       y="1019.6078"
       transform="scale(-1,1)" />
    <rect
       y="1028.9392"
       x="-19.680464"
       height="1.9009255"
       width="1.9009255"
       id="rect4765"
       style="fill:#ffffff;fill-opacity:0.15789473;stroke:none"
       transform="scale(-1,1)" />
    <rect
       style="fill:#ffffff;fill-opacity:0.29224774;stroke:none"
       id="rect4767"
       width="1.9009255"
       height="1.9009255"
       x="-26.612066"
       y="1033.6656"
       transform="scale(-1,1)" />
    <rect
       y="1019.3737"
       x="-27.055727"
       height="1.9009255"
       width="1.9009255"
       id="rect4769"
       style="fill:#ffffff;fill-opacity:0.15789473;stroke:none"
       transform="scale(-1,1)" />
    <rect
       y="-997.35413"
       x="-316.25732"
       height="1.9009255"
       width="1.9009255"
       id="rect4771"
       style="fill:#ffffff;fill-opacity:0.29224774;stroke:none"
       transform="matrix(-0.96592583,-0.25881905,0.25881905,-0.96592583,0,0)" />
    <rect
       style="fill:#ffffff;fill-opacity:0.29224774;stroke:none"
       id="rect4773"
       width="1.9009255"
       height="1.9009255"
       x="-309.94272"
       y="-997.62"
       transform="matrix(-0.96592583,-0.25881905,0.25881905,-0.96592583,0,0)" />
    <rect
       y="-1002.6787"
       x="-306.46344"
       height="1.9009255"
       width="1.9009255"
       id="rect4775"
       style="fill:#ffffff;fill-opacity:0.29224774;stroke:none"
       transform="matrix(-0.96592583,-0.25881905,0.25881905,-0.96592583,0,0)" />
    <rect
       style="fill:#ffffff;fill-opacity:0.29224774;stroke:none"
       id="rect4777"
       width="1.9009255"
       height="1.9009255"
       x="-307.1803"
       y="-993.34741"
       transform="matrix(-0.96592583,-0.25881905,0.25881905,-0.96592583,0,0)" />
    <rect
       y="-988.62085"
       x="-314.11188"
       height="1.9009255"
       width="1.9009255"
       id="rect4779"
       style="fill:#ffffff;fill-opacity:0.29224774;stroke:none"
       transform="matrix(-0.96592583,-0.25881905,0.25881905,-0.96592583,0,0)" />
    <rect
       style="fill:#ffffff;fill-opacity:0.29224774;stroke:none"
       id="rect4781"
       width="1.9009255"
       height="1.9009255"
       x="-314.55554"
       y="-1002.9128"
       transform="matrix(-0.96592583,-0.25881905,0.25881905,-0.96592583,0,0)" />
    <rect
       transform="scale(-1,1)"
       y="1037.837"
       x="-32.116253"
       height="1.9009255"
       width="1.9009255"
       id="rect4783"
       style="fill:#ffffff;fill-opacity:0.15789473;stroke:none" />
    <rect
       transform="scale(-1,1)"
       style="fill:#ffffff;fill-opacity:0.29224774;stroke:none"
       id="rect4785"
       width="1.9009255"
       height="1.9009255"
       x="-23.039221"
       y="1041.8439" />
    <rect
       transform="scale(-1,1)"
       y="1046.5703"
       x="-29.970823"
       height="1.9009255"
       width="1.9009255"
       id="rect4787"
       style="fill:#ffffff;fill-opacity:0.29224774;stroke:none" />
    <rect
       y="240.08014"
       x="975.8385"
       height="1.9009255"
       width="1.9009255"
       id="rect4795"
       style="fill:#ffffff;fill-opacity:0.29224774;stroke:none"
       transform="matrix(0.25881905,0.96592583,-0.96592583,0.25881905,0,0)" />
    <rect
       style="fill:#ffffff;fill-opacity:0.29224774;stroke:none"
       id="rect4797"
       width="1.9009255"
       height="1.9009255"
       x="982.15314"
       y="239.81433"
       transform="matrix(0.25881905,0.96592583,-0.96592583,0.25881905,0,0)" />
    <rect
       y="234.75562"
       x="985.63239"
       height="1.9009255"
       width="1.9009255"
       id="rect4799"
       style="fill:#ffffff;fill-opacity:0.29224774;stroke:none"
       transform="matrix(0.25881905,0.96592583,-0.96592583,0.25881905,0,0)" />
    <rect
       style="fill:#ffffff;fill-opacity:0.29224774;stroke:none"
       id="rect4801"
       width="1.9009255"
       height="1.9009255"
       x="984.91553"
       y="244.08698"
       transform="matrix(0.25881905,0.96592583,-0.96592583,0.25881905,0,0)" />
    <rect
       y="248.81348"
       x="977.98395"
       height="1.9009255"
       width="1.9009255"
       id="rect4803"
       style="fill:#ffffff;fill-opacity:0.29224774;stroke:none"
       transform="matrix(0.25881905,0.96592583,-0.96592583,0.25881905,0,0)" />
    <rect
       style="fill:#ffffff;fill-opacity:0.29224774;stroke:none"
       id="rect4805"
       width="1.9009255"
       height="1.9009255"
       x="977.54028"
       y="234.52142"
       transform="matrix(0.25881905,0.96592583,-0.96592583,0.25881905,0,0)" />
  </g>
</svg>
