<?xml version="1.0" encoding="UTF-8" standalone="no"?>
<!-- Created with Inkscape (http://www.inkscape.org/) -->

<svg
   xmlns:dc="http://purl.org/dc/elements/1.1/"
   xmlns:cc="http://creativecommons.org/ns#"
   xmlns:rdf="http://www.w3.org/1999/02/22-rdf-syntax-ns#"
   xmlns:svg="http://www.w3.org/2000/svg"
   xmlns="http://www.w3.org/2000/svg"
   xmlns:sodipodi="http://sodipodi.sourceforge.net/DTD/sodipodi-0.dtd"
   xmlns:inkscape="http://www.inkscape.org/namespaces/inkscape"
   width="25.409594"
   height="52.967567"
   id="svg2"
   version="1.1"
   inkscape:version="0.48.5 r10040"
   sodipodi:docname="twin-cota-cola.svg"
   inkscape:export-filename="/home/vg/Project/boa/x-ray/assets/twin-cota-cola.png"
   inkscape:export-xdpi="90.055107"
   inkscape:export-ydpi="90.055107">
  <defs
     id="defs4" />
  <sodipodi:namedview
     id="base"
     pagecolor="#ffffff"
     bordercolor="#666666"
     borderopacity="1.0"
     inkscape:pageopacity="0.0"
     inkscape:pageshadow="2"
     inkscape:zoom="1"
     inkscape:cx="-36.20751"
     inkscape:cy="3.5452686"
     inkscape:document-units="px"
     inkscape:current-layer="layer1"
     showgrid="false"
     fit-margin-top="0"
     fit-margin-left="0"
     fit-margin-right="0"
     fit-margin-bottom="0"
     inkscape:window-width="1366"
     inkscape:window-height="715"
     inkscape:window-x="0"
     inkscape:window-y="0"
     inkscape:window-maximized="1" />
  <metadata
     id="metadata7">
    <rdf:RDF>
      <cc:Work
         rdf:about="">
        <dc:format>image/svg+xml</dc:format>
        <dc:type
           rdf:resource="http://purl.org/dc/dcmitype/StillImage" />
        <dc:title></dc:title>
      </cc:Work>
    </rdf:RDF>
  </metadata>
  <g
     inkscape:label="Layer 1"
     inkscape:groupmode="layer"
     id="layer1"
     transform="translate(-112.76345,-31.029726)"
     style="opacity:0.7">
    <g
       id="g3816"
       transform="matrix(0.46643806,0,0,0.46643806,65.443501,33.843153)">
      <g
         id="g4690"
         transform="translate(-40.083058,21.096349)">
        <path
           sodipodi:nodetypes="ccssssssccccc"
           inkscape:connector-curvature="0"
           style="color:#000000;fill:#e5e5e5;fill-opacity:0.10196078;fill-rule:nonzero;stroke:#ffffff;stroke-width:4.28781509;marker:none;visibility:visible;display:inline;overflow:visible;enable-background:accumulate"
           d="m 154.06545,4.7972994 -7.24558,6.7660936 c -1.89302,1.071698 -3.14331,3.095052 -3.14331,5.434185 l 0,61.054668 c 0,3.462501 2.77083,6.23333 6.23333,6.23333 l 37.71964,0 c 3.4625,0 6.23333,-2.770829 6.23333,-6.23333 l 0,-61.054668 c 0,-2.364664 -1.26927,-4.425316 -3.19658,-5.487462 -0.0129,-0.0071 -0.0404,0.007 -0.0533,0 l -7.35214,-6.7128166 c -8.86962,2.7402835 -18.32187,3.9152387 -29.19542,0 z"
           id="path4677" />
        <path
           style="color:#000000;fill:#e5e5e5;fill-opacity:0.10196078;fill-rule:nonzero;stroke:none;stroke-width:2;marker:none;visibility:visible;display:inline;overflow:visible;enable-background:accumulate"
           d="M 7.375,19.5625 3.53125,23.15625 3.46875,23.25 3.34375,23.3125 C 2.538684,23.768274 2,24.609288 2,25.625 l 0,35.8125 c 0,1.497487 1.158763,2.65625 2.65625,2.65625 l 22.125,0 c 1.497487,0 2.65625,-1.158763 2.65625,-2.65625 l 0,-35.8125 c 0,-1.029184 -0.529552,-1.895043 -1.34375,-2.34375 -0.01302,-0.0069 -0.01741,0.0075 -0.03125,0 L 27.96875,23.21875 27.875,23.15625 23.9375,19.5625 c -4.998703,1.471723 -10.433939,2.043165 -16.5625,0 z M 7.25,27.84375 c 1.1338272,0 2.0625,0.897423 2.0625,2.03125 0,1.133827 -0.9286728,2.0625 -2.0625,2.0625 -1.1338272,0 -2.0625,-0.928673 -2.0625,-2.0625 0,-1.133827 0.9286728,-2.03125 2.0625,-2.03125 z M 22.34375,48.0625 c 1.214815,0 2.21875,1.003935 2.21875,2.21875 0,1.214815 -1.003935,2.1875 -2.21875,2.1875 -1.214815,0 -2.1875,-0.972685 -2.1875,-2.1875 0,-1.214815 0.972685,-2.21875 2.1875,-2.21875 z m -6.28125,4.125 c 1.37679,0 2.46875,1.09196 2.46875,2.46875 0,1.37679 -1.09196,2.5 -2.46875,2.5 -1.37679,0 -2.5,-1.12321 -2.5,-2.5 0,-1.37679 1.12321,-2.46875 2.5,-2.46875 z m -11,2.34375 c 0.8908642,0 1.59375,0.702886 1.59375,1.59375 0,0.890864 -0.7028858,1.625 -1.59375,1.625 -0.8908642,0 -1.625,-0.734136 -1.625,-1.625 0,-0.890864 0.7341358,-1.59375 1.625,-1.59375 z M 25.15625,58.625 c 0.890864,0 1.59375,0.734136 1.59375,1.625 0,0.890864 -0.702886,1.59375 -1.59375,1.59375 -0.890864,0 -1.625,-0.702886 -1.625,-1.59375 0,-0.890864 0.734136,-1.625 1.625,-1.625 z m -4.5625,0.15625 c 1.295802,0 2.34375,1.047948 2.34375,2.34375 0,1.295802 -1.047948,2.34375 -2.34375,2.34375 -1.295802,0 -2.34375,-1.047948 -2.34375,-2.34375 0,-1.295802 1.047948,-2.34375 2.34375,-2.34375 z m -8.9375,0.59375 c 0.485926,0 0.875,0.389074 0.875,0.875 0,0.485926 -0.389074,0.875 -0.875,0.875 -0.485926,0 -0.875,-0.389074 -0.875,-0.875 0,-0.485926 0.389074,-0.875 0.875,-0.875 z"
           transform="matrix(1.7048424,0,0,1.7048424,141.97172,-26.689009)"
           id="path4687"
           inkscape:connector-curvature="0" />
      </g>
      <rect
         y="48.612183"
         x="103.5935"
         height="26"
         width="50.188"
         id="rect3777"
         style="color:#000000;fill:#ffffff;fill-opacity:0.19230772;fill-rule:nonzero;stroke:#ffffff;stroke-width:4.28781462;stroke-linecap:round;stroke-linejoin:round;stroke-miterlimit:4;stroke-opacity:1;stroke-dasharray:none;marker:none;visibility:visible;display:inline;overflow:visible;enable-background:accumulate" />
      <g
         id="g4676"
         style="stroke:#ffffff;stroke-width:1.25753999">
        <path
           style="color:#000000;fill:none;stroke:#ffffff;stroke-width:2.14390731;stroke-linecap:round;stroke-linejoin:round;stroke-miterlimit:4;stroke-opacity:1;stroke-dasharray:none;marker:none;visibility:visible;display:inline;overflow:visible;enable-background:accumulate"
           d="m 107.16421,59.112182 c 1.8854,2.864367 10.27859,-3.721406 8,-6 -4.15436,-4.154358 -7.75,8.634375 -7.75,10.75 0,4.818452 6.64576,4.104245 8.25,2.5 0.88436,-0.884357 -1.31947,-3.430535 -1.75,-3 -2.4133,2.413301 -3.42602,9.25 -8.36612,9.25"
           id="path3779"
           inkscape:connector-curvature="0"
           sodipodi:nodetypes="cssssc" />
        <path
           style="color:#000000;fill:none;stroke:#ffffff;stroke-width:2.14390731;stroke-linecap:round;stroke-linejoin:round;stroke-miterlimit:4;stroke-opacity:1;stroke-dasharray:none;marker:none;visibility:visible;display:inline;overflow:visible;enable-background:accumulate"
           d="m 122.97487,58.612182 c -7.64895,-4.058251 -7.35918,11.67959 -0.5,8.25 3.13617,-1.568084 1.04637,-11.296372 -3,-7.25 -1.77681,1.776805 4.08733,3.825336 5,2 1.85234,-3.704689 0.10618,-10 1.25,-10 2.41667,0 0.0248,4.83346 0,7.25 -0.0256,2.495129 -0.48655,6.611251 1.67938,7.5 0.10802,0.04432 3.45176,-7.75 5.69562,-7.75 1.25971,0 -4.61273,4.149541 -3,7.375 0.81107,1.622134 2.44402,-0.51304 2.75,-1.125 0.82074,-1.641477 -1.58523,-5.5 0.25,-5.5 0.01,0 -0.12199,4.878006 0.25,5.25 1.18568,1.185676 3.92515,3.683129 5.75,1.25"
           id="path3781"
           inkscape:connector-curvature="0"
           sodipodi:nodetypes="csssssssssssc" />
        <path
           style="color:#000000;fill:none;stroke:#ffffff;stroke-width:2.14390731;stroke-linecap:round;stroke-linejoin:round;stroke-miterlimit:4;stroke-opacity:1;stroke-dasharray:none;marker:none;visibility:visible;display:inline;overflow:visible;enable-background:accumulate"
           d="m 120.72487,54.612182 c 6.30829,-1.530737 13.21868,0.773493 18.25,-3"
           id="path3783"
           inkscape:connector-curvature="0" />
        <path
           sodipodi:nodetypes="cssssc"
           inkscape:connector-curvature="0"
           id="path3785"
           d="m 142.34278,59.112182 c 1.8854,2.864367 10.27859,-3.721406 8,-6 -4.15436,-4.154358 -7.75,8.634375 -7.75,10.75 0,4.818452 6.64576,4.104245 8.25,2.5 0.88436,-0.884357 -1.31947,-3.430535 -1.75,-3 -2.4133,2.413301 -3.42602,9.25 -8.36612,9.25"
           style="color:#000000;fill:none;stroke:#ffffff;stroke-width:2.14390731;stroke-linecap:round;stroke-linejoin:round;stroke-miterlimit:4;stroke-opacity:1;stroke-dasharray:none;marker:none;visibility:visible;display:inline;overflow:visible;enable-background:accumulate" />
      </g>
      <path
         style="color:#000000;fill:#ffffff;fill-opacity:0.35576926;fill-rule:nonzero;stroke:#ffffff;stroke-width:2.51507998;marker:none;visibility:visible;display:inline;overflow:visible;enable-background:accumulate"
         d="m 15.40625,16.25 c -2.25424,-0.01432 -4.431222,0.153898 -6.5,0.5 l -1.8125,1.71875 c 6.378038,2.29654 11.922396,1.607353 17.125,0 l -1.78125,-1.625 C 19.995594,16.463269 17.66049,16.264318 15.40625,16.25 z"
         transform="matrix(1.7048424,0,0,1.7048424,101.88866,-5.5926604)"
         id="path3808"
         inkscape:connector-curvature="0" />
      <path
         sodipodi:nodetypes="sccccss"
         inkscape:connector-curvature="0"
         id="path3801"
         d="m 126.375,9.25 c -5.51229,0 -4.69284,7.921817 -7.46875,12.03125 l -1.8125,1.6875 c 7.05388,-1.180098 14.73637,-1.141071 23.0625,0.15625 L 138.125,21.28125 C 135.29855,17.232377 136.16854,9.25 130.65625,9.25 z"
         style="color:#000000;fill:none;stroke:#ffffff;stroke-width:4.28781462;marker:none;visibility:visible;display:inline;overflow:visible;enable-background:accumulate" />
      <rect
         ry="4.2878146"
         rx="4.2878146"
         y="-3.8878186"
         x="117.8125"
         height="16.5"
         width="21.75"
         id="rect3814"
         style="color:#000000;fill:#fdfdfd;fill-opacity:1;fill-rule:nonzero;stroke:#ffffff;stroke-width:4.28781462;stroke-miterlimit:4;stroke-dasharray:none;marker:none;visibility:visible;display:inline;overflow:visible;enable-background:accumulate" />
    </g>
  </g>
</svg>
