<?xml version="1.0" encoding="UTF-8" standalone="no"?>
<!-- Created with Inkscape (http://www.inkscape.org/) -->

<svg
   xmlns:dc="http://purl.org/dc/elements/1.1/"
   xmlns:cc="http://creativecommons.org/ns#"
   xmlns:rdf="http://www.w3.org/1999/02/22-rdf-syntax-ns#"
   xmlns:svg="http://www.w3.org/2000/svg"
   xmlns="http://www.w3.org/2000/svg"
   xmlns:sodipodi="http://sodipodi.sourceforge.net/DTD/sodipodi-0.dtd"
   xmlns:inkscape="http://www.inkscape.org/namespaces/inkscape"
   inkscape:version="0.48.5 r10040"
   version="1.1"
   id="svg3431"
   height="34"
   width="93"
   sodipodi:docname="twin-iguana.svg"
   inkscape:export-filename="/home/vg/Project/boa/x-ray/assets/twin-iguana.png"
   inkscape:export-xdpi="90"
   inkscape:export-ydpi="90">
  <sodipodi:namedview
     id="base"
     pagecolor="#ffffff"
     bordercolor="#666666"
     borderopacity="1.0"
     inkscape:pageopacity="0"
     inkscape:pageshadow="2"
     inkscape:zoom="4"
     inkscape:cx="31.392066"
     inkscape:cy="11.131571"
     inkscape:document-units="px"
     inkscape:current-layer="layer1"
     showgrid="false"
     inkscape:window-width="1366"
     inkscape:window-height="715"
     inkscape:window-x="0"
     inkscape:window-y="0"
     inkscape:window-maximized="1"
     fit-margin-top="0"
     fit-margin-left="0"
     fit-margin-right="0"
     fit-margin-bottom="0"
     borderlayer="true"
     inkscape:showpageshadow="false" />
  <defs
     id="defs3433" />
  <metadata
     id="metadata3436">
    <rdf:RDF>
      <cc:Work
         rdf:about="">
        <dc:format>image/svg+xml</dc:format>
        <dc:type
           rdf:resource="http://purl.org/dc/dcmitype/StillImage" />
        <dc:title></dc:title>
      </cc:Work>
    </rdf:RDF>
  </metadata>
  <g
     transform="translate(-9.11983,-45.195836)"
     id="layer1"
     inkscape:groupmode="layer"
     inkscape:label="Layer 1">
    <path
       id="path5440"
       d="m 54.915402,52.544493 c -0.619555,0.01518 -1.238051,0.180952 -1.652556,0.486552 -0.48359,0.356532 -0.853573,0.873875 -1.042685,1.440193 -0.385901,-0.460846 -0.931568,-0.79646 -1.514843,-0.953641 -0.99755,-0.268821 -2.616805,0.334067 -3.187074,1.187186 -0.338597,0.506539 -0.518696,1.137343 -0.491832,1.751586 -0.530808,-0.292782 -1.165148,-0.413704 -1.770596,-0.350317 -1.02812,0.107638 -2.328059,1.349601 -2.518182,2.354911 -0.113437,0.599817 -0.03587,1.269385 0.23608,1.829434 -0.608396,-0.06248 -1.257207,0.07187 -1.79027,0.36978 -0.900145,0.503067 -1.616611,2.114534 -1.396804,3.113931 0.12953,0.58893 0.440614,1.13691 0.885298,1.537503 -0.58156,0.133211 -1.131311,0.430023 -1.534516,0.875794 -0.689424,0.762203 -0.851719,2.274914 -0.393466,3.191779 0.458252,0.916865 1.405785,1.55531 2.439488,1.576428 1.033687,0.02185 1.983801,-0.414142 2.557528,-1.265035 0.573727,-0.850893 0.637549,-1.519473 0.314773,-2.491145 -0.167293,-0.50361 -0.461929,-0.919722 -0.845952,-1.245572 0.491353,-0.09736 0.964537,-0.3085 1.357457,-0.661711 0.76516,-0.687831 0.934892,-1.079189 0.944318,-2.101903 0.0047,-0.511358 -0.131748,-0.971737 -0.373792,-1.381807 0.45516,0.08273 0.915885,0.05067 1.396804,-0.116773 0.975216,-0.339538 1.252626,-0.641689 1.672229,-1.576427 0.209802,-0.467369 0.253758,-0.94859 0.196733,-1.420731 0.39316,0.259811 0.841477,0.416502 1.357458,0.447627 1.03196,0.06225 1.489149,-0.116476 2.223082,-0.836869 0.366965,-0.360197 0.605229,-0.786721 0.727911,-1.245573 0.284248,0.383154 0.666319,0.692824 1.141051,0.895255 0.949466,0.404864 1.535598,0.401416 2.459162,-0.05839 0.464865,-0.231435 0.839159,-0.551289 1.101704,-0.953641 0.159064,0.452018 0.432508,0.855823 0.826279,1.187186 0.787541,0.662726 1.383178,0.846257 2.400141,0.661711 0.513371,-0.09316 0.970323,-0.307443 1.337784,-0.622787 0.02548,0.477431 0.167902,0.954858 0.452486,1.381808 0.569167,0.853899 1.077294,1.153447 2.105042,1.265034 0.519777,0.05644 1.012643,-0.01485 1.455824,-0.214082 -0.118985,0.460358 -0.122959,0.948639 0.01967,1.440193 0.285264,0.983108 0.636823,1.377748 1.573864,1.809972 0.46852,0.216112 0.958319,0.279454 1.43615,0.233545 -0.267009,0.389382 -0.437509,0.852104 -0.472159,1.362345 -0.0693,1.020482 0.12934,1.423063 0.845951,2.16029 0.363047,0.373492 0.80286,0.627861 1.278764,0.75902 -0.397325,0.29537 -0.704813,0.686116 -0.904971,1.167725 -0.393138,0.945945 -0.442117,1.736025 0.09837,2.607917 0.540484,0.871892 1.524016,1.389691 2.557528,1.362345 1.033531,-0.02661 1.965907,-0.599705 2.459162,-1.49858 0.493255,-0.898874 0.474344,-2.304296 -0.157386,-3.113931 -0.36977,-0.473901 -0.885431,-0.837266 -1.455824,-1.012027 0.469553,-0.370094 0.834387,-0.88194 1.003338,-1.459656 0.287318,-0.982485 -0.360899,-2.60291 -1.219744,-3.172317 -0.509938,-0.338085 -1.152528,-0.508164 -1.770596,-0.486552 0.310328,-0.521097 0.466323,-1.148725 0.413139,-1.751586 -0.08989,-1.01892 -1.200077,-2.283147 -2.203409,-2.530069 -0.587926,-0.144691 -1.225763,-0.100393 -1.79027,0.116772 0.121515,-0.587585 0.04759,-1.221004 -0.196733,-1.771049 -0.415959,-0.936393 -1.80086,-1.773578 -2.832954,-1.712662 -0.610382,0.03603 -1.199127,0.264529 -1.67223,0.642249 -0.05344,-0.59679 -0.275521,-1.19672 -0.668892,-1.654276 -0.669848,-0.779147 -2.213219,-1.180447 -3.187073,-0.836869 -0.569704,0.200993 -1.06901,0.585356 -1.416477,1.070413 -0.2199,-0.56309 -0.630458,-1.050016 -1.141051,-1.381806 -0.432083,-0.280774 -1.052675,-0.423888 -1.67223,-0.408704 z"
       style="opacity:0.7;color:#000000;fill:#ffffff;fill-opacity:0.4;fill-rule:nonzero;stroke:#ffffff;stroke-width:1;stroke-linecap:round;stroke-linejoin:round;stroke-miterlimit:4;stroke-opacity:1;stroke-dasharray:none;marker:none;visibility:visible;display:inline;overflow:visible;enable-background:accumulate"
       inkscape:connector-curvature="0" />
    <path
       style="opacity:0.7;color:#000000;fill:#ffffff;fill-opacity:0.4;stroke:#ffffff;stroke-width:1;stroke-linecap:round;stroke-linejoin:round;stroke-miterlimit:4;stroke-opacity:1;stroke-dasharray:none;marker:none;visibility:visible;display:inline;overflow:visible;enable-background:accumulate"
       d="m 23.411554,46.318654 c -0.391846,0.03773 -0.751918,0.155925 -1.011062,0.347118 -0.394241,0.290864 -0.712965,0.727042 -0.886774,1.214687 -0.307041,-0.384985 -0.72459,-0.690001 -1.178337,-0.829034 -0.806659,-0.247169 -2.124688,0.277851 -2.597404,1.020725 -0.472716,0.742875 -0.560128,1.743705 -0.161159,2.534724 0.398398,0.791349 1.098662,1.336352 1.935294,1.403894 0.836634,0.06754 1.197436,-0.107121 1.800345,-0.732398 0.279921,-0.290307 0.469511,-0.621226 0.576661,-0.99077 0.209587,0.302276 0.47489,0.546914 0.823684,0.724981 0.757425,0.386681 1.10146,0.390016 1.882224,0.06095 0.356499,-0.150254 0.648195,-0.383672 0.876057,-0.666752 0.08254,0.374486 0.245252,0.738895 0.503258,1.047519 0.559846,0.669684 0.782399,0.84083 1.620341,0.88597 0.383359,0.02065 0.73809,-0.05627 1.058138,-0.214718 -0.06528,0.359931 -0.05425,0.74035 0.05405,1.127984 0.240672,0.861409 0.542362,1.196232 1.309827,1.559205 0.767463,0.362974 1.600052,0.221992 2.312762,-0.252205 0.713052,-0.473607 1.070788,-1.423402 0.980578,-2.317231 -0.09021,-0.893827 -0.998583,-1.969696 -1.815044,-2.176798 -0.467792,-0.118658 -0.991961,-0.07617 -1.448976,0.114 0.0592,-0.510029 -0.01353,-1.049439 -0.229908,-1.502455 -0.382305,-0.800407 -1.74907,-1.549929 -2.570097,-1.364927 -0.462182,0.104143 -0.924305,0.341825 -1.256006,0.701767 -0.145029,-0.486473 -0.426983,-0.942372 -0.793318,-1.255195 -0.410098,-0.350192 -1.132059,-0.503926 -1.785135,-0.441037 z"
       id="path8263"
       inkscape:connector-curvature="0" />
    <path
       sodipodi:nodetypes="sssscssccscssssscccsssssccscssccsss"
       style="opacity:0.7;color:#000000;fill:#cccccc;fill-opacity:0.2;fill-rule:nonzero;stroke:#ffffff;stroke-width:2;stroke-linecap:round;stroke-linejoin:round;stroke-miterlimit:4;stroke-opacity:1;stroke-dasharray:none;marker:none;visibility:visible;display:inline;overflow:visible;enable-background:accumulate"
       d="m 22.472785,50.500982 c -2.228652,0.05108 -5.960479,2.638299 -7.33645,5.760773 -3.45491,7.84018 -4.186074,8.158406 -4.800042,9.964579 -1.7755546,5.22333 7.802891,4.398428 12.98999,4.398428 2.523002,0 4.795529,-1.067631 6.482952,-2.802538 0.151677,1.207888 0.414995,2.221512 0.817179,3.075007 0.699227,1.483865 1.907212,2.408661 3.232396,2.802538 2.650369,0.787754 5.791706,0.05839 9.71535,0.05839 0.574387,0.01324 1.117612,-0.497293 1.180369,-1.109338 3.171723,-0.09926 5.506714,0.529029 9.824306,-2.646841 3.828971,-2.816457 11.825411,-0.09554 16.942841,2.549531 0.38705,0.750165 1.059839,1.346756 1.797792,1.79051 1.161077,0.698188 2.636618,1.166437 4.34013,1.479118 3.407018,0.625362 7.693403,0.598073 11.694737,-0.155697 4.001333,-0.75377 7.733631,-2.183153 9.915106,-4.846055 1.090739,-1.331451 1.758979,-3.034473 1.688829,-4.923904 -0.0701,-1.889431 -0.82075,-3.912476 -2.288093,-6.072166 -0.223243,-0.338443 -0.61239,-0.543183 -0.998774,-0.525476 -0.85173,0.02481 -1.409212,1.280711 -0.889818,2.004594 1.284241,1.8902 1.806052,3.445302 1.852274,4.690358 0.04621,1.245057 -0.33427,2.247625 -1.107736,3.19178 -1.546919,1.888309 -4.849854,3.327603 -8.571298,4.028648 -3.721444,0.701045 -7.840912,0.719744 -10.91388,0.155697 -1.536481,-0.282023 -2.80934,-0.733858 -3.595585,-1.206648 -0.786246,-0.472791 -0.944293,-0.804234 -0.944293,-1.050952 0.01001,-0.671797 -0.571917,-1.286048 -1.198529,-1.265035 -1.490687,-7.63487 -7.816303,-13.370442 -15.381124,-13.370442 -8.046261,0 -14.666728,6.488771 -15.580877,14.84956 -3.066077,0.121683 -5.473544,0.393904 -6.864303,-0.01946 C 33.618662,71.05105 33.129901,70.687966 32.6966,69.768438 32.263301,68.84891 31.97022,67.259194 31.97022,64.80561 c 0.0033,-0.09117 -0.0028,-0.182724 -0.01816,-0.272469 0.48935,-1.219175 0.762701,-2.558868 0.762701,-3.970262 0,-5.559158 -4.201378,-10.06189 -9.388478,-10.06189 -0.24586,0 -0.535119,-0.0073 -0.853495,0 z"
       id="path3589"
       inkscape:connector-curvature="0" />
    <path
       sodipodi:nodetypes="csssccscsc"
       inkscape:connector-curvature="0"
       id="path4929"
       d="m 22.22319,52.532109 c -1.783571,0.04083 -4.771469,2.108913 -5.872647,4.604849 -2.764934,6.267015 0.89916,6.521388 0.407806,7.965144 -1.42096,4.175246 1.990659,3.515865 6.141848,3.515865 1.506605,0 2.905646,-0.473888 4.07779,-1.291225 0.0051,-0.0053 0.01066,-0.01025 0.01574,-0.01556 1.92369,-2.007266 3.10164,-4.718031 3.10164,-7.700676 0,-0.619251 -0.05963,-1.228239 -0.157444,-1.82016 -1.057736,-3.070326 -3.801098,-5.25824 -7.037729,-5.25824 -0.19676,0 -0.422214,-0.0059 -0.677008,0 z"
       style="opacity:0.7;color:#000000;fill:#ffffff;fill-opacity:1;fill-rule:nonzero;stroke:#ffffff;stroke-width:2;stroke-linecap:round;stroke-linejoin:round;stroke-miterlimit:4;stroke-opacity:1;stroke-dasharray:none;marker:none;visibility:visible;display:inline;overflow:visible;enable-background:accumulate" />
    <path
       transform="matrix(0.62954536,0,0,0.62278623,9.6003612,29.559795)"
       d="m 28.536809,47.765476 c 0,3.486824 -2.826629,6.313453 -6.313453,6.313453 -3.486824,0 -6.313453,-2.826629 -6.313453,-6.313453 0,-3.486824 2.826629,-6.313453 6.313453,-6.313453 3.486824,0 6.313453,2.826629 6.313453,6.313453 z"
       sodipodi:ry="6.3134532"
       sodipodi:rx="6.3134532"
       sodipodi:cy="47.765476"
       sodipodi:cx="22.223356"
       id="path4365"
       style="opacity:0.7;color:#000000;fill:#333333;fill-opacity:1;fill-rule:nonzero;stroke:none;stroke-width:5;marker:none;visibility:visible;display:inline;overflow:visible;enable-background:accumulate"
       sodipodi:type="arc" />
    <path
       inkscape:connector-curvature="0"
       id="path4934"
       d="m 14.998807,60.44643 -2.675568,6.383559"
       style="opacity:0.7;color:#000000;fill:#333333;fill-opacity:1;fill-rule:nonzero;stroke:#ffffff;stroke-width:1;stroke-linecap:round;stroke-linejoin:round;stroke-miterlimit:4;stroke-opacity:1;stroke-dasharray:none;marker:none;visibility:visible;display:inline;overflow:visible;enable-background:accumulate" />
    <path
       sodipodi:nodetypes="cc"
       inkscape:connector-curvature="0"
       id="path4940"
       d="M 71.657889,71.967975 C 80.858084,81.353503 108.0945,71.580509 97.626635,60.913519"
       style="opacity:0.7;color:#000000;fill:none;stroke:#ffffff;stroke-width:1;stroke-linecap:round;stroke-linejoin:round;stroke-miterlimit:4;stroke-opacity:1;stroke-dasharray:none;marker:none;visibility:visible;display:inline;overflow:visible;enable-background:accumulate" />
    <path
       id="path4938"
       d="m 29.635736,61.224912 c 1.101705,5.605077 -2.203408,13.078511 12.748294,11.210153 0,-9.96458 17.155111,-25.378539 28.486929,-2.335449"
       style="opacity:0.7;color:#000000;fill:none;stroke:#ffffff;stroke-width:1;marker:none;visibility:visible;display:inline;overflow:visible;enable-background:accumulate"
       inkscape:connector-curvature="0" />
    <path
       d="m 30.422783,66.128145 c 0,0 -0.784801,0.05634 -0.784801,0.05634 -0.333028,0.02391 -0.662017,-0.08403 -0.914593,-0.300086 -0.252576,-0.21605 -0.401099,-0.565957 -0.416511,-0.895934 0,0 -0.133975,-2.273705 -0.133975,-2.273705 -0.02711,-0.329221 0.08682,-0.525486 0.280078,-0.794857 0.193252,-0.269371 0.486757,-0.451764 0.815948,-0.507055 0,0 0.775761,-0.130296 0.775761,-0.130296 0.32919,-0.05529 0.667101,0.02105 0.939395,0.212227 0.272294,0.191177 0.455563,0.625314 0.482673,0.954535 0,0 0.141539,2.388248 0.141539,2.388248 0.01541,0.329977 -0.105908,0.613135 -0.324304,0.863 -0.218396,0.249865 -0.528182,0.403669 -0.86121,0.427579 m 2.272274,5.025177 c 0,0 -0.460295,0.63094 -0.460295,0.63094 -0.195325,0.267737 -0.490162,0.447749 -0.81965,0.500435 -0.329489,0.05269 -0.914919,-0.300876 -1.135725,-0.548471 0,0 -1.453562,-2.697322 -1.453562,-2.697322 -0.08724,-0.318812 -0.04936,-0.750775 0.134038,-1.026791 0.183398,-0.276016 0.485162,-0.522199 0.816014,-0.566297 0,0 0.779674,-0.10392 0.779674,-0.10392 0.330852,-0.0441 0.63935,-0.02547 0.918361,0.155965 0.279011,0.181429 0.454382,0.368043 0.541622,0.686854 0,0 0.741038,1.389533 0.741038,1.389533 0.220806,0.247595 0.107105,0.325904 0.160363,0.651855 0.05326,0.325951 -0.02655,0.659481 -0.221878,0.927219 m 5.688279,1.180009 c 0,0 -0.0028,0.778408 -0.0028,0.778408 -0.0012,0.330316 -0.135004,0.646628 -0.371961,0.879352 -0.236955,0.232724 -0.63865,0.354083 -0.972079,0.336661 0,0 -2.651652,-0.346842 -2.651652,-0.346842 -0.323838,-0.08027 -0.719378,-0.326368 -0.866984,-0.622575 -0.147605,-0.296207 -0.23139,-0.663587 -0.09571,-0.965298 0,0 0.319736,-0.711004 0.319736,-0.711004 0.135679,-0.301712 0.301954,-0.582002 0.601375,-0.728023 0.299422,-0.14602 0.520854,-0.224166 0.844692,-0.143896 0,0 2.022839,0.252936 2.022839,0.252936 0.333429,0.01742 0.57181,0.153882 0.80706,0.388293 0.23525,0.234412 0.366734,0.551672 0.365528,0.881988 m 3.852301,-2.07123 c 0,0 0.765306,0.180296 0.765306,0.180296 0.324755,0.07651 0.616935,0.212126 0.809752,0.481804 0.192818,0.269679 0.288564,0.453549 0.263009,0.782894 0,0 -3.050409,2.51663 -3.050409,2.51663 -0.332918,0.0255 -0.66244,-0.08088 -0.916076,-0.295724 -0.253635,-0.214849 -0.438389,-0.524561 -0.451562,-0.854628 0,0 -0.03104,-0.777824 -0.03104,-0.777824 -0.01317,-0.330066 0.06723,-0.648911 0.284408,-0.899824 0.217181,-0.250912 0.526223,-0.4062 0.859141,-0.4317 0,0 0.01045,0.492856 0.01045,0.492856 0.02555,-0.329344 0.229043,-0.771068 0.501648,-0.961815 0.272606,-0.190748 0.630619,-0.309474 0.955374,-0.232965 m 2.533204,-5.635298 c 0,0 0.655586,0.430368 0.655586,0.430368 0.278196,0.182624 0.471662,0.467096 0.53784,0.790833 0.06618,0.323737 0.0576,0.572055 -0.108736,0.858434 0,0 -0.95395,1.888771 -0.95395,1.888771 -0.125785,0.305939 -0.327363,0.447645 -0.624638,0.597948 -0.297275,0.150304 -0.642731,0.177627 -0.96037,0.07596 0,0 -0.748538,-0.239588 -0.748538,-0.239588 -0.317639,-0.101668 -0.581443,-0.323999 -0.733377,-0.618082 -0.151934,-0.294084 -0.11978,-0.741909 0.006,-1.047847 0,0 1.149648,-2.285828 1.149648,-2.285828 0.166338,-0.286379 0.507695,-0.568478 0.834946,-0.633944 0.32725,-0.06547 0.667387,3.52e-4 0.945582,0.182976 m 4.377397,-4.431856 c 0,0 0.431819,0.650582 0.431819,0.650582 0.183242,0.276072 0.315698,0.574581 0.272292,0.902053 -0.04341,0.327472 -0.13938,0.536798 -0.389237,0.755866 0,0 -1.551717,1.458515 -1.551717,1.458515 -0.218478,0.249757 -0.528299,0.403426 -0.861306,0.427203 -0.333008,0.02378 -0.624513,-0.113427 -0.890411,-0.313177 0,0 -0.626608,-0.470722 -0.626608,-0.470722 -0.265898,-0.19975 -0.400133,-0.548472 -0.424168,-0.877904 -0.02404,-0.329433 0.0852,-0.654817 0.303678,-0.904575 0,0 1.858757,-1.765766 1.858757,-1.765766 0.249857,-0.219068 0.686239,-0.366251 1.017265,-0.323311 0.331026,0.04294 0.676395,0.185164 0.859636,0.461236 m 5.764494,-2.379615 c 0,0 0.123326,0.768776 0.123326,0.768776 0.05233,0.326227 -0.02848,0.65966 -0.224654,0.926945 -0.196176,0.267285 -0.325329,0.43659 -0.648209,0.520744 0,0 -1.928178,0.704842 -1.928178,0.704842 -0.302085,0.140731 -0.532058,0.110273 -0.854508,0.02448 -0.322449,-0.0858 -0.597239,-0.294797 -0.76392,-0.581023 0,0 -0.392793,-0.67451 -0.392793,-0.67451 -0.16668,-0.286226 -0.211597,-0.626232 -0.124869,-0.945219 0.08673,-0.318988 0.425983,-0.640807 0.728069,-0.781538 0,0 2.494235,-0.908452 2.494235,-0.908452 0.322881,-0.08415 0.817606,-0.06171 1.087793,0.132361 0.270185,0.19407 0.451375,0.48637 0.503708,0.812598 m 6.209287,0.850826 c 0,0 -0.303622,0.718097 -0.303622,0.718097 -0.128841,0.304722 -0.37477,0.546331 -0.683684,0.671676 -0.308914,0.125345 -0.483534,0.188112 -0.804015,0.09546 0,0 -2.034279,-0.406655 -2.034279,-0.406655 -0.331705,-0.0377 -0.468651,-0.156645 -0.704081,-0.390862 -0.23543,-0.234217 -0.327419,-0.548532 -0.344683,-0.878397 0,0 -0.04069,-0.777346 -0.04069,-0.777346 -0.01726,-0.329865 0.155834,-0.651012 0.392593,-0.883915 0.236759,-0.232902 0.742363,-0.35501 1.074068,-0.317307 0,0 2.584082,0.51655 2.584082,0.51655 0.320482,0.09266 0.740936,0.393912 0.867641,0.69951 0.126705,0.305596 0.125505,0.648471 -0.0033,0.953193 m 5.043972,3.679657 c 0,0 -0.582833,0.522984 -0.582833,0.522984 -0.247323,0.221927 -0.544764,0.370018 -0.878662,0.367702 -0.333897,-0.0023 -0.601301,-0.08641 -0.845876,-0.311291 0,0 -1.64618,-1.328113 -1.64618,-1.328113 -0.274216,-0.188462 -0.404765,-0.42376 -0.480518,-0.745456 -0.07575,-0.321697 0.009,-0.633422 0.170367,-0.922602 0,0 0.380235,-0.681471 0.380235,-0.681471 0.161351,-0.28918 0.480351,-0.477438 0.80554,-0.552377 0.325187,-0.07494 0.73572,0.02852 1.009936,0.216975 0,0 2.010547,1.618331 2.010547,1.618331 0.244575,0.22488 0.426375,0.592422 0.424033,0.922735 -0.0023,0.330313 -0.119267,0.670657 -0.366589,0.892583 m 3.651304,4.966664 c 0,0 -0.681231,0.389642 -0.681231,0.389642 -0.289081,0.165344 -0.632718,0.210311 -0.95531,0.125012 -0.322591,-0.0853 -0.583506,-0.242853 -0.759578,-0.523531 0,0 -1.238575,-1.785545 -1.238575,-1.785545 -0.204433,-0.261183 -0.253941,-0.55187 -0.22442,-0.880902 0.02952,-0.329032 0.189958,-0.632986 0.446018,-0.844997 0,0 0.603423,-0.499617 0.603423,-0.499617 0.256061,-0.212011 0.586768,-0.314711 0.919375,-0.285508 0.332602,0.0292 0.664303,0.24818 0.868735,0.509362 0,0 1.43362,2.063223 1.43362,2.063223 0.176077,0.280677 0.260317,0.657082 0.174094,0.976212 -0.08623,0.319131 -0.29707,0.591305 -0.586151,0.756649 m 2.867775,5.386599 c 0,0 -0.697851,0.359552 -0.697851,0.359552 -0.296132,0.152575 -0.641406,0.182525 -0.959856,0.08326 -0.318455,-0.09926 -0.584004,-0.319606 -0.738236,-0.612558 0,0 -1.09036,-2.07108 -1.09036,-2.07108 -0.154232,-0.292952 -0.184507,-0.634516 -0.08417,-0.94955 0.100343,-0.315035 0.323076,-0.577735 0.619208,-0.730309 0,0 0.697851,-0.359552 0.697851,-0.359552 0.296132,-0.152575 0.6414,-0.182525 0.959855,-0.08326 0.318456,0.09926 0.584004,0.319606 0.738237,0.612557 0,0 1.09036,2.071082 1.09036,2.071082 0.154232,0.292951 0.184507,0.634515 0.08417,0.949549 -0.100343,0.315035 -0.323077,0.577735 -0.619208,0.730309"
       id="path9148"
       style="opacity:0.7;color:#000000;fill:#ffffff;fill-opacity:1;fill-rule:nonzero;stroke:none;stroke-width:1;marker:none;visibility:visible;display:inline;overflow:visible;enable-background:accumulate"
       inkscape:connector-curvature="0" />
    <path
       inkscape:connector-curvature="0"
       style="opacity:0.7;color:#000000;fill:#ffffff;fill-opacity:1;fill-rule:nonzero;stroke:none;stroke-width:1;marker:none;visibility:visible;display:inline;overflow:visible;enable-background:accumulate"
       id="path9437"
       d="m 71.078388,73.033124 c 0,0 0.206868,0.519029 0.206868,0.519029 -0.112386,-0.311023 -0.124574,-0.709224 0.03632,-0.998629 0.160912,-0.289404 0.43144,-0.50372 0.752087,-0.5958 0,0 0.453367,-0.130197 0.453367,-0.130197 0.32064,-0.09208 0.559615,-0.150641 0.869276,-0.02712 0.309661,0.123516 0.498398,0.315471 0.646272,0.611616 0,0 -0.151273,-0.392252 -0.151273,-0.392252 0.130675,0.303952 0.103963,0.593782 -0.0031,0.906626 -0.107117,0.312844 -0.335472,0.570779 -0.634833,0.717063 0,0 -0.423275,0.206836 -0.423275,0.206836 -0.299355,0.146283 -0.692777,0.118242 -1.002438,-0.0053 -0.309661,-0.123517 -0.656156,-0.494694 -0.749234,-0.811893 m 3.262096,2.21449 c 0,0 0.284114,0.39787 0.284114,0.39787 -0.192654,-0.269788 -0.269081,-0.604234 -0.212466,-0.929766 0.0566,-0.325531 0.241633,-0.615481 0.514345,-0.806064 0,0 0.385603,-0.269473 0.385603,-0.269473 0.272719,-0.190583 0.56163,-0.296576 0.89301,-0.25607 0.331387,0.04051 0.528277,0.1531 0.756065,0.394626 0,0 -0.274318,-0.34758 -0.274318,-0.34758 0.217061,0.251003 0.287646,0.554064 0.276075,0.884188 -0.01158,0.330124 -0.155227,0.642179 -0.399378,0.867519 0,0 -0.373704,0.30795 -0.373704,0.30795 -0.253732,0.214729 -0.637251,0.30909 -0.968637,0.268583 -0.33138,-0.04051 -0.688056,-0.241996 -0.880709,-0.511783 m 3.62948,1.203971 c 0,0 0.443899,0.327879 0.443899,0.327879 -0.258662,-0.208823 -0.473909,-0.532645 -0.489113,-0.862628 -0.01524,-0.329984 0.102717,-0.652428 0.327829,-0.896399 0,0 0.280394,-0.354942 0.280394,-0.354942 0.211086,-0.255881 0.516284,-0.418328 0.848444,-0.451603 0.332161,-0.03328 0.573932,0.04498 0.846468,0.235774 0,0 -0.305185,-0.269567 -0.305185,-0.269567 0.258655,0.208823 0.360554,0.469066 0.416892,0.794617 0.05634,0.32555 -0.02034,0.659906 -0.213221,0.929514 0,0 -0.272694,0.381209 -0.272694,0.381209 -0.192861,0.269608 -0.56637,0.426957 -0.898531,0.460232 -0.332161,0.03328 -0.738564,-0.07139 -0.985182,-0.294086 m 3.772343,0.435782 c 0,0 0.41917,0.255578 0.41917,0.255578 -0.284233,-0.173302 -0.48723,-0.451204 -0.564337,-0.77257 -0.07711,-0.321365 -0.02203,-0.659871 0.153181,-0.941048 0,0 0.247695,-0.397568 0.247695,-0.397568 0.175183,-0.281178 0.384268,-0.479526 0.703976,-0.574752 0.319708,-0.09522 0.664561,-0.06091 0.958691,0.0954 0,0 -0.433776,-0.230513 -0.433776,-0.230513 0.294136,0.156306 0.513457,0.4218 0.609715,0.738076 0.09626,0.316276 0.06157,0.657427 -0.09643,0.948402 0,0 -0.223407,0.411422 -0.223407,0.411422 -0.158003,0.290975 -0.426378,0.507941 -0.746086,0.603166 -0.319709,0.09523 -0.744167,0.03772 -1.028394,-0.135589 m 3.775956,-0.148401 c 0,0 0.456817,0.181829 0.456817,0.181829 -0.309755,-0.123294 -0.610042,-0.357053 -0.724134,-0.667474 -0.114099,-0.310421 -0.09852,-0.646383 0.02613,-0.952816 0,0 0.176222,-0.433278 0.176222,-0.433278 0.124631,-0.306434 0.367214,-0.551338 0.674375,-0.680836 0.307162,-0.129498 0.58131,-0.136517 0.897222,-0.02958 0,0 -0.465889,-0.157708 -0.465889,-0.157708 0.315906,0.106938 0.57594,0.333644 0.722882,0.630245 0.146942,0.296601 0.168769,0.638801 0.06069,0.95132 0,0 -0.152847,0.441882 -0.152847,0.441882 -0.108099,0.312518 -0.400775,0.577226 -0.707936,0.706725 -0.307155,0.129498 -0.653739,0.132983 -0.963501,0.0097 m 3.643022,-0.662108 c 0,0 0.473607,0.133327 0.473607,0.133327 -0.321144,-0.09041 -0.59283,-0.303315 -0.755291,-0.591886 -0.16246,-0.288572 -0.202386,-0.629169 -0.111001,-0.946865 0,0 0.12922,-0.449201 0.12922,-0.449201 0.09138,-0.317695 0.243804,-0.573399 0.526495,-0.74917 0.282685,-0.175771 0.624384,-0.233251 0.949915,-0.159794 0,0 -0.480079,-0.108331 -0.480079,-0.108331 0.325532,0.07346 0.556745,0.286237 0.749556,0.555904 0.192805,0.269667 0.269427,0.604059 0.213007,0.929613 0,0 -0.120118,0.461026 -0.120118,0.461026 -0.07425,0.322036 -0.274784,0.6017 -0.557475,0.777472 -0.282684,0.175771 -0.696692,0.238311 -1.017836,0.147905 m 3.585872,-1.159673 c 0,0 0.48927,0.0548 0.48927,0.0548 -0.331764,-0.03716 -0.635023,-0.203169 -0.843056,-0.461517 -0.208033,-0.258348 -0.303806,-0.587868 -0.266247,-0.91607 0,0 0.05313,-0.464058 0.05313,-0.464058 0.03758,-0.328202 0.205377,-0.628202 0.466525,-0.834003 0.261154,-0.2058 0.505229,-0.298234 0.838655,-0.28111 0,0 -0.491725,-0.02525 -0.491725,-0.02525 0.333432,0.01713 0.646322,0.164579 0.869849,0.409925 0.223533,0.245346 0.339381,0.568486 0.322069,0.898333 0,0 -0.02449,0.466384 -0.02449,0.466384 -0.01731,0.329847 -0.226819,0.683386 -0.487967,0.889186 -0.261155,0.205801 -0.594247,0.300544 -0.926011,0.263388 m 3.39131,-1.724173 c 0,0 0.490473,-0.04247 0.490473,-0.04247 -0.332583,0.0288 -0.725658,-0.03946 -0.965074,-0.269657 -0.239416,-0.230194 -0.376588,-0.545047 -0.381341,-0.875294 0,0 -0.05849,-0.45219 -0.05849,-0.45219 -0.02908,-0.329006 0.07509,-0.655977 0.289679,-0.908982 0.214581,-0.253004 0.399277,-0.343828 0.727081,-0.40667 0,0 -0.443137,0.04459 -0.443137,0.04459 0.330266,-0.04863 0.627122,0.0538 0.903838,0.238665 0.276711,0.184868 0.467853,0.470907 0.531374,0.795192 0,0 0.06494,0.476637 0.06494,0.476637 0.04917,0.326723 -0.09021,0.707056 -0.304788,0.96006 -0.214587,0.253004 -0.521981,0.411319 -0.854558,0.440114 M 99.097654,70.7265 c 0,0 0.512292,-0.228479 0.512292,-0.228479 -0.307646,0.128352 -0.709076,0.158429 -1.010615,0.0166 -0.30154,-0.141833 -0.533779,-0.396357 -0.645618,-0.707578 0,0 -0.158135,-0.44005 -0.158135,-0.44005 -0.111845,-0.311222 -0.181681,-0.541448 -0.07522,-0.854498 0.106456,-0.31305 0.244289,-0.414285 0.520231,-0.600199 0,0 -0.383752,0.173711 -0.383752,0.173711 0.288553,-0.166143 0.592037,-0.155307 0.920043,-0.09374 0.328006,0.06156 0.617861,0.249505 0.805793,0.522482 0,0 0.23285,0.424728 0.23285,0.424728 0.167944,0.285452 0.166571,0.689059 0.06012,1.00211 -0.106463,0.313049 -0.463377,0.674279 -0.77798,0.78492 m 1.918547,-3.604644 c 0,0 0.32983,-0.48512 0.32983,-0.48512 -0.2014,0.263364 -0.53661,0.515918 -0.87,0.532762 -0.3334,0.01685 -0.659902,-0.09802 -0.907691,-0.319327 0,0 -0.361913,-0.253392 -0.361913,-0.253392 -0.266222,-0.199244 -0.449332,-0.388877 -0.524348,-0.710666 -0.07502,-0.321788 -0.05389,-0.421117 0.06952,-0.727951 0,0 -0.203708,0.32765 -0.203708,0.32765 0.150782,-0.294625 0.386692,-0.427741 0.693287,-0.558365 0.306595,-0.130624 0.65309,-0.135412 0.963253,-0.01331 0,0 0.43855,0.172647 0.43855,0.172647 0.31016,0.122102 0.55627,0.578372 0.63129,0.900161 0.075,0.321789 -0.0344,0.889784 -0.25807,1.13491 m -0.50245,-4.15356 c 0,0 -0.0157,-0.570545 -0.0157,-0.570545 -0.0143,0.329965 -0.13556,0.713432 -0.39845,0.916981 -0.262893,0.203548 -0.596754,0.295447 -0.92814,0.255479 0,0 -0.456452,-0.0015 -0.456452,-0.0015 -0.333546,-0.01411 -0.606599,-0.08013 -0.84993,-0.306269 -0.243326,-0.226136 -0.299519,-0.383936 -0.354239,-0.709763 0,0 0.0097,0.420491 0.0097,0.420491 -0.03343,-0.328623 0.09463,-0.59979 0.288835,-0.868464 0.194202,-0.268674 0.488338,-0.450026 0.817698,-0.504161 0,0 0.489547,-0.03803 0.489547,-0.03803 0.332186,-0.03309 0.716127,0.130796 0.959461,0.356932 0.24333,0.226136 0.47803,0.721018 0.43763,1.048847" />
    <path
       style="opacity:0.7;color:#000000;fill:none;stroke:#ffffff;stroke-width:1.49999988;stroke-linecap:round;stroke-linejoin:round;stroke-miterlimit:4;stroke-opacity:1;stroke-dasharray:none;marker:none;visibility:visible;display:inline;overflow:visible;enable-background:accumulate"
       d="m 47.892552,61.380609 c 6.152746,3.51415 2.675567,7.784828 2.675567,7.784828"
       id="path5206"
       inkscape:connector-curvature="0" />
    <path
       inkscape:connector-curvature="0"
       id="path5208"
       d="m 50.568119,59.97934 c 6.152747,3.51415 2.675568,9.653187 2.675568,9.653187"
       style="opacity:0.7;color:#000000;fill:none;stroke:#ffffff;stroke-width:1.49999988;stroke-linecap:round;stroke-linejoin:round;stroke-miterlimit:4;stroke-opacity:1;stroke-dasharray:none;marker:none;visibility:visible;display:inline;overflow:visible;enable-background:accumulate"
       sodipodi:nodetypes="cc" />
    <path
       inkscape:connector-curvature="0"
       id="path5210"
       d="m 46.003916,62.937575 c 6.152746,3.51415 2.675567,7.784827 2.675567,7.784827"
       style="opacity:0.7;color:#000000;fill:none;stroke:#ffffff;stroke-width:1.49999988;stroke-linecap:round;stroke-linejoin:round;stroke-miterlimit:4;stroke-opacity:1;stroke-dasharray:none;marker:none;visibility:visible;display:inline;overflow:visible;enable-background:accumulate" />
    <path
       style="opacity:0.7;color:#000000;fill:none;stroke:#ffffff;stroke-width:1.49999988;stroke-linecap:round;stroke-linejoin:round;stroke-miterlimit:4;stroke-opacity:1;stroke-dasharray:none;marker:none;visibility:visible;display:inline;overflow:visible;enable-background:accumulate"
       d="m 43.485734,64.183147 c 6.152747,3.51415 2.675568,7.784828 2.675568,7.784828"
       id="path5212"
       inkscape:connector-curvature="0" />
    <path
       style="opacity:0.7;color:#000000;fill:none;stroke:#ffffff;stroke-width:2;stroke-linecap:round;stroke-linejoin:round;stroke-miterlimit:4;stroke-opacity:1;stroke-dasharray:none;marker:none;visibility:visible;display:inline;overflow:visible;enable-background:accumulate"
       d="m 68.824935,70.255313 c 0,-13.545601 -23.765337,-7.940525 0.472159,5.760772 -2.675568,0.93418 -7.554544,2.179752 -7.554544,2.179752"
       id="path5214"
       inkscape:connector-curvature="0" />
    <path
       style="opacity:0.7;color:#000000;fill:none;stroke:#ffffff;stroke-width:2;stroke-linecap:round;stroke-linejoin:round;stroke-miterlimit:4;stroke-opacity:1;stroke-dasharray:none;marker:none;visibility:visible;display:inline;overflow:visible;enable-background:accumulate"
       d="m 49.781188,65.895809 c 0,11.054456 -12.590907,11.677242 -12.590907,11.677242"
       id="path5216"
       inkscape:connector-curvature="0" />
  </g>
</svg>
