<?xml version="1.0" encoding="UTF-8" standalone="no"?>
<!-- Created with Inkscape (http://www.inkscape.org/) -->

<svg
   xmlns:dc="http://purl.org/dc/elements/1.1/"
   xmlns:cc="http://creativecommons.org/ns#"
   xmlns:rdf="http://www.w3.org/1999/02/22-rdf-syntax-ns#"
   xmlns:svg="http://www.w3.org/2000/svg"
   xmlns="http://www.w3.org/2000/svg"
   xmlns:sodipodi="http://sodipodi.sourceforge.net/DTD/sodipodi-0.dtd"
   xmlns:inkscape="http://www.inkscape.org/namespaces/inkscape"
   width="120"
   height="120"
   id="svg4600"
   version="1.1"
   inkscape:version="0.48.5 r10040"
   sodipodi:docname="xray-02bag.svg"
   inkscape:export-filename="/home/vg/Project/boa/x-ray/assets/02bag-xray.png"
   inkscape:export-xdpi="90"
   inkscape:export-ydpi="90">
  <defs
     id="defs4602" />
  <sodipodi:namedview
     id="base"
     pagecolor="#ffffff"
     bordercolor="#666666"
     borderopacity="1.0"
     inkscape:pageopacity="0.0"
     inkscape:pageshadow="2"
     inkscape:zoom="4"
     inkscape:cx="75.379214"
     inkscape:cy="73.560618"
     inkscape:document-units="px"
     inkscape:current-layer="g5122"
     showgrid="true"
     inkscape:showpageshadow="false"
     borderlayer="true"
     inkscape:snap-global="false"
     showguides="true"
     inkscape:guide-bbox="true"
     inkscape:window-width="1366"
     inkscape:window-height="715"
     inkscape:window-x="0"
     inkscape:window-y="0"
     inkscape:window-maximized="1"
     fit-margin-top="0"
     fit-margin-left="0"
     fit-margin-right="0"
     fit-margin-bottom="0">
    <inkscape:grid
       type="xygrid"
       id="grid4608"
       empspacing="6"
       visible="true"
       enabled="true"
       snapvisiblegridlinesonly="true"
       spacingx="5px"
       spacingy="5px"
       originx="0px"
       originy="-29.999997px" />
  </sodipodi:namedview>
  <metadata
     id="metadata4605">
    <rdf:RDF>
      <cc:Work
         rdf:about="">
        <dc:format>image/svg+xml</dc:format>
        <dc:type
           rdf:resource="http://purl.org/dc/dcmitype/StillImage" />
        <dc:title></dc:title>
      </cc:Work>
    </rdf:RDF>
  </metadata>
  <g
     transform="translate(0,-902.3622)"
     id="g5122"
     inkscape:groupmode="layer"
     inkscape:label="0"
     style="opacity:0.5">
    <path
       style="fill:#ffffff;fill-opacity:0.4545455;stroke:#ffffff;stroke-width:2;stroke-miterlimit:4;stroke-opacity:1"
       d="M 34.418125,904.3622 C 15.898697,904.3622 1,919.2609 1,937.78033 l 0,17.55 C 1,936.8109 15.898697,921.9122 34.418125,921.9122 l 50.16375,0 C 103.1013,921.9122 118,936.8109 118,955.33033 l 0,-17.55 C 118,919.2609 103.1013,904.3622 84.581875,904.3622 l -50.16375,0 z"
       id="rect4146"
       inkscape:connector-curvature="0" />
    <path
       style="fill:#ffffff;fill-opacity:1;stroke:#ffffff;stroke-width:2;stroke-miterlimit:4;stroke-opacity:1"
       d="M 34.418125,921.9122 C 15.898697,921.9122 1,936.8109 1,955.33033 l 0,32.61375 c 0,18.51942 14.898697,33.41812 33.418125,33.41812 l 50.16375,0 C 103.1013,1021.3622 118,1006.4635 118,987.94408 l 0,-32.61375 C 118,936.8109 103.1013,921.9122 84.581875,921.9122 l -50.16375,0 z m 1.791562,3.51 46.580625,0 c 17.216678,0 31.078128,13.86595 31.078128,31.07813 l 0,30.27375 c 0,17.21212 -13.86145,31.07812 -31.078128,31.07812 l -46.580625,0 c -17.216682,0 -31.0781245,-13.866 -31.0781245,-31.07812 l 0,-30.27375 c 0,-17.21218 13.8614425,-31.07813 31.0781245,-31.07813 z"
       id="path4657"
       inkscape:connector-curvature="0" />
    <path
       sodipodi:nodetypes="sssssssss"
       inkscape:connector-curvature="0"
       style="fill:#ffffff;fill-opacity:0.19607843;stroke:#ffffff;stroke-width:2;stroke-miterlimit:4;stroke-opacity:1"
       d="m 36.192216,925.4222 46.615568,0 c 17.216686,0 31.077046,13.85674 31.077046,31.06891 l 0,30.29219 c 0,17.2121 -13.86036,31.0689 -31.077046,31.0689 l -46.615568,0 c -17.216682,0 -31.0770437,-13.8568 -31.0770437,-31.0689 l 0,-30.29219 c 0,-17.21217 13.8603617,-31.06891 31.0770437,-31.06891 z"
       id="path4693" />
    <path
       style="fill:#ffffff;fill-opacity:0.4545455;stroke:#ffffff;stroke-width:2;stroke-miterlimit:4;stroke-opacity:1"
       d="m 53.65,940.0472 c -12.9636,0 -23.4,10.4364 -23.4,23.4 l 0,11.115 c 0,-12.9636 10.4364,-23.4 23.4,-23.4 l 35.1,0 c 12.9636,0 23.4,10.4364 23.4,23.4 l 0,-11.115 c 0,-12.9636 -10.4364,-23.4 -23.4,-23.4 l -35.1,0 z"
       id="path4659"
       inkscape:connector-curvature="0" />
    <path
       style="fill:#ffffff;fill-opacity:1;stroke:#1a1a1a;stroke-width:2;stroke-miterlimit:4;stroke-opacity:1"
       d="m 53.65,951.1622 c -12.9636,0 -23.4,10.4364 -23.4,23.4 l 0,11.7 c 0,12.9636 10.4364,23.4 23.4,23.4 l 35.1,0 c 12.9636,0 23.4,-10.4364 23.4,-23.4 l 0,-11.7 c 0,-12.9636 -10.4364,-23.4 -23.4,-23.4 l -35.1,0 z m 2.084062,3.51 30.931875,0 c 11.422395,0 20.621253,9.17943 20.621253,20.58469 l 0,10.31063 c 0,11.40522 -9.198858,20.58468 -20.621253,20.58468 l -30.931875,0 c -11.422394,0 -20.62125,-9.17946 -20.62125,-20.58468 l 0,-10.31063 c 0,-11.40526 9.198856,-20.58469 20.62125,-20.58469 z"
       id="path4661"
       inkscape:connector-curvature="0" />
    <path
       style="fill:#ffffff;fill-opacity:1;stroke:none"
       d="m 53.65,944.43471 c -12.9636,0 -23.4,10.4364 -23.4,23.4 l 0,3.36375 c 0,-12.9636 10.4364,-23.4 23.4,-23.4 l 35.1,0 c 12.9636,0 23.4,10.4364 23.4,23.4 l 0,-3.36375 c 0,-12.9636 -10.4364,-23.4 -23.4,-23.4 l -35.1,0 z"
       id="path4665"
       inkscape:connector-curvature="0" />
    <path
       style="fill:#ffffff;fill-opacity:1;stroke:none"
       d="M 34.418125,910.98073 C 15.898697,910.98073 1,925.87942 1,944.39885 l 0,3.72938 C 1,929.60879 15.898697,914.7101 34.418125,914.7101 l 50.16375,0 C 103.1013,914.7101 118,929.60879 118,948.12823 l 0,-3.72938 c 0,-18.51943 -14.8987,-33.41812 -33.418125,-33.41812 l -50.16375,0 z"
       id="path4686"
       inkscape:connector-curvature="0" />
    <path
       sodipodi:nodetypes="sssssssss"
       inkscape:connector-curvature="0"
       style="fill:#ffffff;fill-opacity:0.19607843;stroke:#ffffff;stroke-width:1.99999988;stroke-miterlimit:4;stroke-opacity:1"
       d="m 55.73647,954.67831 30.927062,0 c 11.422394,0 20.618038,9.18187 20.618038,20.58713 l 0,10.29358 c 0,11.40517 -9.195644,20.58708 -20.618038,20.58708 l -30.927062,0 c -11.422394,0 -20.61804,-9.18191 -20.61804,-20.58708 l 0,-10.29358 c 0,-11.40526 9.195646,-20.58713 20.61804,-20.58713 z"
       id="path4691" />
    <path
       inkscape:connector-curvature="0"
       id="path4714"
       d="m 86.44836,986.5547 c 11.263455,0 20.33115,-4.73343 20.33115,-10.61311 l 0,-1.52563 c 0,5.87966 -9.067695,10.61307 -20.33115,10.61307 l -30.49672,0 c -11.263454,0 -20.331146,-4.73341 -20.331146,-10.61307 l 0,1.52563 c 0,5.87968 9.067692,10.61311 20.331146,10.61311 l 30.49672,0 z"
       style="fill:#ffffff;fill-opacity:1;stroke:none" />
    <path
       id="path4751"
       d="m 53.65,951.1622 c -12.9636,0 -23.4,10.4364 -23.4,23.4 l 0,11.7 c 0,12.9636 10.4364,23.4 23.4,23.4 l 35.1,0 c 12.9636,0 23.4,-10.4364 23.4,-23.4 l 0,-11.7 c 0,-12.9636 -10.4364,-23.4 -23.4,-23.4 l -35.1,0 z m 2.084062,3.51 30.931875,0 c 11.422395,0 20.621253,9.17943 20.621253,20.58469 l 0,10.31063 c 0,11.40522 -9.198858,20.58468 -20.621253,20.58468 l -30.931875,0 c -11.422394,0 -20.62125,-9.17946 -20.62125,-20.58468 l 0,-10.31063 c 0,-11.40526 9.198856,-20.58469 20.62125,-20.58469 z"
       style="fill:#ffffff;fill-opacity:1;stroke:#ffffff;stroke-width:2;stroke-miterlimit:4;stroke-opacity:1"
       inkscape:connector-curvature="0" />
  </g>
</svg>
