<?xml version="1.0" encoding="UTF-8" standalone="no"?>
<!-- Created with Inkscape (http://www.inkscape.org/) -->

<svg
   xmlns:dc="http://purl.org/dc/elements/1.1/"
   xmlns:cc="http://creativecommons.org/ns#"
   xmlns:rdf="http://www.w3.org/1999/02/22-rdf-syntax-ns#"
   xmlns:svg="http://www.w3.org/2000/svg"
   xmlns="http://www.w3.org/2000/svg"
   xmlns:sodipodi="http://sodipodi.sourceforge.net/DTD/sodipodi-0.dtd"
   xmlns:inkscape="http://www.inkscape.org/namespaces/inkscape"
   inkscape:export-ydpi="45.245602"
   inkscape:export-xdpi="45.245602"
   inkscape:export-filename="/home/vg/Project/boa/x-ray/assets/xray-toy-iguana.png"
   sodipodi:docname="xray-toy-iguana.svg"
   width="146.30013"
   height="53.706879"
   id="svg3431"
   version="1.1"
   inkscape:version="0.48.5 r10040">
  <sodipodi:namedview
     id="base"
     pagecolor="#ffffff"
     bordercolor="#666666"
     borderopacity="1.0"
     inkscape:pageopacity="0.0"
     inkscape:pageshadow="2"
     inkscape:zoom="5.6568542"
     inkscape:cx="69.459536"
     inkscape:cy="15.353689"
     inkscape:document-units="px"
     inkscape:current-layer="layer1"
     showgrid="false"
     inkscape:window-width="1368"
     inkscape:window-height="715"
     inkscape:window-x="0"
     inkscape:window-y="31"
     inkscape:window-maximized="1"
     fit-margin-top="0"
     fit-margin-left="0"
     fit-margin-right="0"
     fit-margin-bottom="0" />
  <defs
     id="defs3433" />
  <metadata
     id="metadata3436">
    <rdf:RDF>
      <cc:Work
         rdf:about="">
        <dc:format>image/svg+xml</dc:format>
        <dc:type
           rdf:resource="http://purl.org/dc/dcmitype/StillImage" />
        <dc:title></dc:title>
      </cc:Work>
    </rdf:RDF>
  </metadata>
  <g
     transform="translate(-9.2195678,-26.387401)"
     id="layer1"
     inkscape:groupmode="layer"
     inkscape:label="Layer 1"
     style="opacity:0.7">
    <path
       style="color:#000000;fill:#ffffff;fill-opacity:0.40000001000000002;fill-rule:nonzero;stroke:#ffffff;stroke-width:1;stroke-linecap:round;stroke-linejoin:round;stroke-miterlimit:4;stroke-opacity:1;stroke-dasharray:none;marker:none;visibility:visible;display:inline;overflow:visible;enable-background:accumulate"
       d="M 72.15625 10.53125 C 71.172119 10.55563 70.189671 10.821803 69.53125 11.3125 C 68.763093 11.88498 68.175394 12.715671 67.875 13.625 C 67.262017 12.885026 66.395253 12.346135 65.46875 12.09375 C 63.884194 11.662108 61.312093 12.630158 60.40625 14 C 59.868406 14.813344 59.582328 15.826217 59.625 16.8125 C 58.781839 16.342384 57.774224 16.14822 56.8125 16.25 C 55.179385 16.422834 53.114501 18.417037 52.8125 20.03125 C 52.632311 20.994369 52.75552 22.069485 53.1875 22.96875 C 52.221096 22.868421 51.190492 23.084142 50.34375 23.5625 C 48.913917 24.370269 47.775847 26.957781 48.125 28.5625 C 48.330751 29.508138 48.824892 30.388022 49.53125 31.03125 C 48.607471 31.245144 47.734221 31.721732 47.09375 32.4375 C 45.998637 33.66136 45.74084 36.090301 46.46875 37.5625 C 47.19666 39.034699 48.701767 40.059842 50.34375 40.09375 C 50.452042 40.096064 50.549246 40.066562 50.65625 40.0625 C 51.364518 34.61427 53.57527 29.680314 56.8125 25.78125 C 56.752575 25.652105 56.697089 25.529708 56.625 25.40625 C 56.784775 25.435607 56.932861 25.457754 57.09375 25.46875 C 58.501434 23.82709 60.099973 22.377945 61.84375 21.15625 C 61.852977 20.901866 61.84267 20.65876 61.8125 20.40625 C 62.014358 20.541092 62.216664 20.650973 62.4375 20.75 C 64.358425 19.48568 66.440203 18.479641 68.65625 17.8125 C 68.660262 17.817907 68.683464 17.807112 68.6875 17.8125 C 70.806131 17.177704 73.037732 16.84375 75.34375 16.84375 C 87.360073 16.84375 97.41337 26.053285 99.78125 38.3125 C 100.77659 38.27876 101.7034 39.265054 101.6875 40.34375 C 101.6875 40.739902 101.93859 41.272096 103.1875 42.03125 C 103.30733 42.104088 103.46 42.177993 103.59375 42.25 C 103.70243 42.09736 103.78421 41.948488 103.875 41.78125 C 104.65851 40.337938 104.62847 38.081271 103.625 36.78125 C 103.03764 36.020312 102.21854 35.436862 101.3125 35.15625 C 102.05836 34.561996 102.63788 33.74013 102.90625 32.8125 C 103.36264 31.234935 102.33298 28.633039 100.96875 27.71875 C 100.15874 27.175891 99.13802 26.902798 98.15625 26.9375 C 98.64919 26.10078 98.89698 25.093006 98.8125 24.125 C 98.66971 22.488933 96.90624 20.458979 95.3125 20.0625 C 94.37861 19.830172 93.36544 19.9013 92.46875 20.25 C 92.66177 19.306522 92.54435 18.28945 92.15625 17.40625 C 91.49552 15.902695 89.295677 14.558437 87.65625 14.65625 C 86.68669 14.7141 85.751499 15.081001 85 15.6875 C 84.91512 14.729243 84.562348 13.765942 83.9375 13.03125 C 82.873481 11.780184 80.421916 11.135822 78.875 11.6875 C 77.970054 12.010232 77.176934 12.6274 76.625 13.40625 C 76.275701 12.502103 75.623551 11.720252 74.8125 11.1875 C 74.126158 10.736665 73.140381 10.506869 72.15625 10.53125 z M 95.5 41.15625 C 95.600482 41.433841 95.73131 41.714729 95.90625 42 C 96.710988 43.312269 98.129054 44.095721 99.65625 44.15625 C 99.21229 43.704473 98.815648 43.21344 98.53125 42.65625 C 97.580148 42.159314 96.558386 41.642084 95.5 41.15625 z "
       transform="translate(9.2195678,26.387401)"
       id="path5440" />
    <path
       style="color:#000000;fill:#ffffff;fill-opacity:0.40000001000000002;stroke:#ffffff;stroke-width:1;stroke-linecap:round;stroke-linejoin:round;stroke-miterlimit:4;stroke-opacity:1;stroke-dasharray:none;marker:none;visibility:visible;display:inline;overflow:visible;enable-background:accumulate"
       d="M 22.90625 0.5 C 22.642678 0.48227216 22.384344 0.50600525 22.125 0.53125 C 21.502574 0.59184 20.911638 0.786754 20.5 1.09375 C 19.873769 1.560787 19.369836 2.248244 19.09375 3.03125 C 18.606031 2.413083 17.939503 1.910743 17.21875 1.6875 C 15.937413 1.290624 13.844635 2.150926 13.09375 3.34375 C 12.342866 4.536575 12.210009 6.136121 12.84375 7.40625 C 13.329451 8.3814808 14.099497 9.1273009 15.03125 9.46875 C 16.569357 8.4092473 18.134514 7.6705684 19.5 7.375 C 19.566294 7.2222292 19.641006 7.0683421 19.6875 6.90625 C 19.787375 7.0518583 19.914253 7.1839378 20.03125 7.3125 C 20.235564 7.2847835 20.433668 7.2544329 20.625 7.25 C 21.130724 7.23828 21.578213 7.25 21.96875 7.25 C 22.977383 7.25 23.953915 7.3559615 24.90625 7.5625 C 25.076981 7.4134819 25.23479 7.2698272 25.375 7.09375 C 25.424166 7.3192405 25.5075 7.5329309 25.59375 7.75 C 27.259345 8.2018844 28.828545 8.9363574 30.21875 9.9375 C 30.295535 9.9059373 30.363048 9.8810083 30.4375 9.84375 C 30.424539 9.915992 30.415359 9.9892715 30.40625 10.0625 C 31.990787 11.240191 33.343979 12.732492 34.40625 14.46875 C 35.052207 14.398776 35.696414 14.143341 36.28125 13.75 C 37.413896 12.989536 37.987044 11.46646 37.84375 10.03125 C 37.700453 8.596042 36.265655 6.86379 34.96875 6.53125 C 34.225687 6.340721 33.382196 6.41339 32.65625 6.71875 C 32.75029 5.899802 32.624956 5.039903 32.28125 4.3125 C 31.673979 3.027298 29.522909 1.827945 28.21875 2.125 C 27.484598 2.292221 26.74564 2.672046 26.21875 3.25 C 25.98838 2.468876 25.519405 1.721045 24.9375 1.21875 C 24.448936 0.79702575 23.696966 0.55318353 22.90625 0.5 z "
       id="path8263"
       transform="translate(9.2195678,26.387401)" />
    <path
       sodipodi:nodetypes="sssscssccscssssscccsssssccscssccsss"
       style="color:#000000;fill:#1a1a1a;fill-opacity:0;fill-rule:nonzero;stroke:#ffffff;stroke-width:2;stroke-linecap:round;stroke-linejoin:round;stroke-miterlimit:4;stroke-opacity:1;stroke-dasharray:none;marker:none;visibility:visible;display:inline;overflow:visible;enable-background:accumulate"
       d="m 29.841593,33.625 c -3.540097,0.08202 -9.46791,4.236283 -11.653569,9.25 -5.487944,12.588879 -6.64936,13.099851 -7.624616,16 -2.8203759,8.387034 12.394485,7.0625 20.633922,7.0625 4.007657,0 7.617448,-1.714282 10.297832,-4.5 0.24093,1.93949 0.659198,3.567054 1.298046,4.9375 1.110686,2.382624 3.029507,3.867557 5.134493,4.5 4.209972,1.264887 9.199823,0.09375 15.432326,0.09375 0.912384,0.02126 1.77527,-0.798498 1.874955,-1.78125 5.038117,-0.159381 8.747129,0.849454 15.605398,-4.25 6.082122,-4.52235 18.784049,-0.153409 26.91282,4.09375 0.61481,1.20453 1.6835,2.162469 2.8557,2.875 1.84431,1.121071 4.18813,1.872932 6.89407,2.375 5.41187,1.004137 12.22057,0.960319 18.57648,-0.25 6.35591,-1.210319 12.28447,-3.505461 15.74963,-7.78125 1.73258,-2.137894 2.79405,-4.872415 2.68262,-7.90625 -0.11142,-3.033835 -1.30373,-6.282214 -3.63452,-9.75 -0.35461,-0.543435 -0.97275,-0.872183 -1.5865,-0.84375 -1.35293,0.03984 -2.23846,2.056421 -1.41343,3.21875 2.03995,3.035071 2.86882,5.532079 2.94224,7.53125 0.0734,1.999171 -0.53097,3.608983 -1.75958,5.125 -2.4572,3.032034 -7.70374,5.343091 -13.61506,6.46875 -5.91132,1.125659 -12.45488,1.155683 -17.33613,0.25 -2.44062,-0.452841 -4.46249,-1.178346 -5.7114,-1.9375 -1.24891,-0.759154 -1.49996,-1.291348 -1.49996,-1.6875 0.0159,-1.078696 -0.90846,-2.06499 -1.9038,-2.03125 -2.36788,-12.259215 -12.415791,-21.46875 -24.432114,-21.46875 -12.781067,0 -23.297334,10.418938 -24.749412,23.84375 -4.870304,0.195385 -8.694439,0.632488 -10.903587,-0.03125 -1.362209,-0.409276 -2.138581,-0.992276 -2.826856,-2.46875 -0.688274,-1.476474 -1.153818,-4.029061 -1.153818,-7.96875 0.0052,-0.146391 -0.0045,-0.293398 -0.02885,-0.4375 0.777306,-1.957615 1.21151,-4.108742 1.21151,-6.375 0,-8.92627 -6.673669,-16.15625 -14.913107,-16.15625 -0.390537,0 -0.850009,-0.01172 -1.355733,0 z"
       id="path3589"
       inkscape:connector-curvature="0" />
    <path
       style="color:#000000;fill:#ffffff;fill-opacity:1;fill-rule:nonzero;stroke:none;stroke-width:1;stroke-linecap:round;stroke-linejoin:round;stroke-miterlimit:4;stroke-opacity:1;stroke-dasharray:none;marker:none;visibility:visible;display:inline;overflow:visible;enable-background:accumulate"
       d="M 67.625 21.1875 L 66.25 21.375 L 66.1875 21.375 C 66.16647 21.38375 66.14704 21.39287 66.125 21.40625 C 66.118938 21.417478 66.096866 21.401003 66.09375 21.40625 L 66.5625 23 A 0.50005 0.50005 0 0 1 66.25 23.625 C 65.922043 23.734903 65.626228 23.88239 65.3125 24.0625 C 64.967542 24.260537 64.661694 24.458915 64.40625 24.6875 A 0.50005 0.50005 0 0 1 63.6875 24.65625 L 62.5625 23.5 C 62.53419 23.51624 62.52063 23.51485 62.5 23.53125 L 62.46875 23.5625 L 61.625 24.65625 C 61.62279 24.65979 61.60399 24.69566 61.59375 24.71875 C 61.58351 24.74184 61.5691 24.75847 61.5625 24.78125 L 63.03125 25.5625 A 0.50005 0.50005 0 0 1 63.21875 26.21875 C 62.894308 26.853136 62.70147 27.583632 62.65625 28.3125 A 0.50005 0.50005 0 0 1 62.125 28.78125 L 60.5 28.71875 C 60.48825 28.76412 60.47125 28.78927 60.46875 28.8125 L 60.46875 28.84375 L 60.53125 29.25 A 0.50005 0.50005 0 0 1 60.53125 29.34375 C 60.52559 29.41404 60.5091 29.43794 60.5 29.46875 L 60.5 29.5 C 60.4989 29.49984 60.4985 29.53665 60.5 29.53125 L 60.5625 29.6875 A 0.50005 0.50005 0 0 1 60.59375 29.75 L 60.65625 30.21875 L 60.65625 30.28125 C 60.66412 30.30385 60.6794 30.32942 60.6875 30.34375 A 0.50005 0.50005 0 0 1 60.75 30.5 L 60.8125 30.84375 C 60.82423 30.86789 60.82837 30.88316 60.84375 30.90625 L 62.375 30.3125 A 0.50005 0.50005 0 0 1 63.03125 30.59375 C 63.302562 31.26185 63.703021 31.900203 64.21875 32.40625 A 0.50005 0.50005 0 0 1 64.21875 33.09375 L 64.09375 33.21875 L 63.96875 33.34375 A 0.50005 0.50005 0 0 1 63.9375 33.34375 A 0.50005 0.50005 0 0 1 63.9375 33.375 A 0.50005 0.50005 0 0 1 63.875 33.4375 A 0.50005 0.50005 0 0 1 63.875 33.46875 L 63.84375 33.5 L 63.125 34.25 A 0.50005 0.50005 0 0 1 63.125 34.28125 A 0.50005 0.50005 0 0 1 63.125 34.3125 A 0.50005 0.50005 0 0 1 63.15625 34.3125 C 63.187485 34.355715 63.195434 34.371166 63.1875 34.375 L 63.1875 34.40625 L 64.375 35.1875 C 64.37494 35.18747 64.42289 35.20491 64.46875 35.21875 L 65.15625 33.6875 A 0.50005 0.50005 0 0 1 65.8125 33.4375 C 66.487739 33.731929 67.224493 33.90265 67.9375 33.90625 A 0.50005 0.50005 0 0 1 68.4375 34.4375 L 68.375 35.96875 C 68.40354 35.99603 68.44379 36.0101 68.5 36.0625 C 68.54288 36.0713 68.57177 36.0613 68.59375 36.0625 L 68.625 36.0625 L 70.0625 35.78125 C 70.09248 35.76895 70.13098 35.76462 70.15625 35.75 L 69.5625 34.21875 A 0.50005 0.50005 0 0 1 69.84375 33.5625 C 70.095875 33.466527 70.375663 33.330644 70.625 33.1875 C 71.014789 32.963725 71.343706 32.739875 71.65625 32.4375 A 0.50005 0.50005 0 0 1 72.34375 32.4375 L 73.40625 33.53125 C 73.435714 33.532417 73.49076 33.532792 73.5625 33.53125 C 73.574483 33.526239 73.60199 33.51258 73.625 33.5 C 73.65261 33.48491 73.67458 33.51 73.6875 33.5 C 73.69611 33.49335 73.7299 33.45519 73.71875 33.46875 L 74.5 32.28125 C 74.50261 32.2764 74.52445 32.2672 74.53125 32.25 C 74.53635 32.2371 74.52625 32.23382 74.53125 32.21875 L 73.03125 31.53125 A 0.50005 0.50005 0 0 1 72.78125 30.84375 C 73.082512 30.195409 73.2642 29.51757 73.28125 28.78125 A 0.50005 0.50005 0 0 1 73.78125 28.28125 L 75.34375 28.3125 C 75.37108 28.28377 75.38334 28.24506 75.4375 28.1875 C 75.4462 28.14468 75.4363 28.11494 75.4375 28.09375 L 75.4375 28.0625 L 75.21875 26.8125 L 75.21875 26.78125 C 75.21066 26.758719 75.21049 26.69794 75.1875 26.65625 C 75.14513 26.63449 75.09312 26.60605 75.0625 26.59375 C 75.06496 26.592979 75.02285 26.59085 75.03125 26.59375 L 73.625 27.15625 A 0.50005 0.50005 0 0 1 72.96875 26.84375 C 72.722954 26.159064 72.341031 25.559538 71.84375 25.03125 A 0.50005 0.50005 0 0 1 71.875 24.3125 L 73.0625 23.21875 C 73.02959 23.16912 72.98244 23.10656 72.96875 23.09375 L 71.875 22.28125 L 71.84375 22.25 C 71.81997 22.2396 71.78944 22.22934 71.75 22.21875 C 71.72183 22.21119 71.69554 22.220115 71.6875 22.21875 C 71.670782 22.222547 71.643038 22.214562 71.625 22.21875 L 70.96875 23.65625 A 0.50005 0.50005 0 0 1 70.28125 23.875 C 69.614212 23.553409 68.894442 23.37468 68.1875 23.34375 A 0.50005 0.50005 0 0 1 67.71875 22.84375 L 67.75 21.21875 C 67.70458 21.20694 67.67973 21.19 67.65625 21.1875 C 67.64903 21.186724 67.6231 21.187562 67.625 21.1875 z M 67.96875 26.40625 C 69.190672 26.40625 70.1875 27.408793 70.1875 28.625 C 70.1875 29.841207 69.190671 30.84375 67.96875 30.84375 C 66.746828 30.84375 65.75 29.841207 65.75 28.625 C 65.75 27.408794 66.746828 26.40625 67.96875 26.40625 z "
       transform="translate(9.2195678,26.387401)"
       id="path7009" />
    <path
       style="color:#000000;fill:#ffffff;fill-opacity:1;fill-rule:nonzero;stroke:none;stroke-width:1;stroke-linecap:round;stroke-linejoin:round;stroke-miterlimit:4;stroke-opacity:1;stroke-dasharray:none;marker:none;visibility:visible;display:inline;overflow:visible;enable-background:accumulate"
       d="M 57.4375 31.1875 L 57.40625 31.21875 L 56.46875 32.03125 L 56.40625 32.0625 C 56.40825 32.07371 56.40435 32.08375 56.40625 32.09375 C 56.40855 32.10572 56.4355 32.1155 56.4375 32.125 L 57.0625 32.5 A 0.50005 0.50005 0 0 1 57.25 33.1875 C 56.89129 33.765275 56.73038 34.458475 56.875 35.15625 C 56.875033 35.15642 56.8737 35.17698 56.875 35.1875 A 0.50005 0.50005 0 0 1 56.875 35.21875 C 56.8763 35.2306 56.874864 35.2458 56.875 35.25 C 56.875371 35.26065 56.875024 35.27835 56.875 35.28125 A 0.50005 0.50005 0 0 1 56.5 35.78125 L 55.75 35.9375 C 55.750532 35.95759 55.7468 35.9514 55.75 35.96875 L 55.75 36 L 56.375 37.0625 L 56.40625 37.125 C 56.41551 37.1327 56.4284 37.1191 56.4375 37.125 C 56.46852 37.1262 56.47916 37.124224 56.5 37.125 L 56.9375 36.625 A 0.50005 0.50005 0 0 1 57.65625 36.5625 C 58.284598 37.15065 59.184986 37.439821 60.09375 37.25 C 60.118666 37.24479 60.18356 37.24625 60.28125 37.21875 A 0.50005 0.50005 0 0 1 60.875 37.5625 L 61.0625 38.25 C 61.06868 38.2535 61.08485 38.2454 61.09375 38.25 C 61.13547 38.2429 61.19811 38.2448 61.1875 38.25 L 62.21875 37.5625 C 62.22354 37.55803 62.23934 37.54293 62.25 37.53125 L 61.6875 37.03125 A 0.50005 0.50005 0 0 1 61.65625 36.34375 C 62.049251 35.871068 62.257 35.241381 62.25 34.59375 A 0.50005 0.50005 0 0 1 62.3125 34.34375 A 0.50005 0.50005 0 0 1 62.1875 34.125 C 62.177914 34.072427 62.192013 34.062475 62.1875 34.03125 C 62.16592 33.929128 62.14262 33.824107 62.09375 33.6875 A 0.50005 0.50005 0 0 1 62.40625 33.0625 L 63.09375 32.8125 L 62.28125 31.6875 L 61.8125 32.3125 A 0.50005 0.50005 0 0 1 61.125 32.40625 C 60.523151 31.97635 59.753875 31.804754 58.96875 31.96875 C 58.814894 32.000888 58.631211 32.07279 58.4375 32.15625 A 0.50005 0.50005 0 0 1 57.8125 31.90625 L 57.46875 31.1875 L 57.4375 31.1875 z M 59.4375 33.15625 C 60.296326 33.15625 61 33.86362 61 34.71875 C 61 35.57388 60.296326 36.28125 59.4375 36.28125 C 58.578675 36.28125 57.875 35.573882 57.875 34.71875 C 57.875 33.863618 58.578675 33.15625 59.4375 33.15625 z "
       transform="translate(9.2195678,26.387401)"
       id="path7011" />
    <path
       style="font-size:medium;font-style:normal;font-variant:normal;font-weight:normal;font-stretch:normal;text-indent:0;text-align:start;text-decoration:none;line-height:normal;letter-spacing:normal;word-spacing:normal;text-transform:none;direction:ltr;block-progression:tb;writing-mode:lr-tb;text-anchor:start;baseline-shift:baseline;color:#000000;fill:none;fill-opacity:1;stroke:#ffffff;stroke-width:1;stroke-miterlimit:4;stroke-dasharray:none;marker:none;visibility:visible;display:inline;overflow:visible;enable-background:accumulate;font-family:Sans;-inkscape-font-specification:Sans"
       d="m 73.105648,59.664657 a 2.0002,2.0002 0 0 0 -1.75,2 c 0,2.18701 -0.935581,3.99921 -2.53125,5.65625 -1.595669,1.65704 -3.863936,3.054047 -6.1875,4.15625 -4.647127,2.204406 -9.375,3.125 -9.375,3.125 a 2.0041461,2.0041461 0 1 0 0.75,3.9375 c 0,0 5.14189,-0.969951 10.34375,-3.4375 2.60093,-1.233775 5.246048,-2.852867 7.34375,-5.03125 2.097702,-2.178383 3.65625,-5.037421 3.65625,-8.40625 a 2.0002,2.0002 0 0 0 -2.25,-2 z"
       id="path4373"
       inkscape:connector-curvature="0" />
    <path
       style="color:#000000;fill:#ffffff;fill-opacity:1;fill-rule:nonzero;stroke:none;stroke-width:1;stroke-linecap:round;stroke-linejoin:round;stroke-miterlimit:4;stroke-opacity:1;stroke-dasharray:none;marker:none;visibility:visible;display:inline;overflow:visible;enable-background:accumulate"
       d="M 77.96875 26.21875 L 76.84375 26.78125 C 76.84257 26.78204 76.80126 26.79527 76.78125 26.8125 C 76.76124 26.82973 76.76647 26.85695 76.75 26.875 L 76.75 26.90625 C 76.749395 26.90639 76.750253 26.9405 76.75 26.9375 L 77.25 27.40625 A 0.50005 0.50005 0 0 1 77.25 28.125 C 76.765575 28.581223 76.44663 29.218235 76.40625 29.9375 A 0.50005 0.50005 0 0 1 75.90625 30.40625 L 75.125 30.40625 C 75.1234 30.42588 75.127 30.45724 75.125 30.4375 L 75.4375 31.65625 C 75.43067 31.64004 75.44348 31.68908 75.46875 31.71875 C 75.48712 31.72412 75.48564 31.746 75.5 31.75 L 76.09375 31.34375 A 0.50005 0.50005 0 0 1 76.8125 31.5 C 77.265481 32.224655 78.075517 32.73237 79 32.78125 C 79.047042 32.78375 79.10554 32.78255 79.1875 32.78125 A 0.50005 0.50005 0 0 1 79.6875 33.28125 L 79.6875 34 C 79.69243 34.0049 79.71315 33.9947 79.71875 34 C 79.76077 34.0041 79.82778 33.9969 79.8125 34 L 80.96875 33.625 C 80.95817 33.63066 81.01058 33.61001 81.03125 33.59375 L 80.59375 32.96875 A 0.50005 0.50005 0 0 1 80.71875 32.28125 C 81.370686 31.818127 81.7989 31.077619 81.84375 30.21875 C 81.85095 30.079143 81.85245 29.948226 81.84375 29.84375 A 0.50005 0.50005 0 0 1 82.28125 29.3125 L 83.03125 29.21875 L 83.03125 29.1875 L 82.53125 27.9375 C 82.52445 27.93024 82.53965 27.91455 82.53125 27.90625 C 82.5229 27.89795 82.5079 27.91265 82.5 27.90625 L 81.9375 28.40625 A 0.50005 0.50005 0 0 1 81.25 28.34375 C 80.786406 27.783189 80.053422 27.41748 79.25 27.375 C 79.062286 27.3651 78.866217 27.37961 78.6875 27.40625 A 0.50005 0.50005 0 0 1 78.125 27 L 77.96875 26.21875 z M 78.8125 28.59375 C 79.021683 28.56443 79.220048 28.60696 79.40625 28.65625 C 80.244208 28.878049 80.720256 29.735969 80.5 30.5625 C 80.28234 31.379292 79.44984 31.87458 78.625 31.65625 C 77.791407 31.435608 77.275327 30.593101 77.5 29.75 C 77.670107 29.111652 78.208079 28.67848 78.8125 28.59375 z "
       transform="translate(9.2195678,26.387401)"
       id="path7013" />
    <path
       style="font-size:medium;font-style:normal;font-variant:normal;font-weight:normal;font-stretch:normal;text-indent:0;text-align:start;text-decoration:none;line-height:normal;letter-spacing:normal;word-spacing:normal;text-transform:none;direction:ltr;block-progression:tb;writing-mode:lr-tb;text-anchor:start;baseline-shift:baseline;color:#000000;fill:none;fill-opacity:1;stroke:#ffffff;stroke-width:1;stroke-miterlimit:4;stroke-dasharray:none;marker:none;visibility:visible;display:inline;overflow:visible;enable-background:accumulate;font-family:Sans;-inkscape-font-specification:Sans"
       d="m 92.263483,49.40717 c -2.852572,-0.271366 -5.539676,0.95695 -7.0625,3.1875 -2.030432,2.974066 -2.057955,7.39836 0.5625,11.65625 2.263474,3.677845 6.587705,7.277929 13.28125,10.28125 -0.0711,0.01423 -0.0847,0.01753 -0.15625,0.03125 -3.26937,0.627077 -7.25,1.03125 -7.25,1.03125 a 2.0002,2.0002 0 1 0 0.40625,3.96875 c 0,0 4.06354,-0.416643 7.59375,-1.09375 1.765097,-0.338553 3.305567,-0.645914 4.593747,-1.3125 0.32205,-0.166646 0.64458,-0.337127 1,-0.71875 0.35542,-0.381623 0.76213,-1.186002 0.625,-2.03125 -0.13713,-0.845248 -0.63906,-1.336964 -1.03125,-1.625 -0.39219,-0.288036 -0.77076,-0.438419 -1.1875,-0.59375 -8.114147,-3.024413 -12.481834,-6.802782 -14.468747,-10.03125 -1.986913,-3.228468 -1.6598,-5.842555 -0.65625,-7.3125 1.00355,-1.469945 2.608325,-2.120939 4.9375,-1.03125 2.32918,1.089689 5.36675,4.354053 7.593747,11.25 a 2.0012813,2.0012813 0 1 0 3.8125,-1.21875 c -2.43676,-7.54545 -5.923567,-11.880698 -9.718747,-13.65625 -0.948796,-0.443888 -1.924143,-0.690795 -2.875,-0.78125 z"
       id="path4377"
       inkscape:connector-curvature="0" />
    <path
       style="color:#000000;fill:#ffffff;fill-opacity:1;fill-rule:nonzero;stroke:none;stroke-width:1;stroke-linecap:round;stroke-linejoin:round;stroke-miterlimit:4;stroke-opacity:1;stroke-dasharray:none;marker:none;visibility:visible;display:inline;overflow:visible;enable-background:accumulate"
       d="M 21.40625 13.40625 L 19.71875 13.65625 C 19.68151 13.67019 19.63882 13.69314 19.59375 13.71875 C 19.55995 13.73796 19.544882 13.742812 19.53125 13.75 C 19.525355 13.7839 19.523698 13.818723 19.53125 13.84375 L 20.09375 15.75 A 0.50005 0.50005 0 0 1 19.78125 16.375 C 19.373446 16.512123 18.973064 16.687753 18.59375 16.90625 C 18.193209 17.136974 17.836976 17.416189 17.5 17.71875 A 0.50005 0.50005 0 0 1 16.78125 17.6875 L 15.4375 16.21875 C 15.431176 16.21204 15.36387 16.1891 15.3125 16.1875 C 15.297219 16.191898 15.299715 16.2078 15.28125 16.21875 C 15.2197 16.25525 15.13709 16.33082 15.125 16.34375 L 14.0625 17.6875 L 14.03125 17.71875 C 14.0178 17.74744 14.01504 17.81735 14 17.875 C 13.9812 17.94707 14.02913 18.00219 14 17.90625 C 14.01492 17.9554 14.0263 17.98067 14.0625 18 L 15.84375 18.9375 A 0.50005 0.50005 0 0 1 16.03125 19.625 C 15.629305 20.413584 15.399545 21.253977 15.34375 22.15625 A 0.50005 0.50005 0 0 1 14.8125 22.625 L 12.8125 22.5625 C 12.794638 22.561906 12.767817 22.556546 12.75 22.5625 C 12.743232 22.577456 12.72961 22.61817 12.71875 22.65625 C 12.697 22.732412 12.687544 22.84505 12.6875 22.84375 L 12.65625 22.84375 L 12.75 23.34375 A 0.50005 0.50005 0 0 1 12.75 23.4375 C 12.74484 23.5019 12.72095 23.47565 12.71875 23.5 L 12.71875 23.53125 C 12.71725 23.52544 12.72155 23.59029 12.71875 23.5625 L 12.8125 23.90625 A 0.50005 0.50005 0 0 1 12.8125 23.96875 L 12.875 24.53125 C 12.87831 24.545291 12.92928 24.64847 12.96875 24.71875 A 0.50005 0.50005 0 0 1 13 24.875 L 13.0625 25.21875 L 13.09375 25.28125 C 13.11078 25.31919 13.1274 25.36196 13.15625 25.40625 C 13.177885 25.43947 13.203207 25.432079 13.21875 25.4375 C 13.237923 25.440747 13.255437 25.44724 13.28125 25.4375 L 15.15625 24.71875 A 0.50005 0.50005 0 0 1 15.8125 25 C 16.146651 25.825615 16.641889 26.589272 17.28125 27.21875 A 0.50005 0.50005 0 0 1 17.28125 27.90625 L 15.90625 29.375 C 15.888015 29.394313 15.878072 29.413066 15.875 29.4375 C 15.872091 29.416912 15.8734 29.416539 15.875 29.46875 C 15.879866 29.490119 15.8914 29.508598 15.90625 29.53125 C 15.93807 29.57979 15.97626 29.59961 16 29.625 C 16.00791 29.63346 16.030394 29.655546 16.03125 29.65625 L 17.46875 30.625 L 17.5 30.65625 C 17.533096 30.66985 17.59938 30.67578 17.65625 30.6875 C 17.691795 30.69483 17.707839 30.68604 17.71875 30.6875 C 17.742554 30.668507 17.76933 30.651353 17.78125 30.625 L 18.59375 28.8125 A 0.50005 0.50005 0 0 1 19.25 28.5625 C 20.083575 28.927198 20.964862 29.1205 21.84375 29.125 A 0.50005 0.50005 0 0 1 22.34375 29.625 L 22.28125 31.5 C 22.309813 31.53085 22.370954 31.592239 22.4375 31.65625 C 22.422734 31.650521 22.43508 31.656015 22.46875 31.6875 C 22.48485 31.694094 22.508987 31.682358 22.53125 31.6875 C 22.58139 31.69908 22.62234 31.71665 22.65625 31.71875 C 22.67253 31.71975 22.72015 31.718615 22.71875 31.71875 L 24.4375 31.375 C 24.478116 31.3593 24.54156 31.34421 24.59375 31.3125 C 24.61006 31.30259 24.615081 31.29172 24.625 31.28125 C 24.629553 31.248749 24.633318 31.209685 24.625 31.1875 L 23.9375 29.3125 A 0.50005 0.50005 0 0 1 24.21875 28.6875 C 24.53397 28.567105 24.850418 28.394919 25.15625 28.21875 C 25.627131 27.947507 26.048967 27.627161 26.4375 27.25 A 0.50005 0.50005 0 0 1 27.15625 27.25 L 28.4375 28.65625 C 28.42598 28.655904 28.47055 28.65735 28.46875 28.65625 C 28.521736 28.655447 28.610033 28.66005 28.71875 28.65625 C 28.635104 28.65916 28.71793 28.63224 28.78125 28.59375 C 28.82684 28.56604 28.85303 28.55035 28.875 28.53125 L 28.875 28.5 C 28.87765 28.4977 28.907165 28.4989 28.90625 28.5 L 29.875 27.09375 C 29.87671 27.09057 29.90185 27.07343 29.90625 27.0625 C 29.92007 27.02816 29.92643 26.99111 29.9375 26.9375 C 29.9448 26.90215 29.936001 26.86248 29.9375 26.84375 C 29.928505 26.834139 29.92732 26.822055 29.90625 26.8125 A 0.50005 0.50005 0 0 1 29.875 26.8125 L 28.0625 25.96875 A 0.50005 0.50005 0 0 1 27.8125 25.3125 C 28.183905 24.510507 28.4165 23.628294 28.4375 22.71875 A 0.50005 0.50005 0 0 1 28.9375 22.25 L 30.875 22.28125 C 30.909897 22.252818 30.943992 22.18454 31 22.125 C 31.006618 22.109897 31.02231 22.102345 31.03125 22.0625 C 31.04623 21.99573 31.0611 21.92819 31.0625 21.90625 L 31.0625 21.875 L 30.78125 20.28125 C 30.76978 20.25271 30.75085 20.20881 30.71875 20.15625 C 30.705836 20.135112 30.701517 20.107968 30.6875 20.09375 C 30.611275 20.0533 30.54661 20.02166 30.5 20 L 28.6875 20.6875 A 0.50005 0.50005 0 0 1 28.03125 20.375 C 27.729896 19.532717 27.270776 18.748797 26.65625 18.09375 A 0.50005 0.50005 0 0 1 26.6875 17.40625 L 28.15625 16.03125 C 28.172035 16.016529 28.183428 15.994071 28.1875 15.96875 C 28.185461 15.954094 28.1772 15.940345 28.15625 15.90625 C 28.12355 15.85303 28.08987 15.81228 28.0625 15.78125 L 28.03125 15.75 L 26.65625 14.71875 C 26.65537 14.7182 26.6294 14.72085 26.625 14.71875 C 26.600171 14.70687 26.53033 14.67224 26.46875 14.65625 C 26.443396 14.649666 26.421505 14.626396 26.40625 14.625 C 26.323913 14.654813 26.262812 14.70403 26.21875 14.71875 L 26.1875 14.71875 L 25.40625 16.4375 A 0.50005 0.50005 0 0 1 24.71875 16.6875 C 23.905305 16.293999 23.03691 16.06991 22.15625 16.03125 A 0.50005 0.50005 0 0 1 21.6875 15.53125 L 21.71875 13.53125 A 0.50005 0.50005 0 0 1 21.75 13.53125 C 21.75123 13.49324 21.758622 13.482765 21.75 13.46875 C 21.733998 13.460575 21.69428 13.446885 21.65625 13.4375 C 21.59252 13.42177 21.53592 13.40825 21.5 13.40625 C 21.49305 13.405868 21.47155 13.406161 21.46875 13.40625 A 0.50005 0.50005 0 0 1 21.40625 13.40625 z M 21.875 19.96875 C 23.297362 19.96875 24.46875 21.141534 24.46875 22.5625 C 24.46875 23.983466 23.297362 25.15625 21.875 25.15625 C 20.452637 25.15625 19.28125 23.983466 19.28125 22.5625 C 19.28125 21.141534 20.452638 19.96875 21.875 19.96875 z "
       transform="translate(9.2195678,26.387401)"
       id="path6251" />
    <path
       style="color:#000000;fill:#ffffff;fill-opacity:1;fill-rule:nonzero;stroke:none;stroke-width:1;stroke-linecap:round;stroke-linejoin:round;stroke-miterlimit:4;stroke-opacity:1;stroke-dasharray:none;marker:none;visibility:visible;display:inline;overflow:visible;enable-background:accumulate"
       d="M 9.09375 25.5625 L 9.03125 25.59375 L 7.84375 26.625 L 7.8125 26.65625 C 7.79793 26.67914 7.7991 26.7091 7.78125 26.75 C 7.773585 26.767529 7.7524574 26.76751 7.75 26.78125 C 7.7518884 26.79174 7.7489637 26.816748 7.75 26.8125 C 7.7558409 26.834343 7.7761147 26.856788 7.78125 26.875 C 7.780423 26.87515 7.78395 26.91375 7.78125 26.90625 L 8.59375 27.375 A 0.50005 0.50005 0 0 1 8.78125 28.0625 C 8.337352 28.779903 8.13079 29.651555 8.3125 30.53125 C 8.32941 30.61966 8.3154 30.6442 8.3125 30.65625 C 8.311633 30.65963 8.312447 30.688193 8.3125 30.6875 A 0.50005 0.50005 0 0 1 7.9375 31.15625 L 6.96875 31.40625 C 6.968313 31.40637 6.97595 31.4315 6.96875 31.4375 C 6.97035 31.49875 6.97575 31.58115 6.96875 31.5625 L 7.75 32.9375 L 7.78125 32.96875 C 7.80076 32.98614 7.82135 32.98506 7.84375 33 C 7.86921 33.016975 7.8980174 33.027206 7.90625 33.03125 C 7.9541456 33.032006 8.00827 33.033517 8.03125 33.03125 L 8.5625 32.375 A 0.50005 0.50005 0 0 1 9.3125 32.3125 C 10.09531 33.047704 11.239792 33.425422 12.375 33.1875 C 12.420418 33.17798 12.482325 33.15647 12.59375 33.125 A 0.50005 0.50005 0 0 1 13.1875 33.46875 L 13.40625 34.34375 C 13.424021 34.355374 13.466983 34.363524 13.5 34.375 C 13.486976 34.368198 13.510575 34.38269 13.5625 34.40625 C 13.571676 34.407381 13.584426 34.407345 13.59375 34.40625 C 13.623 34.40285 13.63057 34.41325 13.65625 34.40625 C 13.68514 34.39836 13.73039 34.3693 13.71875 34.375 L 15 33.53125 C 15.00037 33.5309 15.041 33.49667 15.0625 33.46875 C 15.07939 33.44682 15.08033 33.42924 15.09375 33.40625 C 15.08815 33.39533 15.10015 33.3806 15.09375 33.375 L 14.34375 32.6875 A 0.50005 0.50005 0 0 1 14.28125 32 C 14.91703 31.232724 15.192588 30.218964 14.96875 29.15625 C 14.93037 28.974009 14.91681 28.836023 14.875 28.71875 A 0.50005 0.50005 0 0 1 15.15625 28.0625 L 16.09375 27.71875 C 16.09532 27.71816 16.1151 27.6969 16.125 27.6875 C 16.11513 27.64016 16.07512 27.59346 16.0625 27.5625 L 16.0625 27.53125 L 15.03125 26.1875 C 15.01661 26.17822 15.01697 26.16565 15 26.15625 C 14.98869 26.14995 14.97936 26.16105 14.96875 26.15625 C 14.96185 26.15965 14.9463 26.15045 14.9375 26.15625 L 14.34375 26.96875 A 0.50005 0.50005 0 0 1 13.65625 27.0625 C 12.911329 26.52855 11.921572 26.325004 10.9375 26.53125 C 10.699354 26.581162 10.482247 26.66311 10.28125 26.75 A 0.50005 0.50005 0 0 1 9.625 26.5 L 9.1875 25.59375 C 9.182 25.58268 9.1936 25.5681 9.1875 25.5625 A 0.50005 0.50005 0 0 1 9.15625 25.5625 A 0.50005 0.50005 0 0 1 9.09375 25.5625 z M 11.53125 28.1875 C 12.516359 28.1875 13.34375 28.984039 13.34375 29.96875 C 13.34375 30.953461 12.516359 31.78125 11.53125 31.78125 C 10.546141 31.78125 9.75 30.953461 9.75 29.96875 C 9.75 28.984039 10.546142 28.1875 11.53125 28.1875 z "
       transform="translate(9.2195678,26.387401)"
       id="path6883" />
  </g>
</svg>
